<svg width="130" height="130" viewBox="0 0 130 130" fill="none" xmlns="http://www.w3.org/2000/svg">
<g clip-path="url(#clip0_308_111)">
<g filter="url(#filter0_d_308_111)">
<path fill-rule="evenodd" clip-rule="evenodd" d="M59.6176 18.0327C57.6264 18.3103 55.9585 19.163 54.6479 20.5733C53.9032 21.3748 53.4002 22.1955 53.0341 23.2066C52.7839 23.8979 51.7911 27.0134 50.9967 29.601C50.6478 30.7374 50.007 32.8078 49.5727 34.2018C49.1384 35.5959 48.3478 38.1373 47.816 39.8496C47.2842 41.5618 46.6415 43.6305 46.388 44.4468L46.2392 44.9255C46.0438 45.5548 45.5408 46.0505 44.9115 46.2456C43.7592 46.6029 41.404 47.3347 39.5697 47.9055C38.8877 48.1177 37.9825 48.3971 37.5582 48.5264C37.1338 48.6557 35.931 49.0283 34.8853 49.3544C33.8395 49.6805 32.0043 50.2509 30.807 50.6219C29.6097 50.9928 27.9357 51.5114 27.087 51.7744C23.9693 52.7403 22.2093 53.3513 22.1016 53.5053C22.0852 53.5286 21.9727 53.6067 21.8514 53.6787C20.3187 54.5897 19.0363 56.1757 18.4194 57.9234C18.1156 58.784 17.9989 59.4965 18 60.4845C18.0023 62.6106 18.681 64.3423 20.1437 65.9542C20.7203 66.5895 22.609 67.9531 35.2297 76.846L40.145 80.3094C40.3372 80.4449 40.4515 80.6653 40.4515 80.9005C40.4515 81.1067 40.4271 82.573 40.3972 84.159C40.2321 92.9179 40.1722 104.603 40.2881 105.446C40.446 106.596 41.1941 108.17 42.083 109.223C43.209 110.557 44.8031 111.484 46.6434 111.874C47.387 112.031 48.7142 112.043 49.5174 111.899C50.5848 111.708 51.7584 111.227 52.6312 110.623C53.1589 110.258 55.131 108.809 55.9613 108.177C56.5425 107.734 57.5948 106.947 60.705 104.63C63.5398 102.518 70.5982 97.2515 71.1817 96.813C71.6559 96.4566 71.6948 96.4381 71.8441 96.4972C72.0595 96.5823 73.1342 96.9495 76.9629 98.2461C78.7512 98.8517 82.4961 100.121 85.2847 101.067C92.057 103.363 94.0513 104.023 94.7088 104.185C95.4116 104.358 96.5763 104.417 97.3537 104.319C98.3046 104.2 99.0804 103.961 99.9719 103.515C102.174 102.413 103.695 100.419 104.215 97.9524C104.376 97.1846 104.417 96.0204 104.307 95.3076C104.169 94.419 104.151 94.3614 100.148 82.552C99.2077 79.7791 97.9935 76.1962 97.4494 74.59L96.7973 72.6651C96.5862 72.0419 96.695 71.3548 97.0885 70.8274L98.8237 68.5015C100.124 66.759 102.494 63.5852 104.092 61.4487C110.588 52.7616 110.927 52.2901 111.326 51.3699C111.801 50.2738 112.003 49.3097 112 48.1421C111.994 45.4945 110.803 43.1855 108.645 41.6371C108.089 41.2377 107.184 40.7962 106.31 40.498L105.936 40.3704C105.727 40.2991 105.508 40.2629 105.288 40.2631L98.9523 40.2689C93.0456 40.2743 88.4674 40.32 82.3913 40.4342L81.6041 40.449C80.9417 40.4614 80.3161 40.145 79.9336 39.604L77.0825 35.5722C67.6578 22.2439 66.5854 20.7523 66.0836 20.2744C64.8726 19.1211 63.4368 18.3865 61.8072 18.0865C61.3479 18.002 60.0641 17.9704 59.6176 18.0327Z" fill="#63A5ED"/>
<path d="M47.4973 61.4124C56.9322 61.4124 64.5806 53.7639 64.5806 44.3291C64.5806 34.8942 56.9322 27.2457 47.4973 27.2457C38.0624 27.2457 30.414 34.8942 30.414 44.3291C30.414 53.7639 38.0624 61.4124 47.4973 61.4124Z" fill="#627EEA"/>
<path d="M48.0265 31.5164V40.9869L56.0311 44.5638L48.0265 31.5164Z" fill="white" fill-opacity="0.602"/>
<path d="M48.0272 31.5164L40.0216 44.5638L48.0272 40.9869V31.5164Z" fill="white"/>
<path d="M48.0265 50.7014V57.1364L56.0365 46.0547L48.0265 50.7014Z" fill="white" fill-opacity="0.602"/>
<path d="M48.0269 57.1364V50.7003L40.0213 46.0547L48.0269 57.1364Z" fill="white"/>
<path d="M48.0265 49.2114L56.0311 44.5637L48.0265 40.989V49.2114Z" fill="white" fill-opacity="0.2"/>
<path d="M40.0213 44.5637L48.0269 49.2114V40.989L40.0213 44.5637Z" fill="white" fill-opacity="0.602"/>
<path d="M96.664 74.7457C102.417 74.7457 107.081 70.082 107.081 64.329C107.081 58.5761 102.417 53.9124 96.664 53.9124C90.911 53.9124 86.2473 58.5761 86.2473 64.329C86.2473 70.082 90.911 74.7457 96.664 74.7457Z" fill="#627EEA"/>
<path d="M96.9868 56.5164V62.2911L101.868 64.4721L96.9868 56.5164Z" fill="white" fill-opacity="0.602"/>
<path d="M96.9873 56.5164L92.1058 64.4721L96.9873 62.2911V56.5164Z" fill="white"/>
<path d="M96.9868 68.2146V72.1384L101.871 65.3812L96.9868 68.2146Z" fill="white" fill-opacity="0.602"/>
<path d="M96.987 72.1384V68.2139L92.1055 65.3812L96.987 72.1384Z" fill="white"/>
<path d="M96.9868 67.306L101.868 64.472L96.9868 62.2924V67.306Z" fill="white" fill-opacity="0.2"/>
<path d="M92.1055 64.472L96.987 67.306V62.2924L92.1055 64.472Z" fill="white" fill-opacity="0.602"/>
<path d="M44.164 93.9124C48.5362 93.9124 52.0806 90.368 52.0806 85.9958C52.0806 81.6235 48.5362 78.0791 44.164 78.0791C39.7917 78.0791 36.2473 81.6235 36.2473 85.9958C36.2473 90.368 39.7917 93.9124 44.164 93.9124Z" fill="#627EEA"/>
<path d="M44.4092 80.0582V84.447L48.1187 86.1046L44.4092 80.0582Z" fill="white" fill-opacity="0.602"/>
<path d="M44.4098 80.0582L40.6998 86.1046L44.4098 84.447V80.0582Z" fill="white"/>
<path d="M44.4092 88.9487V91.9309L48.1212 86.7954L44.4092 88.9487Z" fill="white" fill-opacity="0.602"/>
<path d="M44.4095 91.9309V88.9482L40.6995 86.7954L44.4095 91.9309Z" fill="white"/>
<path d="M44.4092 88.2584L48.1187 86.1046L44.4092 84.448V88.2584Z" fill="white" fill-opacity="0.2"/>
<path d="M40.6995 86.1046L44.4095 88.2584V84.448L40.6995 86.1046Z" fill="white" fill-opacity="0.602"/>
</g>
</g>
<defs>
<filter id="filter0_d_308_111" x="-12" y="-8" width="154" height="154" filterUnits="userSpaceOnUse" color-interpolation-filters="sRGB">
<feFlood flood-opacity="0" result="BackgroundImageFix"/>
<feColorMatrix in="SourceAlpha" type="matrix" values="0 0 0 0 0 0 0 0 0 0 0 0 0 0 0 0 0 0 127 0" result="hardAlpha"/>
<feOffset dy="4"/>
<feGaussianBlur stdDeviation="15"/>
<feComposite in2="hardAlpha" operator="out"/>
<feColorMatrix type="matrix" values="0 0 0 0 0.388235 0 0 0 0 0.647059 0 0 0 0 0.929412 0 0 0 0.3 0"/>
<feBlend mode="normal" in2="BackgroundImageFix" result="effect1_dropShadow_308_111"/>
<feBlend mode="normal" in="SourceGraphic" in2="effect1_dropShadow_308_111" result="shape"/>
</filter>
<clipPath id="clip0_308_111">
<rect width="130" height="130" fill="white"/>
</clipPath>
</defs>
</svg>
