<svg width="130" height="130" viewBox="0 0 130 130" fill="none" xmlns="http://www.w3.org/2000/svg">
<path d="M65.0703 110.449C53.9685 110.449 44.9688 106.867 44.9688 102.449V107.235C44.9688 111.724 54.1012 115 65.3764 115C76.6516 115 85.835 111.5 85.835 107.653L85.7942 102.49C85.2228 106.908 76.172 110.449 65.0703 110.449Z" fill="#63A5ED"/>
<path d="M65.0703 101.623C53.9685 101.623 44.9688 98.0412 44.9688 93.6229V98.4085C44.9688 102.898 54.1012 106.174 65.3764 106.174C76.6516 106.174 85.8248 102.674 85.8248 98.8269L85.784 93.6637C85.2228 98.082 76.172 101.623 65.0703 101.623Z" fill="#63A5ED"/>
<path d="M20.4488 76.2969V81.0825C20.4488 85.3681 28.7649 88.5415 39.3259 88.8272C39.3769 87.1946 40.3768 85.6436 42.1013 84.2763C41.5911 84.2967 41.0707 84.2967 40.5503 84.2967C29.4486 84.3069 20.4488 80.7253 20.4488 76.2969Z" fill="#63A5ED"/>
<path d="M20.8162 85.1334V89.919C20.8162 94.2046 29.1323 96.7658 39.6933 97.0413V92.5006C29.1629 92.2557 20.8162 89.3884 20.8162 85.1334Z" fill="#63A5ED"/>
<path d="M45.1933 88.8986C45.2749 84.4497 54.3971 80.858 65.5805 80.8988C76.7639 80.9294 85.7636 84.562 85.682 89.0108C85.6004 93.4597 76.4782 97.0514 65.2948 97.0106C54.2236 96.98 45.2647 93.4189 45.1933 89.0108V88.8986Z" fill="#63A5ED"/>
<path d="M20.4489 72.2561C20.4489 76.7458 29.5813 80.0212 40.8565 80.0212C52.1317 80.0212 61.305 76.5213 61.305 72.6745L61.2641 67.5113C60.6927 71.9398 51.6419 75.4805 40.5402 75.4805C29.4384 75.4805 20.4387 71.899 20.4387 67.4807L20.4489 72.2561Z" fill="#63A5ED"/>
<path d="M40.8565 71.1848C52.1317 71.1848 61.305 67.6849 61.305 63.838L61.2641 58.6749C60.6927 63.1034 51.6419 66.6441 40.5402 66.6441C29.4384 66.6441 20.4387 63.0625 20.4387 58.6443V63.4299C20.4489 67.9196 29.5813 71.1848 40.8565 71.1848Z" fill="#63A5ED"/>
<path d="M88.8655 75.1235C77.7637 75.1235 68.7639 71.5419 68.7639 67.1237V71.9092C68.7639 76.3989 77.8964 79.6744 89.1716 79.6744C100.447 79.6744 109.62 76.1744 109.62 72.3276L109.579 67.1645C109.008 71.5827 99.9672 75.1235 88.8655 75.1235Z" fill="#63A5ED"/>
<path d="M63.4476 34.2469V48.1139C63.4476 49.42 64.5088 50.4812 65.8149 50.4812H74.7127C76.0187 50.4812 77.0799 49.42 77.0799 48.1139V34.2469H87.1307C88.0592 33.3184 88.0592 31.8184 87.1307 30.8899L71.9474 15.6964C71.0189 14.7679 69.5189 14.7679 68.5904 15.6964L53.3969 30.8899C52.4683 31.8184 52.4683 33.3184 53.3969 34.2469H63.4476Z" fill="#63A5ED"/>
<path d="M20 55.3281C20.0816 50.8792 29.2038 47.2875 40.3872 47.3181C51.5706 47.3487 60.5704 50.9812 60.4887 55.4301C60.4071 59.879 51.2849 63.4605 40.1015 63.4299C29.0304 63.3993 20.0714 59.8381 20 55.4301V55.3281V55.3281Z" fill="#63A5ED"/>
<path d="M68.7639 62.4809C68.8456 58.032 77.9678 54.4403 89.1512 54.4709C100.335 54.5015 109.334 58.1341 109.253 62.5829C109.171 67.0318 100.049 70.6133 88.8655 70.5827C77.7943 70.5521 68.8354 66.991 68.7639 62.5829V62.4809Z" fill="#63A5ED"/>
<path d="M89.4981 84.3068C88.9778 84.3068 88.4574 84.2966 87.9472 84.2864C89.6716 85.6639 90.6716 87.2047 90.7226 88.8373C101.284 88.5516 109.6 85.3782 109.6 81.0926V76.307C109.6 80.7253 100.6 84.3068 89.4981 84.3068Z" fill="#63A5ED"/>
<path d="M90.4064 92.5006V97.0413C100.967 96.7556 109.283 94.1944 109.283 89.919V85.1334C109.283 89.3884 100.937 92.2557 90.4064 92.5006Z" fill="#63A5ED"/>
<path d="M88.551 71.7457C99.8729 71.7457 109.051 67.6917 109.051 62.6907C109.051 57.6898 99.8729 53.6357 88.551 53.6357C77.2292 53.6357 68.051 57.6898 68.051 62.6907C68.051 67.6917 77.2292 71.7457 88.551 71.7457Z" fill="#627EEA"/>
<path d="M89.1862 55.8994V60.9193L98.7918 62.8152L89.1862 55.8994Z" fill="white" fill-opacity="0.602"/>
<path d="M89.1869 55.8994L79.5801 62.8152L89.1869 60.9193V55.8994Z" fill="white"/>
<path d="M89.1862 66.0684V69.4793L98.7982 63.6055L89.1862 66.0684Z" fill="white" fill-opacity="0.602"/>
<path d="M89.1869 69.4793V66.0679L79.5801 63.6055L89.1869 69.4793Z" fill="white"/>
<path d="M89.1862 65.2787L98.7918 62.8152L89.1862 60.9204V65.2787Z" fill="white" fill-opacity="0.2"/>
<path d="M79.5801 62.8152L89.1869 65.2787V60.9204L79.5801 62.8152Z" fill="white" fill-opacity="0.602"/>
</svg>
