<svg width="130" height="130" viewBox="0 0 130 130" fill="none" xmlns="http://www.w3.org/2000/svg">
<g filter="url(#filter0_i_308_128)">
<path d="M66.498 42.9419C77.7848 42.9419 86.945 52.0725 86.945 63.3227C86.945 74.5729 77.7848 83.7035 66.498 83.7035C55.2113 83.7035 46.051 74.5729 46.051 63.3227C46.051 52.0725 55.2113 42.9419 66.498 42.9419Z" fill="#627EEA"/>
</g>
<path d="M67.896 46.9999V61.0733L79.7909 66.3885L67.896 46.9999Z" fill="white" fill-opacity="0.602"/>
<path d="M67.8965 47L56 66.3886L67.8965 61.0734V47Z" fill="white"/>
<path d="M67.896 75.5093V85.0719L79.7988 68.6042L67.896 75.5093Z" fill="white" fill-opacity="0.602"/>
<path d="M67.8966 85.0719V75.5077L56 68.6042L67.8966 85.0719Z" fill="white"/>
<path d="M67.896 73.2952L79.7909 66.3886L67.896 61.0765V73.2952Z" fill="white" fill-opacity="0.2"/>
<path d="M56 66.3886L67.8966 73.2952V61.0765L56 66.3886Z" fill="white" fill-opacity="0.602"/>
<g filter="url(#filter1_i_308_128)">
<path fill-rule="evenodd" clip-rule="evenodd" d="M57.5019 22.0565C53.4163 22.2835 48.9321 23.3739 45.1574 25.0581C39.639 27.5205 34.7783 31.3944 31.1334 36.2352C23.4511 46.4381 21.8427 60.1309 26.9473 71.8745C29.5293 77.8146 33.8204 83.083 39.0893 86.7821C41.9407 88.7838 45.1147 90.3996 48.2636 91.4522C52.2327 92.7791 56.3396 93.3915 60.4833 93.2745C62.654 93.2133 63.4827 93.1347 65.5224 92.7974C70.0397 92.0502 74.3863 90.4223 78.3211 88.004L79.1279 87.5082L89.3742 97.7541L99.6204 108H101.038C102.451 108 102.456 107.999 102.959 107.744C103.709 107.363 104.317 106.927 105.205 106.132C106.433 105.034 109.401 101.897 109.846 101.228C110.553 100.164 111.001 98.9973 111 98.2192C110.998 97.3386 111.631 98.0207 100.411 86.7931C94.6871 81.0649 90.0039 76.3544 90.0039 76.3252C90.0039 76.296 90.2142 75.9184 90.4712 75.4861C92.3698 72.2923 93.9295 68.0405 94.6566 64.0761C95.0932 61.6962 95.1692 60.7228 95.1652 57.5673C95.1613 54.4378 95.1102 53.8004 94.6573 51.2264C93.0225 41.9362 87.4439 33.4269 79.4648 28.0527C73.0256 23.7157 65.3512 21.6205 57.5019 22.0565ZM63.079 34.0938C66.4878 34.6066 69.9308 35.9229 72.7031 37.7732C74.2826 38.8275 75.0753 39.4811 76.4854 40.8923C78.8023 43.211 80.5722 45.908 81.7523 48.9184C82.5225 50.8826 83.0027 52.8191 83.2516 54.9638C83.4217 56.4293 83.373 59.7887 83.1628 61.0946C82.7173 63.8623 81.9587 66.1956 80.7298 68.5787C77.591 74.6653 71.9591 79.1201 65.3404 80.7519C63.2194 81.2748 62.1068 81.4053 59.7274 81.4102C57.5055 81.4147 56.6764 81.3419 54.9139 80.9873C47.0608 79.4076 40.4498 73.8842 37.4873 66.4276C36.7075 64.4646 36.2035 62.4472 35.9557 60.2968C35.7804 58.775 35.8251 55.5317 36.0401 54.1659C36.4474 51.5798 37.1727 49.2994 38.3169 47.0087C41.3008 41.0342 46.6575 36.5893 53.0726 34.7643C54.6502 34.3156 55.8598 34.0996 57.9638 33.891C58.8573 33.8024 61.9602 33.9254 63.079 34.0938Z" fill="url(#paint0_radial_308_128)"/>
</g>
<g filter="url(#filter2_i_308_128)">
<path d="M26.701 47.2419C31.2108 47.2419 34.871 50.8903 34.871 55.3855C34.871 59.8807 31.2108 63.5291 26.701 63.5291C22.1912 63.5291 18.531 59.8807 18.531 55.3855C18.531 50.8903 22.1912 47.2419 26.701 47.2419Z" fill="#627EEA"/>
</g>
<path d="M26.8983 49V53.6118L30.7962 55.3536L26.8983 49Z" fill="white" fill-opacity="0.602"/>
<path d="M26.8985 49L23 55.3536L26.8985 53.6118V49Z" fill="white"/>
<path d="M26.8983 58.3425V61.4761L30.7988 56.0797L26.8983 58.3425Z" fill="white" fill-opacity="0.602"/>
<path d="M26.8985 61.4761V58.3419L23 56.0797L26.8985 61.4761Z" fill="white"/>
<path d="M26.8983 57.6168L30.7962 55.3535L26.8983 53.6128V57.6168Z" fill="white" fill-opacity="0.2"/>
<path d="M23 55.3535L26.8985 57.6168V53.6128L23 55.3535Z" fill="white" fill-opacity="0.602"/>
<defs>
<filter id="filter0_i_308_128" x="46.051" y="42.9419" width="40.894" height="44.2016" filterUnits="userSpaceOnUse" color-interpolation-filters="sRGB">
<feFlood flood-opacity="0" result="BackgroundImageFix"/>
<feBlend mode="normal" in="SourceGraphic" in2="BackgroundImageFix" result="shape"/>
<feColorMatrix in="SourceAlpha" type="matrix" values="0 0 0 0 0 0 0 0 0 0 0 0 0 0 0 0 0 0 127 0" result="hardAlpha"/>
<feOffset dy="3.44"/>
<feGaussianBlur stdDeviation="12.9"/>
<feComposite in2="hardAlpha" operator="arithmetic" k2="-1" k3="1"/>
<feColorMatrix type="matrix" values="0 0 0 0 0 0 0 0 0 0 0 0 0 0 0 0 0 0 0.1 0"/>
<feBlend mode="normal" in2="shape" result="effect1_innerShadow_308_128"/>
</filter>
<filter id="filter1_i_308_128" x="24" y="22" width="87.0058" height="89.44" filterUnits="userSpaceOnUse" color-interpolation-filters="sRGB">
<feFlood flood-opacity="0" result="BackgroundImageFix"/>
<feBlend mode="normal" in="SourceGraphic" in2="BackgroundImageFix" result="shape"/>
<feColorMatrix in="SourceAlpha" type="matrix" values="0 0 0 0 0 0 0 0 0 0 0 0 0 0 0 0 0 0 127 0" result="hardAlpha"/>
<feOffset dy="3.44"/>
<feGaussianBlur stdDeviation="12.9"/>
<feComposite in2="hardAlpha" operator="arithmetic" k2="-1" k3="1"/>
<feColorMatrix type="matrix" values="0 0 0 0 0 0 0 0 0 0.52 0 0 0 0 1 0 0 0 0.25 0"/>
<feBlend mode="normal" in2="shape" result="effect1_innerShadow_308_128"/>
</filter>
<filter id="filter2_i_308_128" x="18.531" y="47.2419" width="16.34" height="19.7272" filterUnits="userSpaceOnUse" color-interpolation-filters="sRGB">
<feFlood flood-opacity="0" result="BackgroundImageFix"/>
<feBlend mode="normal" in="SourceGraphic" in2="BackgroundImageFix" result="shape"/>
<feColorMatrix in="SourceAlpha" type="matrix" values="0 0 0 0 0 0 0 0 0 0 0 0 0 0 0 0 0 0 127 0" result="hardAlpha"/>
<feOffset dy="3.44"/>
<feGaussianBlur stdDeviation="12.9"/>
<feComposite in2="hardAlpha" operator="arithmetic" k2="-1" k3="1"/>
<feColorMatrix type="matrix" values="0 0 0 0 0 0 0 0 0 0 0 0 0 0 0 0 0 0 0.1 0"/>
<feBlend mode="normal" in2="shape" result="effect1_innerShadow_308_128"/>
</filter>
<radialGradient id="paint0_radial_308_128" cx="0" cy="0" r="1" gradientUnits="userSpaceOnUse" gradientTransform="translate(43.2848 -1.36955) rotate(60.4002) scale(175.239 321.946)">
<stop stop-color="#11D9FE"/>
<stop offset="0.130208" stop-color="#24AAFF"/>
<stop offset="0.286458" stop-color="#5699F9"/>
<stop offset="0.479167" stop-color="#08E0FF"/>
<stop offset="0.666667" stop-color="#2EBCFD"/>
</radialGradient>
</defs>
</svg>
