<svg width="131" height="130" viewBox="0 0 131 130" fill="none" xmlns="http://www.w3.org/2000/svg">
<path d="M103.986 52.8618C103.986 67.6102 92.0296 79.566 77.2813 79.566C75.5789 79.566 73.9144 79.4049 72.3004 79.1004L68.6571 83.1992C68.3155 83.5835 67.8963 83.8912 67.4272 84.1018C66.9581 84.3125 66.4497 84.4214 65.9354 84.4213H60.2876V90.4905C60.2876 92.5017 58.6573 94.132 56.6461 94.132H50.5769V100.201C50.5769 102.212 48.9466 103.843 46.9354 103.843H29.9418C27.9306 103.843 26.3003 102.212 26.3003 100.201V88.3574C26.3003 87.3916 26.684 86.4653 27.3668 85.7824L51.9168 61.2323C51.0485 58.5992 50.5769 55.7857 50.5769 52.8617C50.5769 38.1133 62.5327 26.1575 77.2811 26.1573C92.073 26.1572 103.986 38.0698 103.986 52.8618ZM77.2813 45.5787C77.2813 49.601 80.5419 52.8617 84.5643 52.8617C88.5866 52.8617 91.8473 49.601 91.8473 45.5787C91.8473 41.5563 88.5866 38.2957 84.5643 38.2957C80.5419 38.2957 77.2813 41.5563 77.2813 45.5787Z" fill="#8494AB"/>
<path d="M78.1167 71.4622C88.8916 71.4622 97.6266 62.7275 97.6266 51.9525C97.6266 41.1775 88.8916 32.4427 78.1167 32.4427C67.3418 32.4427 58.607 41.1775 58.607 51.9525C58.607 62.7275 67.3418 71.4622 78.1167 71.4622Z" fill="#345D9D"/>
<path d="M71.3221 55.8709L69.5821 56.5465L70.421 53.1822L72.1818 52.475L74.7192 42.197H80.9734L79.1212 49.7521L80.8405 49.0559L80.0113 52.4093L78.2712 53.1055L77.2372 57.3525H86.6532L85.5887 61.7069H69.8894L71.3221 55.8709Z" fill="white"/>
</svg>
