<svg width="131" height="130" viewBox="0 0 131 130" fill="none" xmlns="http://www.w3.org/2000/svg">
<g clip-path="url(#clip0_2903_654)">
<g filter="url(#filter0_d_2903_654)">
<path d="M65.1646 110.449C54.0628 110.449 45.063 106.868 45.063 102.449V107.235C45.063 111.725 54.1955 115 65.4707 115C76.7459 115 85.9293 111.5 85.9293 107.653L85.8885 102.49C85.3171 106.908 76.2663 110.449 65.1646 110.449Z" fill="#8494AB"/>
<path d="M65.1646 101.623C54.0628 101.623 45.063 98.0411 45.063 93.6229V98.4085C45.063 102.898 54.1955 106.174 65.4707 106.174C76.7459 106.174 85.9191 102.674 85.9191 98.8268L85.8783 93.6637C85.3171 98.0819 76.2663 101.623 65.1646 101.623Z" fill="#8494AB"/>
<path d="M20.5431 76.2969V81.0825C20.5431 85.3681 28.8592 88.5415 39.4202 88.8272C39.4712 87.1946 40.4711 85.6436 42.1956 84.2763C41.6854 84.2967 41.165 84.2967 40.6446 84.2967C29.5429 84.3069 20.5431 80.7254 20.5431 76.2969Z" fill="#8494AB"/>
<path d="M20.9105 85.1334V89.919C20.9105 94.2046 29.2266 96.7657 39.7876 97.0412V92.5005C29.2572 92.2556 20.9105 89.3884 20.9105 85.1334Z" fill="#8494AB"/>
<path d="M45.2875 88.8986C45.3692 84.4497 54.4914 80.858 65.6748 80.8988C76.8581 80.9294 85.8579 84.562 85.7763 89.0108C85.6946 93.4597 76.5724 97.0514 65.3891 97.0106C54.3179 96.98 45.359 93.4189 45.2875 89.0108V88.8986Z" fill="#8494AB"/>
<path d="M20.5432 72.2562C20.5432 76.7458 29.6756 80.0213 40.9508 80.0213C52.226 80.0213 61.3992 76.5214 61.3992 72.6745L61.3584 67.5114C60.787 71.9398 51.7362 75.4806 40.6345 75.4806C29.5327 75.4806 20.533 71.899 20.533 67.4808L20.5432 72.2562Z" fill="#8494AB"/>
<path d="M40.9508 71.1848C52.226 71.1848 61.3992 67.6849 61.3992 63.838L61.3584 58.6749C60.787 63.1034 51.7362 66.6441 40.6345 66.6441C29.5327 66.6441 20.533 63.0625 20.533 58.6443V63.4299C20.5432 67.9196 29.6756 71.1848 40.9508 71.1848Z" fill="#8494AB"/>
<path d="M88.9597 75.1235C77.858 75.1235 68.8582 71.5419 68.8582 67.1237V71.9092C68.8582 76.3989 77.9906 79.6744 89.2658 79.6744C100.541 79.6744 109.714 76.1744 109.714 72.3276L109.673 67.1645C109.102 71.5827 100.061 75.1235 88.9597 75.1235Z" fill="#8494AB"/>
<path d="M63.542 34.2469V48.1139C63.542 49.42 64.6032 50.4812 65.9093 50.4812H74.807C76.1131 50.4812 77.1743 49.42 77.1743 48.1139V34.2469H87.225C88.1536 33.3184 88.1536 31.8184 87.225 30.8899L72.0417 15.6964C71.1132 14.7679 69.6132 14.7679 68.6847 15.6964L53.4912 30.8899C52.5627 31.8184 52.5627 33.3184 53.4912 34.2469H63.542Z" fill="#8494AB"/>
<path d="M20.0943 55.3281C20.1759 50.8792 29.2981 47.2875 40.4815 47.3181C51.6649 47.3487 60.6647 50.9812 60.583 55.4301C60.5014 59.879 51.3792 63.4605 40.1958 63.4299C29.1247 63.3993 20.1657 59.8381 20.0943 55.4301V55.3281V55.3281Z" fill="#8494AB"/>
<path d="M68.8582 62.4809C68.9398 58.032 78.0621 54.4403 89.2454 54.4709C100.429 54.5015 109.429 58.1341 109.347 62.5829C109.265 67.0318 100.143 70.6133 88.9597 70.5827C77.8886 70.5521 68.9296 66.991 68.8582 62.5829V62.4809Z" fill="#8494AB"/>
<path d="M89.5924 84.3068C89.072 84.3068 88.5516 84.2966 88.0414 84.2864C89.7659 85.6639 90.7659 87.2047 90.8169 88.8373C101.378 88.5516 109.694 85.3782 109.694 81.0926V76.307C109.694 80.7253 100.694 84.3068 89.5924 84.3068Z" fill="#8494AB"/>
<path d="M90.5007 92.5005V97.0412C101.062 96.7555 109.378 94.1944 109.378 89.919V85.1334C109.378 89.3884 101.031 92.2556 90.5007 92.5005Z" fill="#8494AB"/>
<path d="M89.1964 53.6357C100.788 53.6357 110.196 57.4437 110.196 62.1357C110.196 66.8277 100.788 70.6357 89.1964 70.6357C77.6043 70.6357 68.1964 66.8277 68.1964 62.1357C68.1964 57.4437 77.6043 53.6357 89.1964 53.6357Z" fill="#345D9D"/>
<path d="M83.2293 61.1554L88.9767 58.8217L94.7259 61.1563L98.0701 59.7986L88.9767 56.106L79.8857 59.7974L83.2293 61.1552V61.1554ZM74.1804 62.1144L77.5246 60.7562L80.8682 62.1144L77.524 63.4717L74.1804 62.1144ZM83.2293 63.0732L88.9767 65.4066L94.7259 63.072L98.0719 64.429L88.9767 68.1228L79.8857 64.4309L79.8811 64.4288L83.2293 63.0729V63.0732ZM97.0841 62.1144L100.428 60.7566L103.773 62.1144L100.429 63.4722L97.0841 62.1144Z" fill="#F5F5F5"/>
<path d="M92.367 62.1144L88.9766 60.7355L86.4681 61.7536L86.1791 61.871L85.5856 62.112L85.5809 62.1139L85.5856 62.1158L88.9766 63.4925L92.3693 62.1148H92.3664" fill="#F5F5F5"/>
<path d="M88.5311 53.6357C99.784 53.6357 108.917 57.5064 108.917 62.2757C108.917 67.0449 99.784 70.9156 88.5311 70.9156C77.2781 70.9156 68.1453 67.0449 68.1453 62.2757C68.1453 57.5064 77.2781 53.6357 88.5311 53.6357Z" fill="#345D9D"/>
<path d="M65.5309 80.6357C76.7839 80.6357 85.9167 84.5064 85.9167 89.2757C85.9167 94.0449 76.7839 97.9156 65.5309 97.9156C54.278 97.9156 45.1452 94.0449 45.1452 89.2757C45.1452 84.5064 54.278 80.6357 65.5309 80.6357Z" fill="#345D9D"/>
<path d="M40.5311 46.6357C51.784 46.6357 60.9168 50.5064 60.9168 55.2757C60.9168 60.0449 51.784 63.9156 40.5311 63.9156C29.2781 63.9156 20.1453 60.0449 20.1453 55.2757C20.1453 50.5064 29.2781 46.6357 40.5311 46.6357Z" fill="#345D9D"/>
</g>
<path d="M58.7841 89.1422L57.0367 89.4668L57.8792 87.8503L59.6474 87.5105L62.1956 82.5721H68.4764L66.6164 86.2022L68.343 85.8677L67.5102 87.4789L65.7628 87.8135L64.7244 89.8541H74.1804L73.1113 91.9463H57.3453L58.7841 89.1422Z" fill="white"/>
<path d="M83.4714 63.2494L81.7239 63.5648L82.5664 61.9943L84.3347 61.6642L86.8829 56.8665H93.1637L91.3036 60.3932L93.0303 60.0682L92.1975 61.6335L90.45 61.9585L89.4116 63.941H98.8677L97.7986 65.9736H82.0325L83.4714 63.2494Z" fill="white"/>
<path d="M34.1417 56.3537L32.3942 56.6783L33.2367 55.0618L35.005 54.722L37.5532 49.7836H43.834L41.9739 53.4137L43.7006 53.0792L42.8678 54.6904L41.1203 55.025L40.0819 57.0656H49.538L48.4689 59.1578H32.7028L34.1417 56.3537Z" fill="white"/>
</g>
<defs>
<filter id="filter0_d_2903_654" x="-9.9057" y="-11" width="150.102" height="160" filterUnits="userSpaceOnUse" color-interpolation-filters="sRGB">
<feFlood flood-opacity="0" result="BackgroundImageFix"/>
<feColorMatrix in="SourceAlpha" type="matrix" values="0 0 0 0 0 0 0 0 0 0 0 0 0 0 0 0 0 0 127 0" result="hardAlpha"/>
<feOffset dy="4"/>
<feGaussianBlur stdDeviation="15"/>
<feComposite in2="hardAlpha" operator="out"/>
<feColorMatrix type="matrix" values="0 0 0 0 0.270588 0 0 0 0 0.547922 0 0 0 0 0.803922 0 0 0 0.3 0"/>
<feBlend mode="normal" in2="BackgroundImageFix" result="effect1_dropShadow_2903_654"/>
<feBlend mode="normal" in="SourceGraphic" in2="effect1_dropShadow_2903_654" result="shape"/>
</filter>
<clipPath id="clip0_2903_654">
<rect width="130" height="130" fill="white" transform="translate(0.145325)"/>
</clipPath>
</defs>
</svg>
