<svg width="130" height="130" viewBox="0 0 130 130" fill="none" xmlns="http://www.w3.org/2000/svg">
<g clip-path="url(#clip0_506_326)">
<g filter="url(#filter0_d_506_326)">
<path d="M65.0703 110.449C53.9685 110.449 44.9688 106.867 44.9688 102.449V107.235C44.9688 111.724 54.1012 115 65.3764 115C76.6516 115 85.835 111.5 85.835 107.653L85.7942 102.49C85.2228 106.908 76.172 110.449 65.0703 110.449Z" fill="#63A5ED"/>
<path d="M65.0703 101.623C53.9685 101.623 44.9688 98.0412 44.9688 93.6229V98.4085C44.9688 102.898 54.1012 106.174 65.3764 106.174C76.6516 106.174 85.8248 102.674 85.8248 98.8269L85.784 93.6637C85.2228 98.082 76.172 101.623 65.0703 101.623Z" fill="#63A5ED"/>
<path d="M20.4487 76.2969V81.0825C20.4487 85.3681 28.7648 88.5415 39.3258 88.8272C39.3768 87.1946 40.3768 85.6436 42.1012 84.2763C41.591 84.2967 41.0706 84.2967 40.5503 84.2967C29.4485 84.3069 20.4487 80.7253 20.4487 76.2969Z" fill="#63A5ED"/>
<path d="M20.8162 85.1334V89.919C20.8162 94.2046 29.1323 96.7658 39.6932 97.0413V92.5006C29.1629 92.2557 20.8162 89.3884 20.8162 85.1334Z" fill="#63A5ED"/>
<path d="M45.1934 88.8986C45.275 84.4497 54.3972 80.858 65.5806 80.8988C76.764 80.9294 85.7637 84.562 85.6821 89.0108C85.6005 93.4597 76.4783 97.0514 65.2949 97.0106C54.2237 96.98 45.2648 93.4189 45.1934 89.0108V88.8986Z" fill="#63A5ED"/>
<path d="M20.4489 72.2561C20.4489 76.7458 29.5813 80.0212 40.8566 80.0212C52.1318 80.0212 61.305 76.5213 61.305 72.6745L61.2642 67.5113C60.6928 71.9398 51.642 75.4805 40.5402 75.4805C29.4385 75.4805 20.4387 71.899 20.4387 67.4807L20.4489 72.2561Z" fill="#63A5ED"/>
<path d="M40.8566 71.1848C52.1318 71.1848 61.305 67.6849 61.305 63.838L61.2642 58.6749C60.6928 63.1034 51.642 66.6441 40.5402 66.6441C29.4385 66.6441 20.4387 63.0625 20.4387 58.6443V63.4299C20.4489 67.9196 29.5813 71.1848 40.8566 71.1848Z" fill="#63A5ED"/>
<path d="M88.8654 75.1235C77.7637 75.1235 68.7639 71.5419 68.7639 67.1237V71.9092C68.7639 76.3989 77.8963 79.6744 89.1715 79.6744C100.447 79.6744 109.62 76.1744 109.62 72.3276L109.579 67.1645C109.008 71.5827 99.9672 75.1235 88.8654 75.1235Z" fill="#63A5ED"/>
<path d="M63.4476 34.2469V48.1139C63.4476 49.42 64.5088 50.4812 65.8149 50.4812H74.7126C76.0187 50.4812 77.0799 49.42 77.0799 48.1139V34.2469H87.1307C88.0592 33.3184 88.0592 31.8184 87.1307 30.8899L71.9474 15.6964C71.0188 14.7679 69.5189 14.7679 68.5903 15.6964L53.3968 30.8899C52.4683 31.8184 52.4683 33.3184 53.3968 34.2469H63.4476Z" fill="#63A5ED"/>
<path d="M20 55.3281C20.0816 50.8792 29.2038 47.2875 40.3872 47.3181C51.5706 47.3487 60.5704 50.9812 60.4887 55.4301C60.4071 59.879 51.2849 63.4605 40.1015 63.4299C29.0304 63.3993 20.0714 59.8381 20 55.4301V55.3281V55.3281Z" fill="#63A5ED"/>
<path d="M68.7639 62.4809C68.8455 58.032 77.9678 54.4403 89.1511 54.4709C100.335 54.5015 109.334 58.1341 109.253 62.5829C109.171 67.0318 100.049 70.6133 88.8654 70.5827C77.7943 70.5521 68.8353 66.991 68.7639 62.5829V62.4809Z" fill="#63A5ED"/>
<path d="M89.4982 84.3068C88.9779 84.3068 88.4575 84.2966 87.9473 84.2864C89.6717 85.6639 90.6717 87.2047 90.7227 88.8373C101.284 88.5516 109.6 85.3782 109.6 81.0926V76.307C109.6 80.7253 100.6 84.3068 89.4982 84.3068Z" fill="#63A5ED"/>
<path d="M90.4065 92.5006V97.0413C100.967 96.7556 109.284 94.1944 109.284 89.919V85.1334C109.284 89.3884 100.937 92.2557 90.4065 92.5006Z" fill="#63A5ED"/>
<path d="M89.1021 53.6357C100.694 53.6357 110.102 57.4437 110.102 62.1357C110.102 66.8277 100.694 70.6357 89.1021 70.6357C77.5101 70.6357 68.1021 66.8277 68.1021 62.1357C68.1021 57.4437 77.5101 53.6357 89.1021 53.6357Z" fill="#EC0928"/>
<path d="M83.1351 61.1554L88.8825 58.8217L94.6317 61.1563L97.9759 59.7986L88.8825 56.106L79.7914 59.7974L83.1351 61.1552V61.1554ZM74.0862 62.1144L77.4304 60.7562L80.774 62.1144L77.4298 63.4717L74.0862 62.1144ZM83.1351 63.0732L88.8825 65.4066L94.6317 63.072L97.9776 64.429L88.8825 68.1228L79.7914 64.4309L79.7868 64.4288L83.1351 63.0729V63.0732ZM96.9898 62.1144L100.333 60.7566L103.679 62.1144L100.335 63.4722L96.9898 62.1144Z" fill="#F5F5F5"/>
<path d="M92.2729 62.1144L88.8825 60.7355L86.374 61.7536L86.085 61.871L85.4914 62.112L85.4868 62.1139L85.4914 62.1158L88.8825 63.4925L92.2752 62.1148H92.2723" fill="#F5F5F5"/>
<path d="M88.4368 53.6357C99.6897 53.6357 108.823 57.5064 108.823 62.2757C108.823 67.0449 99.6897 70.9156 88.4368 70.9156C77.1838 70.9156 68.051 67.0449 68.051 62.2757C68.051 57.5064 77.1838 53.6357 88.4368 53.6357Z" fill="#EC0928"/>
<path d="M98.7518 59.9496C97.6668 59.4735 96.1658 58.7465 94.9433 58.2309L94.871 58.2068C94.7506 58.1609 94.6149 58.1249 94.4695 58.1002V58.1002C91.5218 57.839 77.8033 56.6204 77.5357 56.6359C77.4607 56.6409 77.389 56.6538 77.3259 56.6737L77.2572 56.6995C77.1726 56.7403 77.1083 56.7897 77.0691 56.8439L77.051 56.8662V56.9882V57.0071C78.5954 59.0507 84.6933 65.7451 85.8941 67.3161C85.9664 67.4226 86.1039 67.6254 86.3607 67.6357H86.4185C86.556 67.6357 87.1419 67.2679 87.1419 67.2679C87.1419 67.2679 97.6161 61.2318 98.6758 60.589C98.813 60.5098 98.9341 60.4246 99.0375 60.3346C99.0639 60.2642 99.0515 60.1917 99.0014 60.1242C98.9513 60.0567 98.8653 59.9966 98.7518 59.9496V59.9496ZM89.8292 60.6526L94.2995 58.8909L96.9217 60.039L89.8292 60.6526ZM88.0931 60.5374L80.3966 57.5399L92.8492 58.6313L88.0931 60.5374ZM88.7875 61.3229L96.6649 60.7196L87.6591 65.8758L88.7875 61.3229ZM79.3513 57.839L87.4493 61.1046L86.2775 65.8792L79.3513 57.839Z" fill="white"/>
<path d="M65.4365 80.6357C76.6895 80.6357 85.8223 84.5064 85.8223 89.2757C85.8223 94.0449 76.6895 97.9156 65.4365 97.9156C54.1836 97.9156 45.0508 94.0449 45.0508 89.2757C45.0508 84.5064 54.1836 80.6357 65.4365 80.6357Z" fill="#EC0928"/>
<path d="M75.7516 86.9496C74.6665 86.4735 73.1655 85.7465 71.9431 85.2309L71.8707 85.2068C71.7504 85.1609 71.6147 85.1249 71.4693 85.1002V85.1002C68.5216 84.839 54.8031 83.6204 54.5354 83.6359C54.4604 83.6409 54.3888 83.6538 54.3257 83.6737L54.2569 83.6995C54.1723 83.7403 54.1081 83.7897 54.0689 83.8439L54.0508 83.8662V83.9882V84.0071C55.5952 86.0507 61.6931 92.7451 62.8938 94.3161C62.9662 94.4226 63.1036 94.6254 63.3604 94.6357H63.4183C63.5557 94.6357 64.1416 94.2679 64.1416 94.2679C64.1416 94.2679 74.6159 88.2318 75.6756 87.589C75.8128 87.5098 75.9339 87.4246 76.0373 87.3346C76.0637 87.2642 76.0512 87.1917 76.0012 87.1242C75.9511 87.0567 75.8651 86.9966 75.7516 86.9496V86.9496ZM66.8289 87.6526L71.2993 85.8909L73.9215 87.039L66.8289 87.6526ZM65.0929 87.5374L57.3963 84.5399L69.8489 85.6313L65.0929 87.5374ZM65.7873 88.3229L73.6647 87.7196L64.6588 92.8758L65.7873 88.3229ZM56.3511 84.839L64.4491 88.1046L63.2772 92.8792L56.3511 84.839Z" fill="white"/>
<path d="M40.4368 46.6357C51.6897 46.6357 60.8225 50.5064 60.8225 55.2757C60.8225 60.0449 51.6897 63.9156 40.4368 63.9156C29.1838 63.9156 20.051 60.0449 20.051 55.2757C20.051 50.5064 29.1838 46.6357 40.4368 46.6357Z" fill="#EC0928"/>
<path d="M50.7518 52.9496C49.6668 52.4735 48.1658 51.7465 46.9433 51.2309L46.871 51.2068C46.7506 51.1609 46.6149 51.1249 46.4695 51.1002V51.1002C43.5218 50.839 29.8033 49.6204 29.5357 49.6359C29.4607 49.6409 29.389 49.6538 29.3259 49.6737L29.2572 49.6995C29.1726 49.7403 29.1083 49.7897 29.0691 49.8439L29.051 49.8662V49.9882V50.0071C30.5954 52.0507 36.6933 58.7451 37.8941 60.3161C37.9664 60.4226 38.1039 60.6254 38.3607 60.6357H38.4185C38.556 60.6357 39.1419 60.2679 39.1419 60.2679C39.1419 60.2679 49.6161 54.2318 50.6758 53.589C50.813 53.5098 50.9341 53.4246 51.0375 53.3346C51.0639 53.2642 51.0515 53.1917 51.0014 53.1242C50.9513 53.0567 50.8653 52.9966 50.7518 52.9496V52.9496ZM41.8292 53.6526L46.2995 51.8909L48.9217 53.039L41.8292 53.6526ZM40.0931 53.5374L32.3966 50.5399L44.8492 51.6313L40.0931 53.5374ZM40.7875 54.3229L48.6649 53.7196L39.6591 58.8758L40.7875 54.3229ZM31.3513 50.839L39.4493 54.1046L38.2775 58.8792L31.3513 50.839Z" fill="white"/>
</g>
</g>
<defs>
<filter id="filter0_d_506_326" x="-10" y="-11" width="150.102" height="160" filterUnits="userSpaceOnUse" color-interpolation-filters="sRGB">
<feFlood flood-opacity="0" result="BackgroundImageFix"/>
<feColorMatrix in="SourceAlpha" type="matrix" values="0 0 0 0 0 0 0 0 0 0 0 0 0 0 0 0 0 0 127 0" result="hardAlpha"/>
<feOffset dy="4"/>
<feGaussianBlur stdDeviation="15"/>
<feComposite in2="hardAlpha" operator="out"/>
<feColorMatrix type="matrix" values="0 0 0 0 0.270588 0 0 0 0 0.547922 0 0 0 0 0.803922 0 0 0 0.3 0"/>
<feBlend mode="normal" in2="BackgroundImageFix" result="effect1_dropShadow_506_326"/>
<feBlend mode="normal" in="SourceGraphic" in2="effect1_dropShadow_506_326" result="shape"/>
</filter>
<clipPath id="clip0_506_326">
<rect width="130" height="130" fill="white"/>
</clipPath>
</defs>
</svg>
