<svg width="130" height="130" viewBox="0 0 130 130" fill="none" xmlns="http://www.w3.org/2000/svg">
<path d="M101 53.7501C101 67.4192 89.919 78.5 76.25 78.5C74.6722 78.5 73.1295 78.3507 71.6337 78.0684L68.257 81.8673C67.9404 82.2235 67.5519 82.5086 67.1171 82.7038C66.6823 82.8991 66.2111 83 65.7345 83H60.5V88.625C60.5 90.489 58.989 92 57.125 92H51.5V97.625C51.5 99.489 49.989 101 48.125 101H32.375C30.511 101 29 99.489 29 97.625V86.648C29 85.7529 29.3556 84.8944 29.9885 84.2614L52.7419 61.508C51.9371 59.0676 51.5 56.46 51.5 53.75C51.5 40.081 62.5808 29.0001 76.2499 29C89.9592 28.9999 101 40.0406 101 53.7501ZM76.25 47C76.25 50.728 79.272 53.75 83 53.75C86.728 53.75 89.75 50.728 89.75 47C89.75 43.272 86.728 40.25 83 40.25C79.272 40.25 76.25 43.272 76.25 47Z" fill="#65A6EC"/>
<g filter="url(#filter0_d_506_382)">
<path d="M76.342 35.861C85.7821 35.861 93.4437 43.4977 93.4437 52.9073C93.4437 62.3169 85.7821 69.9537 76.342 69.9537C66.9018 69.9537 59.2402 62.3169 59.2402 52.9073C59.2402 43.4977 66.9018 35.861 76.342 35.861Z" fill="#EC0928"/>
<path d="M84.9251 49.4205C84.0728 48.6102 82.8939 47.373 81.9337 46.4955L81.8769 46.4545C81.7824 46.3764 81.6758 46.3151 81.5616 46.2732V46.2732C79.2463 45.8286 68.471 43.7548 68.2608 43.7811C68.2019 43.7896 68.1456 43.8116 68.096 43.8455L68.0421 43.8894C67.9756 43.9589 67.9251 44.0428 67.8943 44.1351L67.8801 44.1731V44.3807V44.4129C69.0932 47.8907 73.8828 59.2834 74.826 61.9568C74.8828 62.1382 74.9907 62.4833 75.1924 62.5009H75.2379C75.3458 62.5009 75.806 61.8749 75.806 61.8749C75.806 61.8749 84.0331 51.6025 84.8654 50.5085C84.9732 50.3738 85.0683 50.2288 85.1495 50.0756C85.1703 49.9558 85.1605 49.8324 85.1211 49.7176C85.0818 49.6028 85.0143 49.5004 84.9251 49.4205V49.4205ZM77.9168 50.6168L81.428 47.6187L83.4876 49.5726L77.9168 50.6168ZM76.5532 50.4208L70.5079 45.3197L80.2889 47.177L76.5532 50.4208ZM77.0986 51.7575L83.2859 50.7308L76.2123 59.5057L77.0986 51.7575ZM69.6869 45.8286L76.0475 51.386L75.1271 59.5116L69.6869 45.8286Z" fill="white"/>
</g>
<defs>
<filter id="filter0_d_506_382" x="29.2402" y="9.86096" width="94.2034" height="94.0928" filterUnits="userSpaceOnUse" color-interpolation-filters="sRGB">
<feFlood flood-opacity="0" result="BackgroundImageFix"/>
<feColorMatrix in="SourceAlpha" type="matrix" values="0 0 0 0 0 0 0 0 0 0 0 0 0 0 0 0 0 0 127 0" result="hardAlpha"/>
<feOffset dy="4"/>
<feGaussianBlur stdDeviation="15"/>
<feComposite in2="hardAlpha" operator="out"/>
<feColorMatrix type="matrix" values="0 0 0 0 0 0 0 0 0 0 0 0 0 0 0 0 0 0 0.1 0"/>
<feBlend mode="normal" in2="BackgroundImageFix" result="effect1_dropShadow_506_382"/>
<feBlend mode="normal" in="SourceGraphic" in2="effect1_dropShadow_506_382" result="shape"/>
</filter>
</defs>
</svg>
