<svg width="130" height="130" viewBox="0 0 130 130" fill="none" xmlns="http://www.w3.org/2000/svg">
<g filter="url(#filter0_d_506_465)">
<path d="M65.732 46.9045C74.9842 46.9045 82.4931 54.3892 82.4931 63.6114C82.4931 72.8336 74.9842 80.3182 65.732 80.3182C56.4799 80.3182 48.9709 72.8336 48.9709 63.6114C48.9709 54.3892 56.4799 46.9045 65.732 46.9045Z" fill="#EC0928"/>
<path d="M76.1284 61.1298C75.2343 60.2799 73.9975 58.9818 72.9902 58.0613L72.9306 58.0183C72.8314 57.9363 72.7196 57.872 72.5997 57.8281V57.8281C70.1708 57.3616 58.8665 55.186 58.6459 55.2136C58.5841 55.2226 58.5251 55.2456 58.4731 55.2811L58.4165 55.3272C58.3467 55.4001 58.2938 55.4882 58.2615 55.5849L58.2466 55.6248V55.8427V55.8765C59.5192 59.525 64.544 71.4771 65.5334 74.2817C65.593 74.472 65.7063 74.8341 65.9179 74.8525H65.9656C66.0788 74.8525 66.5616 74.1958 66.5616 74.1958C66.5616 74.1958 75.1926 63.419 76.0658 62.2714C76.1789 62.13 76.2787 61.9779 76.3639 61.8172C76.3856 61.6915 76.3754 61.562 76.3341 61.4416C76.2928 61.3211 76.222 61.2137 76.1284 61.1298V61.1298ZM68.776 62.3849L72.4597 59.2396L74.6204 61.2894L68.776 62.3849ZM67.3455 62.1793L61.0034 56.8277L71.2646 58.7763L67.3455 62.1793ZM67.9177 63.5816L74.4088 62.5046L66.9878 71.7103L67.9177 63.5816ZM60.1421 57.3616L66.815 63.1919L65.8493 71.7164L60.1421 57.3616Z" fill="white"/>
</g>
<g filter="url(#filter1_d_506_465)">
<path fill-rule="evenodd" clip-rule="evenodd" d="M59.0961 27.0496C55.5077 27.249 51.5691 28.2067 48.2537 29.686C43.4069 31.8488 39.1377 35.2512 35.9363 39.503C29.1888 48.4643 27.7761 60.4909 32.2595 70.8055C34.5274 76.0228 38.2963 80.6501 42.9241 83.899C45.4285 85.6572 48.2163 87.0764 50.9819 88.0009C54.4681 89.1663 58.0752 89.7042 61.7147 89.6014C63.6213 89.5476 64.3492 89.4787 66.1406 89.1824C70.1082 88.5261 73.9259 87.0963 77.3819 84.9723L78.0905 84.5368L87.09 93.5359L96.0894 102.535H97.3342C98.5758 102.535 98.58 102.534 99.0217 102.31C99.6807 101.975 100.214 101.592 100.995 100.894C102.073 99.9298 104.68 97.1749 105.071 96.5871C105.692 95.6523 106.085 94.6278 106.084 93.9444C106.083 93.171 106.638 93.7701 96.7839 83.9088C91.7564 78.8776 87.6431 74.7402 87.6431 74.7146C87.6431 74.689 87.8278 74.3573 88.0535 73.9777C89.7211 71.1725 91.091 67.438 91.7297 63.956C92.1131 61.8658 92.1798 61.0108 92.1764 58.2393C92.1729 55.4906 92.1281 54.9308 91.7302 52.67C90.2943 44.5102 85.3946 37.0364 78.3865 32.3162C72.7308 28.5069 65.9903 26.6667 59.0961 27.0496ZM63.9946 37.6221C66.9886 38.0725 70.0126 39.2287 72.4475 40.8538C73.8349 41.7798 74.5311 42.3539 75.7696 43.5934C77.8045 45.63 79.3591 47.9988 80.3956 50.6428C81.072 52.368 81.4938 54.0689 81.7125 55.9525C81.8618 57.2397 81.8191 60.1903 81.6345 61.3374C81.2432 63.7683 80.5769 65.8176 79.4975 67.9108C76.7407 73.2567 71.7941 77.1695 65.9808 78.6026C64.1179 79.0619 63.1407 79.1765 61.0508 79.1808C59.0992 79.1848 58.371 79.1208 56.823 78.8094C49.9256 77.422 44.119 72.5707 41.517 66.0214C40.832 64.2973 40.3894 62.5254 40.1718 60.6366C40.0178 59.3 40.0571 56.4513 40.2459 55.2518C40.6036 52.9804 41.2407 50.9775 42.2457 48.9655C44.8665 43.7181 49.5713 39.814 55.2058 38.2111C56.5915 37.8169 57.6538 37.6272 59.5018 37.4441C60.2866 37.3662 63.0119 37.4742 63.9946 37.6221Z" fill="url(#paint0_radial_506_465)"/>
</g>
<g filter="url(#filter2_d_506_465)">
<path d="M30.3083 51.4365C33.7905 51.4365 36.6166 54.2535 36.6166 57.7244C36.6166 61.1953 33.7905 64.0123 30.3083 64.0123C26.8261 64.0123 24 61.1953 24 57.7244C24 54.2535 26.8261 51.4365 30.3083 51.4365Z" fill="#EC0928"/>
<path d="M33.2274 57.2614C32.8921 56.9672 32.4283 56.5178 32.0506 56.1992L32.0282 56.1843C31.991 56.1559 31.9491 56.1337 31.9042 56.1185V56.1185C30.9933 55.957 26.7542 55.2039 26.6715 55.2135C26.6483 55.2166 26.6262 55.2245 26.6067 55.2368L26.5854 55.2528C26.5593 55.278 26.5394 55.3085 26.5273 55.342L26.5217 55.3558V55.4312V55.4429C26.999 56.7059 28.8832 60.8431 29.2543 61.814C29.2767 61.8798 29.3191 62.0052 29.3985 62.0115H29.4164C29.4588 62.0115 29.6399 61.7842 29.6399 61.7842C29.6399 61.7842 32.8765 58.0538 33.204 57.6565C33.2463 57.6076 33.2838 57.555 33.3157 57.4993C33.3239 57.4558 33.32 57.411 33.3045 57.3693C33.2891 57.3276 33.2625 57.2904 33.2274 57.2614V57.2614ZM30.4703 57.6958L31.8516 56.6071L32.6619 57.3166L30.4703 57.6958ZM29.9338 57.6247L27.5555 55.7722L31.4035 56.4467L29.9338 57.6247ZM30.1484 58.1101L32.5826 57.7373L29.7997 60.9238L30.1484 58.1101ZM27.2325 55.957L29.7349 57.9752L29.3728 60.926L27.2325 55.957Z" fill="white"/>
</g>
<defs>
<filter id="filter0_d_506_465" x="26.3104" y="27.2654" width="78.8433" height="78.7346" filterUnits="userSpaceOnUse" color-interpolation-filters="sRGB">
<feFlood flood-opacity="0" result="BackgroundImageFix"/>
<feColorMatrix in="SourceAlpha" type="matrix" values="0 0 0 0 0 0 0 0 0 0 0 0 0 0 0 0 0 0 127 0" result="hardAlpha"/>
<feOffset dy="3.0214"/>
<feGaussianBlur stdDeviation="11.3303"/>
<feComposite in2="hardAlpha" operator="out"/>
<feColorMatrix type="matrix" values="0 0 0 0 0 0 0 0 0 0 0 0 0 0 0 0 0 0 0.1 0"/>
<feBlend mode="normal" in2="BackgroundImageFix" result="effect1_dropShadow_506_465"/>
<feBlend mode="normal" in="SourceGraphic" in2="effect1_dropShadow_506_465" result="shape"/>
</filter>
<filter id="filter1_d_506_465" x="7.01038" y="7.36088" width="121.739" height="120.856" filterUnits="userSpaceOnUse" color-interpolation-filters="sRGB">
<feFlood flood-opacity="0" result="BackgroundImageFix"/>
<feColorMatrix in="SourceAlpha" type="matrix" values="0 0 0 0 0 0 0 0 0 0 0 0 0 0 0 0 0 0 127 0" result="hardAlpha"/>
<feOffset dy="3.0214"/>
<feGaussianBlur stdDeviation="11.3303"/>
<feComposite in2="hardAlpha" operator="out"/>
<feColorMatrix type="matrix" values="0 0 0 0 0 0 0 0 0 0.52 0 0 0 0 1 0 0 0 0.25 0"/>
<feBlend mode="normal" in2="BackgroundImageFix" result="effect1_dropShadow_506_465"/>
<feBlend mode="normal" in="SourceGraphic" in2="effect1_dropShadow_506_465" result="shape"/>
</filter>
<filter id="filter2_d_506_465" x="1.33948" y="31.7974" width="57.9377" height="57.8967" filterUnits="userSpaceOnUse" color-interpolation-filters="sRGB">
<feFlood flood-opacity="0" result="BackgroundImageFix"/>
<feColorMatrix in="SourceAlpha" type="matrix" values="0 0 0 0 0 0 0 0 0 0 0 0 0 0 0 0 0 0 127 0" result="hardAlpha"/>
<feOffset dy="3.0214"/>
<feGaussianBlur stdDeviation="11.3303"/>
<feComposite in2="hardAlpha" operator="out"/>
<feColorMatrix type="matrix" values="0 0 0 0 0 0 0 0 0 0 0 0 0 0 0 0 0 0 0.1 0"/>
<feBlend mode="normal" in2="BackgroundImageFix" result="effect1_dropShadow_506_465"/>
<feBlend mode="normal" in="SourceGraphic" in2="effect1_dropShadow_506_465" result="shape"/>
</filter>
<radialGradient id="paint0_radial_506_465" cx="0" cy="0" r="1" gradientUnits="userSpaceOnUse" gradientTransform="translate(46.609 6.47416) rotate(60.4002) scale(153.915 282.77)">
<stop stop-color="#11D9FE"/>
<stop offset="0.130208" stop-color="#24AAFF"/>
<stop offset="0.286458" stop-color="#5699F9"/>
<stop offset="0.479167" stop-color="#08E0FF"/>
<stop offset="0.666667" stop-color="#2EBCFD"/>
</radialGradient>
</defs>
</svg>
