<svg width="130" height="130" viewBox="0 0 130 130" fill="none" xmlns="http://www.w3.org/2000/svg">
<g clip-path="url(#clip0_506_473)">
<g filter="url(#filter0_d_506_473)">
<path fill-rule="evenodd" clip-rule="evenodd" d="M65.4288 23.0886C63.9152 23.4561 62.6615 24.7053 62.2402 26.2657C62.1359 26.6518 62.1297 27.8002 62.1297 46.6271C62.1297 65.6877 62.1348 66.5972 62.2436 66.9803C62.6019 68.2424 63.3883 69.2021 64.5214 69.7603C65.2069 70.0979 65.6471 70.1983 66.4411 70.1983C67.2343 70.1983 67.6743 70.0981 68.3608 69.761C69.5076 69.1979 70.3411 68.16 70.6586 66.8996C70.7826 66.4076 70.784 66.1694 70.784 46.6137C70.784 24.6482 70.8188 26.4166 70.3679 25.4663C69.8241 24.3203 68.7046 23.3975 67.4822 23.0879C67.0184 22.9704 65.9142 22.9708 65.4288 23.0886ZM58.2903 34.455C53.6384 35.6853 49.397 37.8895 45.5763 41.0627C44.6822 41.8052 42.3457 44.1551 41.5769 45.085C37.7779 49.6803 35.3714 54.947 34.4365 60.7121C33.9596 63.6521 33.9024 67.027 34.2793 69.9781C34.8143 74.1674 36.177 78.2626 38.2484 81.9053C38.8226 82.9153 40.0971 84.8249 40.7897 85.7132C42.5184 87.9306 44.8257 90.2044 46.9925 91.8258C54.1216 97.1611 62.9919 99.3286 71.7911 97.8854C79.3804 96.6408 86.3619 92.6333 91.3549 86.6556C95.4301 81.7767 97.9335 75.8999 98.7004 69.4116C98.8411 68.2212 98.8972 64.6654 98.7961 63.345C98.098 54.2275 93.6812 45.987 86.4563 40.3223C83.8195 38.2549 80.8499 36.6 77.6135 35.3946C76.7131 35.0591 74.8014 34.4758 74.0412 34.3045L73.6164 34.2087V38.6923V43.1758L74.4503 43.4761C79.5295 45.3049 83.7165 48.6906 86.631 53.3257C87.4976 54.7039 88.4606 56.7581 89.0085 58.397C90.2328 62.0592 90.5292 66.3404 89.8231 70.1633C88.2316 78.7801 82.0594 85.8103 73.7171 88.5077C71.1801 89.328 68.5895 89.6978 65.8747 89.6272C64.3177 89.5867 63.2279 89.4698 61.8465 89.195C53.5455 87.5444 46.7464 81.6062 43.9869 73.5971C43.4494 72.0371 43.0844 70.458 42.8595 68.7192C42.7173 67.6206 42.6971 64.3761 42.826 63.3378C43.3373 59.2164 44.6437 55.7237 46.9062 52.4291C49.7485 48.2901 54.0297 45.0193 58.7466 43.383L59.3288 43.181V38.6887C59.3288 36.2179 59.3076 34.1983 59.2816 34.2008C59.2556 34.2033 58.8096 34.3177 58.2903 34.455Z" fill="url(#paint0_radial_506_473)"/>
</g>
<g filter="url(#filter1_d_506_473)">
<path d="M33.6423 60.4121C43.9328 60.4121 52.2846 68.7368 52.2846 78.9941C52.2846 89.2513 43.9328 97.576 33.6423 97.576C23.3517 97.576 15 89.2513 15 78.9941C15 68.7368 23.3517 60.4121 33.6423 60.4121Z" fill="#EC0928"/>
</g>
<g filter="url(#filter2_d_506_473)">
<path d="M99.2809 53.614C103.102 53.614 106.203 56.7049 106.203 60.5134C106.203 64.3218 103.102 67.4127 99.2809 67.4127C95.4601 67.4127 92.3591 64.3218 92.3591 60.5134C92.3591 56.7049 95.4601 53.614 99.2809 53.614Z" fill="#EC0928"/>
<path d="M102.808 59.4384C102.473 59.1442 102.009 58.6948 101.632 58.3762L101.609 58.3613C101.572 58.3329 101.53 58.3107 101.485 58.2955V58.2955C100.574 58.134 96.3352 57.3809 96.2525 57.3905C96.2294 57.3936 96.2072 57.4015 96.1877 57.4138L96.1665 57.4298C96.1403 57.455 96.1205 57.4855 96.1084 57.519L96.1028 57.5328V57.6082V57.6199C96.58 58.8829 98.4643 63.0201 98.8354 63.991C98.8577 64.0568 98.9002 64.1822 98.9795 64.1885H98.9974C99.0399 64.1885 99.2209 63.9612 99.2209 63.9612C99.2209 63.9612 102.458 60.2308 102.785 59.8335C102.827 59.7846 102.865 59.732 102.897 59.6763C102.905 59.6328 102.901 59.588 102.886 59.5463C102.87 59.5046 102.844 59.4674 102.808 59.4384V59.4384ZM100.051 59.8728L101.433 58.7841L102.243 59.4936L100.051 59.8728ZM99.5149 59.8017L97.1366 57.9492L100.985 58.6237L99.5149 59.8017ZM99.7294 60.2871L102.164 59.9143L99.3807 63.1008L99.7294 60.2871ZM96.8136 58.134L99.3159 60.1522L98.9538 63.103L96.8136 58.134Z" fill="white"/>
</g>
<path d="M44.1707 75.9034C43.1276 74.9226 41.6847 73.4249 40.5094 72.3627L40.4399 72.3131C40.3242 72.2185 40.1937 72.1443 40.0539 72.0936V72.0936C37.2202 71.5554 24.0318 69.0451 23.7745 69.077C23.7024 69.0872 23.6335 69.1139 23.5728 69.1549L23.5068 69.208C23.4254 69.2921 23.3637 69.3937 23.326 69.5054L23.3086 69.5514V69.8028V69.8417C24.7933 74.0516 30.6555 87.8425 31.8099 91.0786C31.8795 91.2981 32.0116 91.7159 32.2585 91.7372H32.3141C32.4462 91.7372 33.0095 90.9795 33.0095 90.9795C33.0095 90.9795 43.079 78.5447 44.0977 77.2205C44.2296 77.0574 44.346 76.8819 44.4454 76.6965C44.4708 76.5514 44.4588 76.402 44.4107 76.2631C44.3626 76.1241 44.2799 76.0001 44.1707 75.9034V75.9034ZM35.5929 77.3515L39.8905 73.7223L42.4114 76.0875L35.5929 77.3515ZM33.924 77.1143L26.5248 70.9393L38.4962 73.1877L33.924 77.1143ZM34.5915 78.7323L42.1645 77.4896L33.5067 88.1115L34.5915 78.7323ZM25.52 71.5554L33.305 78.2827L32.1785 88.1186L25.52 71.5554Z" fill="white"/>
</g>
<defs>
<filter id="filter0_d_506_473" x="11.3722" y="3.36088" width="110.136" height="120.643" filterUnits="userSpaceOnUse" color-interpolation-filters="sRGB">
<feFlood flood-opacity="0" result="BackgroundImageFix"/>
<feColorMatrix in="SourceAlpha" type="matrix" values="0 0 0 0 0 0 0 0 0 0 0 0 0 0 0 0 0 0 127 0" result="hardAlpha"/>
<feOffset dy="3.0214"/>
<feGaussianBlur stdDeviation="11.3303"/>
<feComposite in2="hardAlpha" operator="out"/>
<feColorMatrix type="matrix" values="0 0 0 0 0 0 0 0 0 0.52 0 0 0 0 1 0 0 0 0.25 0"/>
<feBlend mode="normal" in2="BackgroundImageFix" result="effect1_dropShadow_506_473"/>
<feBlend mode="normal" in="SourceGraphic" in2="effect1_dropShadow_506_473" result="shape"/>
</filter>
<filter id="filter1_d_506_473" x="-7.66052" y="40.773" width="82.6057" height="82.4849" filterUnits="userSpaceOnUse" color-interpolation-filters="sRGB">
<feFlood flood-opacity="0" result="BackgroundImageFix"/>
<feColorMatrix in="SourceAlpha" type="matrix" values="0 0 0 0 0 0 0 0 0 0 0 0 0 0 0 0 0 0 127 0" result="hardAlpha"/>
<feOffset dy="3.0214"/>
<feGaussianBlur stdDeviation="11.3303"/>
<feComposite in2="hardAlpha" operator="out"/>
<feColorMatrix type="matrix" values="0 0 0 0 0 0 0 0 0 0 0 0 0 0 0 0 0 0 0.1 0"/>
<feBlend mode="normal" in2="BackgroundImageFix" result="effect1_dropShadow_506_473"/>
<feBlend mode="normal" in="SourceGraphic" in2="effect1_dropShadow_506_473" result="shape"/>
</filter>
<filter id="filter2_d_506_473" x="69.6986" y="33.9749" width="59.1645" height="59.1199" filterUnits="userSpaceOnUse" color-interpolation-filters="sRGB">
<feFlood flood-opacity="0" result="BackgroundImageFix"/>
<feColorMatrix in="SourceAlpha" type="matrix" values="0 0 0 0 0 0 0 0 0 0 0 0 0 0 0 0 0 0 127 0" result="hardAlpha"/>
<feOffset dy="3.0214"/>
<feGaussianBlur stdDeviation="11.3303"/>
<feComposite in2="hardAlpha" operator="out"/>
<feColorMatrix type="matrix" values="0 0 0 0 0 0 0 0 0 0 0 0 0 0 0 0 0 0 0.1 0"/>
<feBlend mode="normal" in2="BackgroundImageFix" result="effect1_dropShadow_506_473"/>
<feBlend mode="normal" in="SourceGraphic" in2="effect1_dropShadow_506_473" result="shape"/>
</filter>
<radialGradient id="paint0_radial_506_473" cx="0" cy="0" r="1" gradientUnits="userSpaceOnUse" gradientTransform="translate(48.3989 2.53216) rotate(64.211) scale(148.212 248.359)">
<stop stop-color="#11D9FE"/>
<stop offset="0.130208" stop-color="#24AAFF"/>
<stop offset="0.286458" stop-color="#5699F9"/>
<stop offset="0.479167" stop-color="#08E0FF"/>
<stop offset="0.666667" stop-color="#2EBCFD"/>
</radialGradient>
<clipPath id="clip0_506_473">
<rect width="130" height="130" fill="white"/>
</clipPath>
</defs>
</svg>
