<svg width="1512" height="852" viewBox="0 0 1512 852" fill="none" xmlns="http://www.w3.org/2000/svg">
<g clip-path="url(#clip0_220_141)">
<rect width="1512" height="852" fill="#0C1824"/>
<circle cx="-0.5" cy="423.5" r="364.5" fill="#0D243C"/>
<circle cx="1547.5" cy="378.5" r="364.5" fill="#0D243C"/>
<circle cx="882.5" cy="307.5" r="215.5" fill="#0D243C"/>
<circle cx="694.5" cy="709.5" r="108.5" fill="#0D243C"/>
<g filter="url(#filter0_f_220_141)">
<circle cx="146" cy="696" r="73" fill="#3773CC"/>
<circle cx="750" cy="190" r="73" fill="#3773CC"/>
<circle cx="1048" cy="710" r="73" fill="#3773CC"/>
<circle cx="125.5" cy="315.5" r="28.5" fill="#3773CC"/>
<circle cx="1116.5" cy="271.5" r="28.5" fill="#3773CC"/>
<circle cx="585.5" cy="699.5" r="28.5" fill="#3773CC"/>
<circle cx="1398.5" cy="622.5" r="37.5" fill="#3773CC"/>
</g>
<path d="M36.9849 308.621C36.9181 308.889 36.6469 309.052 36.379 308.985C36.1112 308.918 35.9482 308.647 36.015 308.379C36.0817 308.111 36.353 307.948 36.6208 308.015C36.8887 308.082 37.0517 308.353 36.9849 308.621L36.9849 308.621H36.9849Z" fill="#F7931A"/>
<path d="M36.7204 308.429C36.7304 308.362 36.6797 308.326 36.6104 308.303L36.6329 308.212L36.578 308.199L36.5562 308.287C36.5417 308.283 36.5269 308.28 36.5122 308.276L36.5342 308.188L36.4794 308.174L36.4569 308.264C36.445 308.262 36.4333 308.259 36.4219 308.256L36.422 308.256L36.3463 308.237L36.3317 308.295C36.3317 308.295 36.3724 308.305 36.3715 308.305C36.3938 308.311 36.3978 308.326 36.3971 308.337L36.3715 308.44C36.3731 308.44 36.375 308.441 36.3772 308.442C36.3754 308.441 36.3734 308.441 36.3714 308.44L36.3355 308.584C36.3328 308.591 36.3259 308.601 36.3104 308.597C36.311 308.598 36.2705 308.587 36.2705 308.587L36.2433 308.65L36.3147 308.668C36.328 308.671 36.341 308.675 36.3538 308.678L36.3311 308.769L36.3859 308.783L36.4084 308.693C36.4234 308.697 36.4379 308.7 36.4521 308.704L36.4297 308.794L36.4846 308.807L36.5073 308.716C36.6008 308.734 36.6712 308.727 36.7008 308.642C36.7247 308.574 36.6996 308.535 36.6504 308.509C36.6862 308.501 36.7132 308.477 36.7204 308.429L36.7204 308.429L36.7204 308.429ZM36.5951 308.605C36.5781 308.673 36.4634 308.636 36.4262 308.627L36.4563 308.506C36.4935 308.515 36.6128 308.533 36.5951 308.605H36.5951ZM36.612 308.428C36.5966 308.49 36.5011 308.458 36.4701 308.451L36.4974 308.341C36.5284 308.349 36.6281 308.363 36.612 308.428H36.612Z" fill="white"/>
</g>
<defs>
<filter id="filter0_f_220_141" x="-127" y="-83" width="1763" height="1066" filterUnits="userSpaceOnUse" color-interpolation-filters="sRGB">
<feFlood flood-opacity="0" result="BackgroundImageFix"/>
<feBlend mode="normal" in="SourceGraphic" in2="BackgroundImageFix" result="shape"/>
<feGaussianBlur stdDeviation="100" result="effect1_foregroundBlur_220_141"/>
</filter>
<clipPath id="clip0_220_141">
<rect width="1512" height="852" fill="white"/>
</clipPath>
</defs>
</svg>
