<svg width="130" height="130" viewBox="0 0 130 130" fill="none" xmlns="http://www.w3.org/2000/svg">
<path d="M108 51.8752C108 67.8224 95.0722 80.75 79.125 80.75C77.2842 80.75 75.4845 80.5758 73.7393 80.2465L69.7999 84.6785C69.4304 85.0941 68.9772 85.4267 68.4699 85.6545C67.9627 85.8823 67.4129 86 66.8569 86H60.75V92.5625C60.75 94.7371 58.9871 96.5 56.8125 96.5H50.25V103.062C50.25 105.237 48.4871 107 46.3125 107H27.9375C25.7629 107 24 105.237 24 103.062V90.2559C24 89.2117 24.4149 88.2101 25.1532 87.4716L51.6988 60.926C50.7599 58.0789 50.25 55.0366 50.25 51.875C50.25 35.9278 63.1776 23.0002 79.1248 23C95.1191 22.9998 108 35.8807 108 51.8752ZM79.125 44C79.125 48.3493 82.6507 51.875 87 51.875C91.3493 51.875 94.875 48.3493 94.875 44C94.875 39.6507 91.3493 36.125 87 36.125C82.6507 36.125 79.125 39.6507 79.125 44Z" fill="#65A6EC"/>
<g filter="url(#filter0_d_127_375)">
<path d="M79.2449 31.3672C90.2692 31.3672 99.2164 40.2854 99.2164 51.274C99.2164 62.2626 90.2692 71.1809 79.2449 71.1809C68.2207 71.1809 59.2734 62.2626 59.2734 51.274C59.2734 40.2854 68.2207 31.3672 79.2449 31.3672Z" fill="#FFC806"/>
<path d="M73.5703 48.978L79.0362 43.5126L84.5038 48.9802L87.6842 45.8004L79.0362 37.1523L70.3904 45.7976L73.5703 48.9775V48.978ZM64.9646 51.224L68.145 48.043L71.3249 51.224L68.1445 54.4027L64.9646 51.224ZM73.5703 53.4694L79.0362 58.9343L84.5038 53.4666L87.6859 56.6449L79.0362 65.2956L70.3904 56.6493L70.386 56.6443L73.5703 53.4688V53.4694ZM86.7465 51.224L89.9264 48.0441L93.1079 51.224L89.928 54.4038L86.7465 51.224Z" fill="#F5F5F5"/>
<path d="M82.2606 51.224L79.0362 47.9946L76.6506 50.3791L76.3758 50.6539L75.8113 51.2185L75.8069 51.2229L75.8113 51.2273L79.0362 54.4516L82.2628 51.2251H82.2601" fill="#F5F5F5"/>
</g>
<defs>
<filter id="filter0_d_127_375" x="34.0734" y="9.52719" width="90.3429" height="90.2137" filterUnits="userSpaceOnUse" color-interpolation-filters="sRGB">
<feFlood flood-opacity="0" result="BackgroundImageFix"/>
<feColorMatrix in="SourceAlpha" type="matrix" values="0 0 0 0 0 0 0 0 0 0 0 0 0 0 0 0 0 0 127 0" result="hardAlpha"/>
<feOffset dy="3.36"/>
<feGaussianBlur stdDeviation="12.6"/>
<feComposite in2="hardAlpha" operator="out"/>
<feColorMatrix type="matrix" values="0 0 0 0 0 0 0 0 0 0 0 0 0 0 0 0 0 0 0.1 0"/>
<feBlend mode="normal" in2="BackgroundImageFix" result="effect1_dropShadow_127_375"/>
<feBlend mode="normal" in="SourceGraphic" in2="effect1_dropShadow_127_375" result="shape"/>
</filter>
</defs>
</svg>
