<svg width="130" height="130" viewBox="0 0 130 130" fill="none" xmlns="http://www.w3.org/2000/svg">
<g clip-path="url(#clip0_127_331)">
<g filter="url(#filter0_d_127_331)">
<path d="M71.0302 30C89.7633 30 104.967 45.1545 104.967 63.8271C104.967 82.4996 89.7633 97.6541 71.0302 97.6541C52.297 97.6541 37.0933 82.4996 37.0933 63.8271C37.0933 45.1545 52.297 30 71.0302 30Z" fill="#FFC806"/>
<path d="M61.387 59.9256L70.6752 50.6384L79.9661 59.9293L85.3705 54.5259L70.6752 39.8306L55.9836 54.5212L61.387 59.9246V59.9256ZM46.7637 63.7421L52.168 58.3368L57.5715 63.7421L52.1671 69.1436L46.7637 63.7421ZM61.387 67.5576L70.6752 76.8439L79.9661 67.553L85.3733 72.9536L70.6752 87.6536L55.9836 72.9611L55.9761 72.9527L61.387 67.5567V67.5576ZM83.777 63.7421L89.1804 58.3386L94.5867 63.7421L89.1832 69.1455L83.777 63.7421Z" fill="#F5F5F5"/>
<path d="M76.1543 63.742L70.6752 58.2545L66.6215 62.3064L66.1545 62.7734L65.1952 63.7327L65.1877 63.7401L65.1952 63.7476L70.6752 69.2267L76.1581 63.7439H76.1534" fill="#F5F5F5"/>
<path d="M44.8741 76.8428L44.8741 36.0953C44.8741 34.5239 43.5799 33.2471 41.9869 33.2471L31.135 33.2471C29.5421 33.2471 28.2478 34.5239 28.2478 36.0953L28.2478 76.8428L15.9896 76.8428C14.8571 77.96 14.8571 79.7647 15.9896 80.8819L34.5076 99.1621C35.64 100.279 37.4694 100.279 38.6019 99.1621L57.1323 80.8819C58.2648 79.7647 58.2648 77.96 57.1323 76.8428L44.8741 76.8428Z" fill="#63A5ED"/>
<path d="M106.785 58.0432L106.785 32.0769C106.785 31.0755 105.951 30.2619 104.924 30.2619L97.9297 30.2619C96.903 30.2619 96.0688 31.0755 96.0688 32.0769L96.0688 58.0432L88.1681 58.0432C87.4382 58.7551 87.4382 59.9051 88.1681 60.6171L100.103 72.2661C100.833 72.978 102.012 72.978 102.742 72.2661L114.686 60.6171C115.416 59.9051 115.416 58.7551 114.686 58.0432L106.785 58.0432Z" fill="#63A5ED"/>
</g>
</g>
<defs>
<filter id="filter0_d_127_331" x="-5.85986" y="11.8" width="142.093" height="112" filterUnits="userSpaceOnUse" color-interpolation-filters="sRGB">
<feFlood flood-opacity="0" result="BackgroundImageFix"/>
<feColorMatrix in="SourceAlpha" type="matrix" values="0 0 0 0 0 0 0 0 0 0 0 0 0 0 0 0 0 0 127 0" result="hardAlpha"/>
<feOffset dy="2.8"/>
<feGaussianBlur stdDeviation="10.5"/>
<feComposite in2="hardAlpha" operator="out"/>
<feColorMatrix type="matrix" values="0 0 0 0 0.270588 0 0 0 0 0.547922 0 0 0 0 0.803922 0 0 0 0.3 0"/>
<feBlend mode="normal" in2="BackgroundImageFix" result="effect1_dropShadow_127_331"/>
<feBlend mode="normal" in="SourceGraphic" in2="effect1_dropShadow_127_331" result="shape"/>
</filter>
<clipPath id="clip0_127_331">
<rect width="130" height="130" fill="white"/>
</clipPath>
</defs>
</svg>
