<svg width="130" height="130" viewBox="0 0 130 130" fill="none" xmlns="http://www.w3.org/2000/svg">
<g clip-path="url(#clip0_127_228)">
<g filter="url(#filter0_d_127_228)">
<path d="M65.072 104.289C55.475 104.289 47.6951 101.193 47.6951 97.3733V101.51C47.6951 105.391 55.5897 108.223 65.3366 108.223C75.0836 108.223 83.0223 105.197 83.0223 101.872L82.987 97.4086C82.493 101.228 74.669 104.289 65.072 104.289Z" fill="#63A5ED"/>
<path d="M65.072 96.6588C55.475 96.6588 47.6951 93.5627 47.6951 89.7433V93.8802C47.6951 97.7614 55.5897 100.593 65.3366 100.593C75.0836 100.593 83.0134 97.5673 83.0134 94.2419L82.9782 89.7786C82.493 93.598 74.669 96.6588 65.072 96.6588Z" fill="#63A5ED"/>
<path d="M26.4985 74.7656V78.9026C26.4985 82.6073 33.6875 85.3505 42.817 85.5975C42.8611 84.1862 43.7255 82.8455 45.2162 81.6635C44.7752 81.6811 44.3253 81.6811 43.8755 81.6811C34.2785 81.6899 26.4985 78.5938 26.4985 74.7656Z" fill="#63A5ED"/>
<path d="M26.8162 82.4044V86.5414C26.8162 90.2461 34.0051 92.4601 43.1346 92.6983V88.773C34.0316 88.5613 26.8162 86.0827 26.8162 82.4044Z" fill="#63A5ED"/>
<path d="M47.8892 85.6593C47.9597 81.8135 55.8455 78.7085 65.5131 78.7438C75.1806 78.7703 82.9605 81.9105 82.89 85.7563C82.8194 89.6022 74.9336 92.7071 65.2661 92.6718C55.6955 92.6454 47.9509 89.5669 47.8892 85.7563V85.6593Z" fill="#63A5ED"/>
<path d="M26.4986 71.2727C26.4986 75.1538 34.3932 77.9853 44.1401 77.9853C53.8871 77.9853 61.8169 74.9597 61.8169 71.6343L61.7817 67.171C61.2877 70.9992 53.4637 74.06 43.8667 74.06C34.2697 74.06 26.4897 70.9639 26.4897 67.1445L26.4986 71.2727Z" fill="#63A5ED"/>
<path d="M44.1401 70.3465C53.8871 70.3465 61.8169 67.3209 61.8169 63.9955L61.7817 59.5322C61.2877 63.3604 53.4637 66.4212 43.8667 66.4212C34.2697 66.4212 26.4897 63.3251 26.4897 59.5057V63.6427C26.4986 67.5238 34.3932 70.3465 44.1401 70.3465Z" fill="#63A5ED"/>
<path d="M85.6418 73.7513C76.0448 73.7513 68.2649 70.6552 68.2649 66.8358V70.9728C68.2649 74.8539 76.1595 77.6854 85.9064 77.6854C95.6534 77.6854 103.583 74.6598 103.583 71.3344L103.548 66.8711C103.054 70.6905 95.2388 73.7513 85.6418 73.7513Z" fill="#63A5ED"/>
<path d="M63.6691 38.4153V50.4027C63.6691 51.5318 64.5865 52.4491 65.7156 52.4491H73.4073C74.5363 52.4491 75.4537 51.5318 75.4537 50.4027V38.4153H84.1421C84.9448 37.6126 84.9448 36.3159 84.1421 35.5132L71.0168 22.3791C70.2142 21.5764 68.9175 21.5764 68.1148 22.3791L54.9807 35.5132C54.178 36.3159 54.178 37.6126 54.9807 38.4153H63.6691Z" fill="#63A5ED"/>
<path d="M26.1106 56.6389C26.1812 52.7931 34.0669 49.6882 43.7345 49.7146C53.4021 49.7411 61.182 52.8813 61.1114 56.7272C61.0408 60.573 53.1551 63.6691 43.4875 63.6426C33.917 63.6162 26.1723 60.5377 26.1106 56.7272V56.6389V56.6389Z" fill="#63A5ED"/>
<path d="M68.2649 62.8223C68.3355 58.9764 76.2212 55.8715 85.8888 55.898C95.5564 55.9245 103.336 59.0647 103.266 62.9105C103.195 66.7564 95.3094 69.8525 85.6418 69.826C76.0713 69.7995 68.3266 66.7211 68.2649 62.9105V62.8223Z" fill="#63A5ED"/>
<path d="M86.1889 81.6899C85.739 81.6899 85.2892 81.6811 84.8481 81.6723C86.3389 82.8631 87.2033 84.195 87.2474 85.6063C96.3769 85.3593 103.566 82.6161 103.566 78.9114V74.7744C103.566 78.5938 95.7859 81.6899 86.1889 81.6899Z" fill="#63A5ED"/>
<path d="M86.9741 88.773V92.6983C96.1036 92.4513 103.293 90.2373 103.293 86.5414V82.4044C103.293 86.0827 96.0772 88.5613 86.9741 88.773Z" fill="#63A5ED"/>
<path d="M85.8465 55.176C95.8673 55.176 104 58.4679 104 62.5239C104 66.58 95.8673 69.8718 85.8465 69.8718C75.8257 69.8718 67.6929 66.58 67.6929 62.5239C67.6929 58.4679 75.8257 55.176 85.8465 55.176Z" fill="#FFC806"/>
<path d="M80.6883 61.6765L85.6568 59.6592L90.6267 61.6774L93.5176 60.5036L85.6568 57.3115L77.7979 60.5026L80.6883 61.6763V61.6765ZM72.866 62.5056L75.7569 61.3314L78.6473 62.5056L75.7564 63.6789L72.866 62.5056ZM80.6883 63.3344L85.6568 65.3515L90.6267 63.3334L93.5191 64.5065L85.6568 67.6996L77.7979 64.5081L77.7939 64.5063L80.6883 63.3342V63.3344ZM92.6652 62.5056L95.5556 61.3318L98.4476 62.5056L95.5571 63.6793L92.6652 62.5056Z" fill="#F5F5F5"/>
<path d="M88.5875 62.5055L85.6566 61.3135L83.4881 62.1936L83.2383 62.2951L82.7252 62.5034L82.7212 62.5051L82.7252 62.5067L85.6566 63.6969L88.5895 62.5059H88.587" fill="#F5F5F5"/>
<path d="M65.0994 78.5165C75.1202 78.5165 83.253 81.8083 83.253 85.8644C83.253 89.9204 75.1202 93.2123 65.0994 93.2123C55.0786 93.2123 46.9458 89.9204 46.9458 85.8644C46.9458 81.8083 55.0786 78.5165 65.0994 78.5165Z" fill="#FFC806"/>
<path d="M59.9413 85.0169L64.9097 82.9995L69.8796 85.0177L72.7705 83.844L64.9097 80.6519L57.0508 83.8429L59.9413 85.0167V85.0169ZM52.1189 85.8459L55.0098 84.6718L57.9002 85.8459L55.0093 87.0192L52.1189 85.8459ZM59.9413 86.6747L64.9097 88.6919L69.8796 86.6737L72.772 87.8468L64.9097 91.0399L57.0508 87.8484L57.0469 87.8466L59.9413 86.6745V86.6747ZM71.9182 85.8459L74.8086 84.6722L77.7005 85.8459L74.8101 87.0196L71.9182 85.8459Z" fill="#F5F5F5"/>
<path d="M67.8404 85.8459L64.9095 84.6539L62.7411 85.5341L62.4912 85.6355L61.9781 85.8439L61.9741 85.8455L61.9781 85.8471L64.9095 87.0373L67.8424 85.8463H67.8399" fill="#F5F5F5"/>
<path d="M44.3523 49.1249C54.3731 49.1249 62.506 52.4167 62.506 56.4728C62.506 60.5288 54.3731 63.8207 44.3523 63.8207C34.3316 63.8207 26.1987 60.5288 26.1987 56.4728C26.1987 52.4167 34.3316 49.1249 44.3523 49.1249Z" fill="#FFC806"/>
<path d="M39.1942 55.6253L44.1626 53.6079L49.1326 55.6261L52.0235 54.4524L44.1626 51.2603L36.3038 54.4513L39.1942 55.6251V55.6253ZM31.3718 56.4543L34.2627 55.2802L37.1532 56.4543L34.2622 57.6276L31.3718 56.4543ZM39.1942 57.2831L44.1626 59.3003L49.1326 57.2821L52.025 58.4552L44.1626 61.6483L36.3038 58.4568L36.2998 58.455L39.1942 57.2829V57.2831ZM51.1711 56.4543L54.0615 55.2806L56.9534 56.4543L54.063 57.628L51.1711 56.4543Z" fill="#F5F5F5"/>
<path d="M47.0936 56.4542L44.1627 55.2622L41.9942 56.1424L41.7444 56.2438L41.2313 56.4522L41.2273 56.4538L41.2313 56.4554L44.1627 57.6456L47.0956 56.4546H47.0931" fill="#F5F5F5"/>
</g>
</g>
<defs>
<filter id="filter0_d_127_228" x="0.176855" y="-0.698809" width="129.757" height="138.313" filterUnits="userSpaceOnUse" color-interpolation-filters="sRGB">
<feFlood flood-opacity="0" result="BackgroundImageFix"/>
<feColorMatrix in="SourceAlpha" type="matrix" values="0 0 0 0 0 0 0 0 0 0 0 0 0 0 0 0 0 0 127 0" result="hardAlpha"/>
<feOffset dy="3.45783"/>
<feGaussianBlur stdDeviation="12.9669"/>
<feComposite in2="hardAlpha" operator="out"/>
<feColorMatrix type="matrix" values="0 0 0 0 0.270588 0 0 0 0 0.547922 0 0 0 0 0.803922 0 0 0 0.3 0"/>
<feBlend mode="normal" in2="BackgroundImageFix" result="effect1_dropShadow_127_228"/>
<feBlend mode="normal" in="SourceGraphic" in2="effect1_dropShadow_127_228" result="shape"/>
</filter>
<clipPath id="clip0_127_228">
<rect width="130" height="130" fill="white"/>
</clipPath>
</defs>
</svg>
