<svg width="686" height="699" viewBox="0 0 686 699" fill="none" xmlns="http://www.w3.org/2000/svg">
<path d="M210.327 293.799L343.341 158.328L476.394 293.853L553.789 215.034L343.341 0.67627L132.946 214.966L210.327 293.785V293.799ZM0.908936 349.469L78.3039 270.623L155.685 349.469L78.2905 428.261L0.908936 349.469ZM210.327 405.126L343.341 540.583L476.394 405.058L553.829 483.836L343.341 698.262L132.946 483.945L132.839 483.823L210.327 405.113V405.126ZM530.969 349.469L608.351 270.65L685.772 349.469L608.391 428.288L530.969 349.469Z" fill="#FFC806"/>
<path d="M421.806 349.469L343.341 269.424L285.288 328.528L278.6 335.34L264.862 349.333L264.755 349.442L264.862 349.551L343.341 429.474L421.859 349.496H421.792" fill="#FFC806"/>
</svg>
