<svg width="130" height="130" viewBox="0 0 130 130" fill="none" xmlns="http://www.w3.org/2000/svg">
<g clip-path="url(#clip0_129_426)">
<g filter="url(#filter0_d_129_426)">
<path d="M66.498 42.9419C77.7848 42.9419 86.945 52.0725 86.945 63.3227C86.945 74.5729 77.7848 83.7035 66.498 83.7035C55.2113 83.7035 46.051 74.5729 46.051 63.3227C46.051 52.0725 55.2113 42.9419 66.498 42.9419Z" fill="#FFC806"/>
<path d="M60.6883 60.972L66.2844 55.3765L71.8821 60.9742L75.1383 57.7187L66.2844 48.8647L57.4327 57.7158L60.6883 60.9714V60.972ZM51.8777 63.2714L55.1338 60.0147L58.3894 63.2714L55.1333 66.5259L51.8777 63.2714ZM60.6883 65.5703L66.2844 71.1653L71.8821 65.5675L75.14 68.8214L66.2844 77.6781L57.4327 68.8259L57.4282 68.8208L60.6883 65.5697V65.5703ZM74.1782 63.2714L77.4338 60.0159L80.691 63.2714L77.4355 66.527L74.1782 63.2714Z" fill="#F5F5F5"/>
<path d="M69.5854 63.2713L66.2842 59.9651L63.8419 62.4063L63.5605 62.6877L62.9825 63.2657L62.978 63.2702L62.9825 63.2747L66.2842 66.5758L69.5877 63.2724H69.5848" fill="#F5F5F5"/>
</g>
<g filter="url(#filter1_d_129_426)">
<path fill-rule="evenodd" clip-rule="evenodd" d="M57.55 22.0565C53.4644 22.2835 48.9802 23.3739 45.2055 25.0581C39.6871 27.5205 34.8264 31.3944 31.1815 36.2352C23.4992 46.4381 21.8908 60.1309 26.9954 71.8745C29.5774 77.8146 33.8685 83.083 39.1374 86.7821C41.9888 88.7838 45.1628 90.3996 48.3117 91.4522C52.2808 92.7791 56.3877 93.3915 60.5314 93.2745C62.7021 93.2133 63.5308 93.1347 65.5705 92.7974C70.0878 92.0502 74.4344 90.4223 78.3692 88.004L79.176 87.5082L89.4223 97.7541L99.6685 108H101.086C102.499 108 102.504 107.999 103.007 107.744C103.757 107.363 104.365 106.927 105.253 106.132C106.481 105.034 109.449 101.897 109.894 101.228C110.601 100.164 111.049 98.9973 111.048 98.2192C111.046 97.3386 111.679 98.0207 100.459 86.7931C94.7352 81.0649 90.052 76.3544 90.052 76.3252C90.052 76.296 90.2623 75.9184 90.5193 75.4861C92.4179 72.2923 93.9776 68.0405 94.7047 64.0761C95.1413 61.6962 95.2173 60.7228 95.2133 57.5673C95.2094 54.4378 95.1583 53.8004 94.7054 51.2264C93.0706 41.9362 87.492 33.4269 79.5129 28.0527C73.0737 23.7157 65.3993 21.6205 57.55 22.0565ZM63.1271 34.0938C66.5359 34.6066 69.9789 35.9229 72.7512 37.7732C74.3307 38.8275 75.1234 39.4811 76.5335 40.8923C78.8504 43.211 80.6203 45.908 81.8004 48.9184C82.5706 50.8826 83.0508 52.8191 83.2997 54.9638C83.4698 56.4293 83.4211 59.7887 83.2109 61.0946C82.7654 63.8623 82.0068 66.1956 80.7779 68.5787C77.6391 74.6653 72.0072 79.1201 65.3885 80.7519C63.2675 81.2748 62.1549 81.4053 59.7755 81.4102C57.5536 81.4147 56.7245 81.3419 54.962 80.9873C47.1089 79.4076 40.4979 73.8842 37.5354 66.4276C36.7556 64.4646 36.2516 62.4472 36.0038 60.2968C35.8285 58.775 35.8732 55.5317 36.0882 54.1659C36.4955 51.5798 37.2208 49.2994 38.365 47.0087C41.3489 41.0342 46.7056 36.5893 53.1207 34.7643C54.6983 34.3156 55.9079 34.0996 58.0119 33.891C58.9054 33.8024 62.0083 33.9254 63.1271 34.0938Z" fill="url(#paint0_radial_129_426)"/>
</g>
<g filter="url(#filter2_d_129_426)">
<path d="M26.701 47.2419C31.2108 47.2419 34.871 50.8903 34.871 55.3855C34.871 59.8807 31.2108 63.5291 26.701 63.5291C22.1912 63.5291 18.531 59.8807 18.531 55.3855C18.531 50.8903 22.1912 47.2419 26.701 47.2419Z" fill="#FFC806"/>
<path d="M24.3793 54.4463L26.6154 52.2105L28.8521 54.4472L30.1531 53.1464L26.6154 49.6086L23.0785 53.1453L24.3793 54.4461V54.4463ZM20.8589 55.3651L22.1599 54.0638L23.4608 55.3651L22.1597 56.6655L20.8589 55.3651ZM24.3793 56.2837L26.6154 58.5193L28.8521 56.2826L30.1538 57.5827L26.6154 61.1216L23.0785 57.5845L23.0767 57.5825L24.3793 56.2835V56.2837ZM29.7695 55.3651L31.0703 54.0643L32.3718 55.3651L31.071 56.6659L29.7695 55.3651Z" fill="#F5F5F5"/>
<path d="M27.9345 55.365L26.6155 54.0439L25.6396 55.0194L25.5272 55.1318L25.2962 55.3628L25.2944 55.3646L25.2962 55.3664L26.6155 56.6854L27.9354 55.3655H27.9343" fill="#F5F5F5"/>
</g>
</g>
<defs>
<filter id="filter0_d_129_426" x="20.251" y="20.5819" width="92.494" height="92.3617" filterUnits="userSpaceOnUse" color-interpolation-filters="sRGB">
<feFlood flood-opacity="0" result="BackgroundImageFix"/>
<feColorMatrix in="SourceAlpha" type="matrix" values="0 0 0 0 0 0 0 0 0 0 0 0 0 0 0 0 0 0 127 0" result="hardAlpha"/>
<feOffset dy="3.44"/>
<feGaussianBlur stdDeviation="12.9"/>
<feComposite in2="hardAlpha" operator="out"/>
<feColorMatrix type="matrix" values="0 0 0 0 0 0 0 0 0 0 0 0 0 0 0 0 0 0 0.1 0"/>
<feBlend mode="normal" in2="BackgroundImageFix" result="effect1_dropShadow_129_426"/>
<feBlend mode="normal" in="SourceGraphic" in2="effect1_dropShadow_129_426" result="shape"/>
</filter>
<filter id="filter1_d_129_426" x="-1.75191" y="-0.360001" width="138.606" height="137.6" filterUnits="userSpaceOnUse" color-interpolation-filters="sRGB">
<feFlood flood-opacity="0" result="BackgroundImageFix"/>
<feColorMatrix in="SourceAlpha" type="matrix" values="0 0 0 0 0 0 0 0 0 0 0 0 0 0 0 0 0 0 127 0" result="hardAlpha"/>
<feOffset dy="3.44"/>
<feGaussianBlur stdDeviation="12.9"/>
<feComposite in2="hardAlpha" operator="out"/>
<feColorMatrix type="matrix" values="0 0 0 0 0 0 0 0 0 0.52 0 0 0 0 1 0 0 0 0.25 0"/>
<feBlend mode="normal" in2="BackgroundImageFix" result="effect1_dropShadow_129_426"/>
<feBlend mode="normal" in="SourceGraphic" in2="effect1_dropShadow_129_426" result="shape"/>
</filter>
<filter id="filter2_d_129_426" x="-7.269" y="24.8819" width="67.9401" height="67.8871" filterUnits="userSpaceOnUse" color-interpolation-filters="sRGB">
<feFlood flood-opacity="0" result="BackgroundImageFix"/>
<feColorMatrix in="SourceAlpha" type="matrix" values="0 0 0 0 0 0 0 0 0 0 0 0 0 0 0 0 0 0 127 0" result="hardAlpha"/>
<feOffset dy="3.44"/>
<feGaussianBlur stdDeviation="12.9"/>
<feComposite in2="hardAlpha" operator="out"/>
<feColorMatrix type="matrix" values="0 0 0 0 0 0 0 0 0 0 0 0 0 0 0 0 0 0 0.1 0"/>
<feBlend mode="normal" in2="BackgroundImageFix" result="effect1_dropShadow_129_426"/>
<feBlend mode="normal" in="SourceGraphic" in2="effect1_dropShadow_129_426" result="shape"/>
</filter>
<radialGradient id="paint0_radial_129_426" cx="0" cy="0" r="1" gradientUnits="userSpaceOnUse" gradientTransform="translate(43.3329 -1.36957) rotate(60.4002) scale(175.239 321.946)">
<stop stop-color="#11D9FE"/>
<stop offset="0.130208" stop-color="#24AAFF"/>
<stop offset="0.286458" stop-color="#5699F9"/>
<stop offset="0.479167" stop-color="#08E0FF"/>
<stop offset="0.666667" stop-color="#2EBCFD"/>
</radialGradient>
<clipPath id="clip0_129_426">
<rect width="130" height="130" fill="white"/>
</clipPath>
</defs>
</svg>
