<svg width="2304" height="974" viewBox="0 0 2304 974" fill="none" xmlns="http://www.w3.org/2000/svg">
<g clip-path="url(#clip0_542_108)">
<circle cx="1152.5" cy="487.5" r="283.5" fill="url(#paint0_radial_542_108)" fill-opacity="0.2"/>
<circle cx="1152.5" cy="487.5" r="228.478" fill="url(#paint1_linear_542_108)" fill-opacity="0.2" style="mix-blend-mode:color-dodge"/>
<circle cx="1152.5" cy="487.5" r="170.771" fill="url(#paint2_linear_542_108)" fill-opacity="0.2" style="mix-blend-mode:color-dodge"/>
<circle cx="1152.5" cy="487.5" r="125.143" fill="url(#paint3_linear_542_108)" fill-opacity="0.2" style="mix-blend-mode:color-dodge"/>
<circle cx="1152.5" cy="487.5" r="94.9473" fill="url(#paint4_linear_542_108)" fill-opacity="0.2" style="mix-blend-mode:color-dodge"/>
<path d="M-189.382 676.843C108.497 870.703 793.035 1103.37 1148.15 483.18C1503.26 -137.014 2219.36 200.602 2777.44 760.112" stroke="white" stroke-opacity="0.24" stroke-width="2"/>
<path d="M-170.428 345.098C77.721 599.53 694.621 976.574 1177.03 449.29C1659.44 -77.9946 2397.35 647.782 2706.01 1076.58" stroke="white" stroke-opacity="0.24" stroke-width="2"/>
<path d="M-53.5006 5.50335C124.933 312.872 630.963 829.264 1227.62 435.885C1824.28 42.5058 2362.41 926.633 2556.9 1417.87" stroke="white" stroke-opacity="0.24" stroke-width="2"/>
</g>
<defs>
<radialGradient id="paint0_radial_542_108" cx="0" cy="0" r="1" gradientUnits="userSpaceOnUse" gradientTransform="translate(1132.77 465.173) rotate(90) scale(305.827)">
<stop stop-color="#B6499F"/>
<stop offset="1" stop-color="#642481" stop-opacity="0.81"/>
</radialGradient>
<linearGradient id="paint1_linear_542_108" x1="1242.89" y1="259.022" x2="1030.31" y2="679.99" gradientUnits="userSpaceOnUse">
<stop stop-color="#71207F"/>
<stop offset="1" stop-color="#A03596"/>
</linearGradient>
<linearGradient id="paint2_linear_542_108" x1="1220.06" y1="316.729" x2="1061.17" y2="631.373" gradientUnits="userSpaceOnUse">
<stop stop-color="#71207F"/>
<stop offset="1" stop-color="#A03596"/>
</linearGradient>
<linearGradient id="paint3_linear_542_108" x1="1202.01" y1="362.357" x2="1085.57" y2="592.932" gradientUnits="userSpaceOnUse">
<stop stop-color="#71207F"/>
<stop offset="1" stop-color="#A03596"/>
</linearGradient>
<linearGradient id="paint4_linear_542_108" x1="1190.06" y1="392.553" x2="1101.72" y2="567.492" gradientUnits="userSpaceOnUse">
<stop stop-color="#71207F"/>
<stop offset="1" stop-color="#A03596"/>
</linearGradient>
<clipPath id="clip0_542_108">
<rect width="2304" height="974" fill="white"/>
</clipPath>
</defs>
</svg>
