<svg width="1706" height="844" viewBox="0 0 1706 844" fill="none" xmlns="http://www.w3.org/2000/svg">
<g clip-path="url(#clip0_548_184)">
<path d="M72.7723 83.2219C72.7723 79.8561 70.0431 77.1268 66.6772 77.1268C70.0431 77.1268 72.7723 74.3976 72.7723 71.0317C72.7723 74.3976 75.5016 77.1268 78.8674 77.1268C75.5016 77.1268 72.7723 79.8561 72.7723 83.2219Z" fill="white"/>
<path d="M567.772 436.222C567.772 432.856 565.043 430.127 561.677 430.127C565.043 430.127 567.772 427.398 567.772 424.032C567.772 427.398 570.502 430.127 573.867 430.127C570.502 430.127 567.772 432.856 567.772 436.222Z" fill="white"/>
<path d="M72.7723 83.8992C72.3999 83.8992 72.0951 83.5944 72.0951 83.2219C72.0951 80.2353 69.6638 77.8041 66.6772 77.8041C66.3048 77.8041 66 77.4993 66 77.1268C66 76.7544 66.3048 76.4496 66.6772 76.4496C69.6638 76.4496 72.0951 74.0183 72.0951 71.0317C72.0951 70.6592 72.3999 70.3545 72.7723 70.3545C73.1448 70.3545 73.4496 70.6592 73.4496 71.0317C73.4496 74.0183 75.8808 76.4496 78.8674 76.4496C79.2399 76.4496 79.5447 76.7544 79.5447 77.1268C79.5447 77.4993 79.2399 77.8041 78.8674 77.8041C75.8808 77.8041 73.4496 80.2353 73.4496 83.2219C73.4496 83.5944 73.1448 83.8992 72.7723 83.8992ZM69.63 77.1268C70.998 77.7905 72.1086 78.9012 72.7723 80.2692C73.436 78.9012 74.5467 77.7905 75.9147 77.1268C74.5467 76.4631 73.436 75.3525 72.7723 73.9845C72.1086 75.3525 70.998 76.4631 69.63 77.1268Z" fill="white"/>
<path d="M567.772 436.899C567.4 436.899 567.095 436.594 567.095 436.222C567.095 433.235 564.664 430.804 561.677 430.804C561.305 430.804 561 430.499 561 430.127C561 429.754 561.305 429.45 561.677 429.45C564.664 429.45 567.095 427.018 567.095 424.032C567.095 423.659 567.4 423.354 567.772 423.354C568.145 423.354 568.45 423.659 568.45 424.032C568.45 427.018 570.881 429.45 573.867 429.45C574.24 429.45 574.545 429.754 574.545 430.127C574.545 430.499 574.24 430.804 573.867 430.804C570.881 430.804 568.45 433.235 568.45 436.222C568.45 436.594 568.145 436.899 567.772 436.899ZM564.63 430.127C565.998 430.791 567.109 431.901 567.772 433.269C568.436 431.901 569.547 430.791 570.915 430.127C569.547 429.463 568.436 428.352 567.772 426.984C567.109 428.352 565.998 429.463 564.63 430.127Z" fill="white"/>
<path d="M92.4121 102.184C92.4121 99.191 89.9876 96.7665 86.9942 96.7665C89.9876 96.7665 92.4121 94.342 92.4121 91.3486C92.4121 94.342 94.8366 96.7665 97.83 96.7665C94.8366 96.7665 92.4121 99.191 92.4121 102.184Z" fill="white"/>
<path d="M587.412 455.184C587.412 452.191 584.988 449.767 581.994 449.767C584.988 449.767 587.412 447.342 587.412 444.349C587.412 447.342 589.837 449.767 592.83 449.767C589.837 449.767 587.412 452.191 587.412 455.184Z" fill="white"/>
<path d="M92.4121 102.862C92.0396 102.862 91.7349 102.557 91.7349 102.184C91.7349 99.5702 89.6084 97.4437 86.9943 97.4437C86.6218 97.4437 86.317 97.139 86.317 96.7665C86.317 96.394 86.6218 96.0893 86.9943 96.0893C89.6084 96.0893 91.7349 93.9627 91.7349 91.3486C91.7349 90.9761 92.0396 90.6714 92.4121 90.6714C92.7846 90.6714 93.0894 90.9761 93.0894 91.3486C93.0894 93.9627 95.2159 96.0893 97.83 96.0893C98.2025 96.0893 98.5072 96.394 98.5072 96.7665C98.5072 97.139 98.2025 97.4437 97.83 97.4437C95.2159 97.4437 93.0894 99.5702 93.0894 102.184C93.0894 102.557 92.7846 102.862 92.4121 102.862ZM89.7845 96.7665C90.9087 97.3489 91.8297 98.27 92.4121 99.3942C92.9945 98.27 93.9156 97.3489 95.0398 96.7665C93.9156 96.1841 92.9945 95.263 92.4121 94.1388C91.8297 95.263 90.9087 96.1841 89.7845 96.7665Z" fill="white"/>
<path d="M587.412 455.862C587.04 455.862 586.735 455.557 586.735 455.184C586.735 452.57 584.608 450.444 581.994 450.444C581.622 450.444 581.317 450.139 581.317 449.766C581.317 449.394 581.622 449.089 581.994 449.089C584.608 449.089 586.735 446.963 586.735 444.349C586.735 443.976 587.04 443.671 587.412 443.671C587.785 443.671 588.089 443.976 588.089 444.349C588.089 446.963 590.216 449.089 592.83 449.089C593.202 449.089 593.507 449.394 593.507 449.766C593.507 450.139 593.202 450.444 592.83 450.444C590.216 450.444 588.089 452.57 588.089 455.184C588.089 455.557 587.785 455.862 587.412 455.862ZM584.784 449.766C585.909 450.349 586.83 451.27 587.412 452.394C587.995 451.27 588.916 450.349 590.04 449.766C588.916 449.184 587.995 448.263 587.412 447.139C586.83 448.263 585.909 449.184 584.784 449.766Z" fill="white"/>
<path d="M88.3487 86.6083C88.3487 84.3666 86.527 82.5448 84.2853 82.5448C86.527 82.5448 88.3487 80.7231 88.3487 78.4814C88.3487 80.7231 90.1705 82.5448 92.4121 82.5448C90.1705 82.5448 88.3487 84.3666 88.3487 86.6083Z" fill="white"/>
<path d="M88.3487 87.2855C87.9762 87.2855 87.6715 86.9807 87.6715 86.6082C87.6715 84.7391 86.1545 83.2221 84.2853 83.2221C83.9128 83.2221 83.6081 82.9173 83.6081 82.5448C83.6081 82.1724 83.9128 81.8676 84.2853 81.8676C86.1545 81.8676 87.6715 80.3506 87.6715 78.4814C87.6715 78.109 87.9762 77.8042 88.3487 77.8042C88.7212 77.8042 89.0259 78.109 89.0259 78.4814C89.0259 80.3506 90.543 81.8676 92.4121 81.8676C92.7846 81.8676 93.0894 82.1724 93.0894 82.5448C93.0894 82.9173 92.7846 83.2221 92.4121 83.2221C90.543 83.2221 89.0259 84.7391 89.0259 86.6082C89.0259 86.9807 88.7212 87.2855 88.3487 87.2855ZM86.7234 82.5448C87.387 82.9444 87.9491 83.5065 88.3487 84.1702C88.7483 83.5065 89.3104 82.9444 89.9741 82.5448C89.3104 82.1453 88.7483 81.5832 88.3487 80.9195C87.9491 81.5832 87.387 82.1453 86.7234 82.5448Z" fill="white"/>
<path d="M583.349 439.608C583.349 437.367 581.527 435.545 579.285 435.545C581.527 435.545 583.349 433.723 583.349 431.481C583.349 433.723 585.171 435.545 587.412 435.545C585.171 435.545 583.349 437.367 583.349 439.608Z" fill="white"/>
<path d="M583.349 440.285C582.976 440.285 582.671 439.981 582.671 439.608C582.671 437.739 581.154 436.222 579.285 436.222C578.913 436.222 578.608 435.917 578.608 435.545C578.608 435.172 578.913 434.868 579.285 434.868C581.154 434.868 582.671 433.351 582.671 431.481C582.671 431.109 582.976 430.804 583.349 430.804C583.721 430.804 584.026 431.109 584.026 431.481C584.026 433.351 585.543 434.868 587.412 434.868C587.785 434.868 588.089 435.172 588.089 435.545C588.089 435.917 587.785 436.222 587.412 436.222C585.543 436.222 584.026 437.739 584.026 439.608C584.026 439.981 583.721 440.285 583.349 440.285ZM581.723 435.545C582.387 435.944 582.949 436.507 583.349 437.17C583.748 436.507 584.31 435.944 584.974 435.545C584.31 435.145 583.748 434.583 583.349 433.919C582.949 434.583 582.387 435.145 581.723 435.545Z" fill="white"/>
<path d="M197.52 520.765C197.707 521.517 197.707 522.312 197.52 523.064C198.272 522.877 199.067 522.877 199.819 523.064C199.632 522.312 199.632 521.517 199.819 520.765C199.067 520.952 198.272 520.952 197.52 520.765Z" fill="white"/>
<path d="M253.222 532.408C253.409 533.159 253.409 533.954 253.222 534.706C253.974 534.519 254.769 534.519 255.52 534.706C255.334 533.954 255.334 533.159 255.52 532.408C254.769 532.594 253.974 532.594 253.222 532.408Z" fill="white"/>
<path d="M1092.15 74.555C1092.33 75.3068 1092.33 76.1017 1092.15 76.8536C1092.9 76.6668 1093.69 76.6668 1094.44 76.8536C1094.26 76.1017 1094.26 75.3068 1094.44 74.555C1093.69 74.7417 1092.9 74.7417 1092.15 74.555Z" fill="white"/>
<path d="M1587.15 427.555C1587.33 428.307 1587.33 429.102 1587.15 429.854C1587.9 429.667 1588.69 429.667 1589.44 429.854C1589.26 429.102 1589.26 428.307 1589.44 427.555C1588.69 427.742 1587.9 427.742 1587.15 427.555Z" fill="white"/>
<path d="M236.398 478.864C236.585 479.615 236.585 480.41 236.398 481.162C237.15 480.975 237.945 480.975 238.696 481.162C238.51 480.41 238.51 479.615 238.696 478.864C237.945 479.05 237.15 479.05 236.398 478.864Z" fill="white"/>
<path d="M731.398 831.864C731.585 832.615 731.585 833.41 731.398 834.162C732.15 833.975 732.945 833.975 733.696 834.162C733.51 833.41 733.51 832.615 733.696 831.864C732.945 832.05 732.15 832.05 731.398 831.864Z" fill="white"/>
<path d="M1055.58 537.106C1055.76 537.858 1055.76 538.653 1055.58 539.404C1056.33 539.218 1057.12 539.218 1057.87 539.404C1057.69 538.653 1057.69 537.858 1057.87 537.106C1057.12 537.293 1056.33 537.293 1055.58 537.106Z" fill="white"/>
<path d="M990.561 305.491C990.748 306.243 990.748 307.038 990.561 307.79C991.313 307.603 992.108 307.603 992.86 307.79C992.673 307.038 992.673 306.243 992.86 305.491C992.108 305.678 991.313 305.678 990.561 305.491Z" fill="white"/>
<path d="M1485.56 658.491C1485.75 659.243 1485.75 660.038 1485.56 660.79C1486.31 660.603 1487.11 660.603 1487.86 660.79C1487.67 660.038 1487.67 659.243 1487.86 658.491C1487.11 658.678 1486.31 658.678 1485.56 658.491Z" fill="white"/>
<path d="M190.555 753.555C190.742 754.307 190.742 755.102 190.555 755.854C191.307 755.667 192.102 755.667 192.854 755.854C192.667 755.102 192.667 754.307 192.854 753.555C192.102 753.742 191.307 753.742 190.555 753.555Z" fill="white"/>
<path d="M402.633 327.848C402.37 327.584 402.37 327.153 402.633 326.89C404.745 324.778 404.745 321.34 402.633 319.228C402.37 318.965 402.37 318.534 402.633 318.27C402.897 318.007 403.328 318.007 403.591 318.27C405.703 320.382 409.141 320.382 411.253 318.27C411.517 318.007 411.948 318.007 412.211 318.27C412.474 318.534 412.474 318.965 412.211 319.228C410.099 321.34 410.099 324.778 412.211 326.89C412.474 327.153 412.474 327.584 412.211 327.848C411.948 328.111 411.517 328.111 411.253 327.848C409.141 325.736 405.703 325.736 403.591 327.848C403.328 328.111 402.897 328.111 402.633 327.848ZM405.2 320.837C405.698 322.274 405.698 323.844 405.2 325.281C406.637 324.783 408.207 324.783 409.644 325.281C409.146 323.844 409.146 322.274 409.644 320.837C408.207 321.335 406.637 321.335 405.2 320.837Z" fill="white"/>
<path d="M897.633 680.848C897.37 680.584 897.37 680.153 897.633 679.89C899.745 677.778 899.745 674.34 897.633 672.228C897.37 671.965 897.37 671.534 897.633 671.27C897.897 671.007 898.328 671.007 898.591 671.27C900.703 673.382 904.141 673.382 906.253 671.27C906.517 671.007 906.948 671.007 907.211 671.27C907.474 671.534 907.474 671.965 907.211 672.228C905.099 674.34 905.099 677.778 907.211 679.89C907.474 680.153 907.474 680.584 907.211 680.848C906.948 681.111 906.517 681.111 906.253 680.848C904.141 678.736 900.703 678.736 898.591 680.848C898.328 681.111 897.897 681.111 897.633 680.848ZM900.2 673.837C900.698 675.274 900.698 676.844 900.2 678.281C901.637 677.783 903.207 677.783 904.644 678.281C904.146 676.844 904.146 675.274 904.644 673.837C903.207 674.335 901.637 674.335 900.2 673.837Z" fill="white"/>
<path d="M1442.79 191.366C1442.53 191.103 1442.53 190.672 1442.79 190.409C1444.9 188.297 1444.9 184.858 1442.79 182.747C1442.53 182.483 1442.53 182.052 1442.79 181.789C1443.05 181.525 1443.48 181.525 1443.75 181.789C1445.86 183.901 1449.3 183.901 1451.41 181.789C1451.67 181.525 1452.1 181.525 1452.37 181.789C1452.63 182.052 1452.63 182.483 1452.37 182.747C1450.25 184.858 1450.25 188.297 1452.37 190.409C1452.63 190.672 1452.63 191.103 1452.37 191.366C1452.1 191.63 1451.67 191.63 1451.41 191.366C1449.3 189.254 1445.86 189.254 1443.75 191.366C1443.48 191.63 1443.05 191.63 1442.79 191.366ZM1445.36 184.356C1445.85 185.792 1445.85 187.363 1445.36 188.8C1446.79 188.301 1448.36 188.301 1449.8 188.8C1449.3 187.363 1449.3 185.792 1449.8 184.356C1448.36 184.854 1446.79 184.854 1445.36 184.356Z" fill="white"/>
<path d="M869.199 371.723C868.827 371.723 868.522 371.419 868.522 371.046C868.522 368.06 866.091 365.628 863.104 365.628C862.732 365.628 862.427 365.324 862.427 364.951C862.427 364.579 862.732 364.274 863.104 364.274C866.091 364.274 868.522 361.843 868.522 358.856C868.522 358.483 868.827 358.179 869.199 358.179C869.572 358.179 869.877 358.483 869.877 358.856C869.877 361.843 872.308 364.274 875.295 364.274C875.667 364.274 875.972 364.579 875.972 364.951C875.972 365.324 875.667 365.628 875.295 365.628C872.308 365.628 869.877 368.06 869.877 371.046C869.877 371.419 869.572 371.723 869.199 371.723ZM866.057 364.951C867.425 365.615 868.536 366.725 869.199 368.093C869.863 366.725 870.974 365.615 872.342 364.951C870.974 364.287 869.863 363.177 869.199 361.809C868.536 363.177 867.425 364.287 866.057 364.951Z" fill="white"/>
<path d="M1364.2 724.723C1363.83 724.723 1363.52 724.419 1363.52 724.046C1363.52 721.06 1361.09 718.628 1358.1 718.628C1357.73 718.628 1357.43 718.324 1357.43 717.951C1357.43 717.579 1357.73 717.274 1358.1 717.274C1361.09 717.274 1363.52 714.843 1363.52 711.856C1363.52 711.483 1363.83 711.179 1364.2 711.179C1364.57 711.179 1364.88 711.483 1364.88 711.856C1364.88 714.843 1367.31 717.274 1370.29 717.274C1370.67 717.274 1370.97 717.579 1370.97 717.951C1370.97 718.324 1370.67 718.628 1370.29 718.628C1367.31 718.628 1364.88 721.06 1364.88 724.046C1364.88 724.419 1364.57 724.723 1364.2 724.723ZM1361.06 717.951C1362.42 718.615 1363.54 719.725 1364.2 721.093C1364.86 719.725 1365.97 718.615 1367.34 717.951C1365.97 717.287 1364.86 716.177 1364.2 714.809C1363.54 716.177 1362.42 717.287 1361.06 717.951Z" fill="white"/>
</g>
<defs>
<clipPath id="clip0_548_184">
<rect width="1706" height="844" fill="white"/>
</clipPath>
</defs>
</svg>
