<svg width="130" height="130" viewBox="0 0 130 130" fill="none" xmlns="http://www.w3.org/2000/svg">
<g clip-path="url(#clip0_219_445)">
<g filter="url(#filter0_d_219_445)">
<path d="M36.5788 92.4444C44.6978 90.2689 49.5159 81.9237 47.3404 73.8047C45.165 65.6857 36.8197 60.8675 28.7007 63.043C20.5817 65.2185 15.7636 73.5638 17.939 81.6828C20.1145 89.8017 28.4598 94.6199 36.5788 92.4444Z" fill="#627EEA"/>
</g>
<path d="M30.1421 66.5956L32.3258 74.7453L40.0387 75.9776L30.1421 66.5956Z" fill="white" fill-opacity="0.602"/>
<path d="M30.142 66.5956L26.2614 79.6692L32.3258 74.7453L30.142 66.5956Z" fill="white"/>
<path d="M34.566 83.1045L36.0498 88.642L40.3874 77.2589L34.566 83.1045Z" fill="white" fill-opacity="0.602"/>
<path d="M36.0498 88.6421L34.5658 83.1036L26.6055 80.9518L36.0498 88.6421Z" fill="white"/>
<path d="M34.2226 81.8228L40.0391 75.9776L32.3267 74.7471L34.2226 81.8228Z" fill="white" fill-opacity="0.2"/>
<path d="M26.2617 79.6692L34.2225 81.8228L32.3266 74.7471L26.2617 79.6692Z" fill="white" fill-opacity="0.602"/>
<path d="M36.5788 92.4444C44.6978 90.2689 49.5159 81.9237 47.3404 73.8047C45.165 65.6857 36.8197 60.8675 28.7007 63.043C20.5817 65.2185 15.7636 73.5638 17.939 81.6828C20.1145 89.8017 28.4598 94.6199 36.5788 92.4444Z" fill="#627EEA"/>
<path d="M30.1421 66.5956L32.3258 74.7453L40.0387 75.9776L30.1421 66.5956Z" fill="white" fill-opacity="0.602"/>
<path d="M30.142 66.5956L26.2614 79.6692L32.3258 74.7453L30.142 66.5956Z" fill="white"/>
<path d="M34.566 83.1045L36.0498 88.642L40.3874 77.2589L34.566 83.1045Z" fill="white" fill-opacity="0.602"/>
<path d="M36.0498 88.6421L34.5658 83.1036L26.6055 80.9518L36.0498 88.6421Z" fill="white"/>
<path d="M34.2226 81.8228L40.0391 75.9776L32.3267 74.7471L34.2226 81.8228Z" fill="white" fill-opacity="0.2"/>
<path d="M26.2617 79.6692L34.2225 81.8228L32.3266 74.7471L26.2617 79.6692Z" fill="white" fill-opacity="0.602"/>
<path fill-rule="evenodd" clip-rule="evenodd" d="M67.3057 23.5203C65.3195 23.8398 63.6121 24.9639 62.5956 26.6215C62.3534 27.0166 54.3049 41.8029 44.7103 59.48C35.1156 77.1571 26.2091 93.5628 24.9179 95.9372C23.5402 98.4705 22.4616 100.576 22.3071 101.033C21.9415 102.115 21.9378 103.49 22.2974 104.604C23.0099 106.812 24.5443 108.393 26.6472 109.085L27.544 109.381H68.0588C101.766 109.381 108.666 109.358 109.126 109.244C111.307 108.705 113.191 106.926 113.925 104.712C114.278 103.649 114.298 102.145 113.974 101.106C113.827 100.634 111.494 96.2364 106.934 87.836C79.659 37.5861 73.7086 26.66 73.3155 26.1048C72.5357 25.0033 71.1637 24.0681 69.7897 23.7015C69.1801 23.5388 67.8111 23.439 67.3057 23.5203ZM74.8014 50.2566C75.6719 50.8799 75.642 49.7197 75.1307 63.0636C74.882 69.5565 74.6557 75.0152 74.6279 75.194C74.5489 75.7016 74.1412 76.1077 73.532 76.2857C73.075 76.4193 72.2567 76.4375 67.8426 76.4122L62.6869 76.3826L62.2237 76.109C61.9542 75.9497 61.7152 75.7176 61.652 75.5539C61.553 75.2974 60.7238 54.0892 60.7274 51.909C60.7293 50.8329 60.8713 50.5844 61.777 50.0731C62.0598 49.9135 62.5783 49.9012 68.2246 49.9217L74.3648 49.9439L74.8014 50.2566ZM73.9025 83.1739C74.1068 83.3017 74.3779 83.5741 74.505 83.7794L74.7359 84.1528V89.6094V95.066L74.4995 95.4118C74.3694 95.6019 74.1435 95.8484 73.9974 95.9594C73.7404 96.1547 73.5539 96.1621 68.2027 96.1888L62.6737 96.2166L62.3313 95.9847C62.1429 95.8571 61.886 95.5995 61.7605 95.4122L61.5322 95.0718V89.602V84.1322L61.7581 83.7986C62.062 83.3498 62.4444 83.0794 62.9063 82.9865C63.117 82.9442 65.5937 82.9168 68.4102 82.9257L73.531 82.9418L73.9025 83.1739Z" fill="url(#paint0_radial_219_445)"/>
<g filter="url(#filter1_d_219_445)">
<circle cx="105.436" cy="85.5998" r="9.8332" transform="rotate(5.85124 105.436 85.5998)" fill="#FFAA51"/>
</g>
<path d="M101.421 89.6389L100.91 90.8965C100.853 91.0353 100.92 91.1938 101.059 91.2503L102.065 91.6595C102.132 91.6866 102.206 91.6861 102.273 91.6582C102.339 91.6302 102.392 91.577 102.419 91.5103L102.93 90.2527L103.433 90.4573L102.922 91.7149C102.865 91.8537 102.932 92.0122 103.071 92.0687L104.077 92.4779C104.144 92.505 104.218 92.5045 104.285 92.4766C104.351 92.4486 104.404 92.3954 104.431 92.3287L104.942 91.0711L105.027 91.1055C107.031 91.9206 108.886 91.464 109.617 89.6662C110.232 88.1552 109.555 86.9171 108.417 86.317L108.453 86.2285C109.527 86.3819 110.544 85.9372 111.042 84.7139C111.669 83.1726 110.892 81.7664 109.127 81.0483L109.034 81.0107L109.546 79.7531C109.573 79.6864 109.572 79.6117 109.544 79.5453C109.516 79.4789 109.463 79.4264 109.396 79.3993L108.39 78.9901C108.324 78.963 108.249 78.9635 108.183 78.9914C108.116 79.0194 108.064 79.0726 108.037 79.1393L107.525 80.3969L106.949 80.1624L107.46 78.9049C107.487 78.8381 107.487 78.7634 107.459 78.697C107.431 78.6307 107.378 78.5782 107.311 78.551L106.378 78.1717C106.312 78.1446 106.237 78.1451 106.171 78.1731C106.104 78.201 106.052 78.2542 106.025 78.3209L105.513 79.5785L103.498 78.772C103.432 78.7449 103.357 78.7453 103.291 78.7733C103.224 78.8013 103.172 78.8545 103.145 78.9212L102.74 79.9162C102.684 80.054 102.748 80.2127 102.887 80.2692L103.649 80.5731C103.847 80.6555 104.006 80.8131 104.088 81.0115C104.171 81.21 104.172 81.4332 104.091 81.6325L101.839 87.1707C101.757 87.3709 101.6 87.5304 101.401 87.6144C101.202 87.6983 100.977 87.6998 100.777 87.6184L100.02 87.3234C99.9536 87.2962 99.8789 87.2967 99.8125 87.3247C99.7462 87.3527 99.6936 87.4059 99.6665 87.4726L99.2573 88.4786C99.2009 88.6175 99.2677 88.776 99.4065 88.8324L101.421 89.6389ZM106.34 81.6584L108.07 82.3618C108.981 82.7325 109.312 83.4512 108.979 84.2701C108.623 85.1464 107.844 85.4051 106.534 84.8723L105.246 84.3486L106.34 81.6584ZM104.683 85.7339L106.534 86.4868C107.678 86.952 108.063 87.7888 107.677 88.7386C107.287 89.6973 106.454 89.9412 104.912 89.3143L103.466 88.7259L104.682 85.7349L104.683 85.7339Z" fill="#F9F9F9"/>
<g filter="url(#filter2_d_219_445)">
<path d="M86.7486 40.1247C91.061 42.6145 96.5752 41.1369 99.065 36.8245C101.555 32.5121 100.077 26.9979 95.7648 24.5081C91.4524 22.0184 85.9382 23.4959 83.4484 27.8083C80.9587 32.1207 82.4362 37.6349 86.7486 40.1247Z" fill="#627EEA"/>
</g>
<path d="M94.8813 26.6003L92.3822 30.929L95.0969 34.6762L94.8813 26.6003Z" fill="white" fill-opacity="0.602"/>
<path d="M94.8808 26.6002L87.7786 30.4511L92.3817 30.9289L94.8808 26.6002Z" fill="white"/>
<path d="M89.8182 35.369L88.1201 38.3103L94.7055 35.3589L89.8182 35.369Z" fill="white" fill-opacity="0.602"/>
<path d="M88.1201 38.3102L89.8185 35.3684L87.3853 31.1324L88.1201 38.3102Z" fill="white"/>
<path d="M90.211 34.6881L95.0962 34.6761L92.3809 30.9299L90.211 34.6881Z" fill="white" fill-opacity="0.2"/>
<path d="M87.7784 30.4513L90.211 34.6883L92.3808 30.93L87.7784 30.4513Z" fill="white" fill-opacity="0.602"/>
</g>
<defs>
<filter id="filter0_d_219_445" x="8.47845" y="57.1578" width="48.3224" height="48.3222" filterUnits="userSpaceOnUse" color-interpolation-filters="sRGB">
<feFlood flood-opacity="0" result="BackgroundImageFix"/>
<feColorMatrix in="SourceAlpha" type="matrix" values="0 0 0 0 0 0 0 0 0 0 0 0 0 0 0 0 0 0 127 0" result="hardAlpha"/>
<feOffset dy="3.57522"/>
<feGaussianBlur stdDeviation="4.46903"/>
<feComposite in2="hardAlpha" operator="out"/>
<feColorMatrix type="matrix" values="0 0 0 0 0 0 0 0 0 0 0 0 0 0 0 0 0 0 0.2 0"/>
<feBlend mode="normal" in2="BackgroundImageFix" result="effect1_dropShadow_219_445"/>
<feBlend mode="normal" in="SourceGraphic" in2="effect1_dropShadow_219_445" result="shape"/>
</filter>
<filter id="filter1_d_219_445" x="6.22152" y="-10.0394" width="198.429" height="198.429" filterUnits="userSpaceOnUse" color-interpolation-filters="sRGB">
<feFlood flood-opacity="0" result="BackgroundImageFix"/>
<feColorMatrix in="SourceAlpha" type="matrix" values="0 0 0 0 0 0 0 0 0 0 0 0 0 0 0 0 0 0 127 0" result="hardAlpha"/>
<feOffset dy="3.57522"/>
<feGaussianBlur stdDeviation="44.6903"/>
<feComposite in2="hardAlpha" operator="out"/>
<feColorMatrix type="matrix" values="0 0 0 0 0 0 0 0 0 0 0 0 0 0 0 0 0 0 0.25 0"/>
<feBlend mode="normal" in2="BackgroundImageFix" result="effect1_dropShadow_219_445"/>
<feBlend mode="normal" in="SourceGraphic" in2="effect1_dropShadow_219_445" result="shape"/>
</filter>
<filter id="filter2_d_219_445" x="73.3007" y="17.9358" width="35.9118" height="35.9116" filterUnits="userSpaceOnUse" color-interpolation-filters="sRGB">
<feFlood flood-opacity="0" result="BackgroundImageFix"/>
<feColorMatrix in="SourceAlpha" type="matrix" values="0 0 0 0 0 0 0 0 0 0 0 0 0 0 0 0 0 0 127 0" result="hardAlpha"/>
<feOffset dy="3.57522"/>
<feGaussianBlur stdDeviation="4.46903"/>
<feComposite in2="hardAlpha" operator="out"/>
<feColorMatrix type="matrix" values="0 0 0 0 0 0 0 0 0 0 0 0 0 0 0 0 0 0 0.2 0"/>
<feBlend mode="normal" in2="BackgroundImageFix" result="effect1_dropShadow_219_445"/>
<feBlend mode="normal" in="SourceGraphic" in2="effect1_dropShadow_219_445" result="shape"/>
</filter>
<radialGradient id="paint0_radial_219_445" cx="0" cy="0" r="1" gradientUnits="userSpaceOnUse" gradientTransform="translate(42.4605 0.151991) rotate(58.9271) scale(177.666 335.976)">
<stop stop-color="#11D9FE"/>
<stop offset="0.130208" stop-color="#24AAFF"/>
<stop offset="0.286458" stop-color="#5699F9"/>
<stop offset="0.479167" stop-color="#08E0FF"/>
<stop offset="0.666667" stop-color="#2EBCFD"/>
</radialGradient>
<clipPath id="clip0_219_445">
<rect width="130" height="130" fill="white"/>
</clipPath>
</defs>
</svg>
