<svg width="130" height="130" viewBox="0 0 130 130" fill="none" xmlns="http://www.w3.org/2000/svg">
<path fill-rule="evenodd" clip-rule="evenodd" d="M58.1326 29.61C55.7571 36.4682 54.5421 38.2964 51.6906 39.3007C48.9815 40.255 46.2495 39.7926 42.0528 37.6694L40.2672 36.7658L36.8009 40.2271L33.3343 43.688L34.2392 45.4709C36.3657 49.661 36.8288 52.3888 35.8731 55.0937C34.9569 57.6866 33.3187 58.9202 28.4169 60.709L25.9272 61.6175V66.4921V71.3666L28.4169 72.2751C33.3187 74.0639 34.9569 75.2975 35.8731 77.8904C36.8288 80.5953 36.3657 83.3231 34.2392 87.5132L33.3343 89.2961L36.8009 92.757L40.2672 96.2183L42.0528 95.3148C46.2495 93.1915 48.9815 92.7292 51.6906 93.6834C54.2875 94.5982 55.5231 96.2339 57.3147 101.128L58.2246 103.614H63.1067H67.9888L68.8987 101.128C70.6412 96.3678 71.8422 94.7318 74.3508 93.7013C76.8462 92.6765 79.9573 93.1882 84.1605 95.3148L85.9462 96.2183L89.4125 92.757L92.8791 89.2961L91.9742 87.5132C89.8477 83.3231 89.3846 80.5953 90.3403 77.8904C91.2565 75.2975 92.8947 74.0639 97.7964 72.2751L100.286 71.3666V66.4921V61.6175L97.7964 60.709C92.8947 58.9202 91.2565 57.6866 90.3403 55.0937C89.3846 52.3888 89.8477 49.661 91.9742 45.4709L92.8791 43.688L89.4125 40.2271L85.9462 36.7658L84.1605 37.6694C79.9639 39.7926 77.2319 40.255 74.5228 39.3007C71.9259 38.3859 70.6896 36.7496 68.8994 31.8562L67.9898 29.3703L63.1346 29.2785C59.4276 29.2086 58.2445 29.2868 58.1326 29.61ZM68.6866 55.1776C70.8447 56.2319 73.66 59.1055 74.6572 61.2715C75.7115 63.5618 75.7115 69.4224 74.6572 71.7126C73.6471 73.9071 70.8466 76.7509 68.6202 77.8424C66.9309 78.671 66.4196 78.7555 63.1067 78.7555C59.7937 78.7555 59.2825 78.671 57.5932 77.8424C55.3667 76.7509 52.5663 73.9071 51.5562 71.7126C50.9507 70.3968 50.8315 69.5384 50.8315 66.4921C50.8315 62.1733 51.3577 60.6941 53.8361 58.0489C56.8001 54.8849 59.0877 54.0006 63.837 54.1829C66.3108 54.278 67.2319 54.4669 68.6866 55.1776Z" fill="url(#paint0_radial_219_444)"/>
<circle cx="37.4699" cy="92.9108" r="15.017" transform="rotate(5.85124 37.4699 92.9108)" fill="#FFAA51"/>
<path d="M31.3377 99.0792L30.5566 101C30.4703 101.212 30.5724 101.454 30.7844 101.54L32.3209 102.165C32.4227 102.206 32.5369 102.206 32.6382 102.163C32.7395 102.12 32.8198 102.039 32.8612 101.937L33.6423 100.017L34.4105 100.329L33.6294 102.25C33.5432 102.462 33.6452 102.704 33.8573 102.79L35.3937 103.415C35.4955 103.456 35.6097 103.456 35.711 103.413C35.8124 103.37 35.8926 103.289 35.934 103.187L36.7151 101.266L36.8442 101.319C39.9047 102.564 42.7381 101.866 43.8548 99.1209C44.7934 96.8132 43.7593 94.9226 42.021 94.006L42.076 93.8708C43.7175 94.1052 45.2704 93.4261 46.0303 91.5578C46.9877 89.204 45.802 87.0565 43.1056 85.9598L42.9642 85.9023L43.7454 83.9818C43.7868 83.8799 43.7861 83.7658 43.7433 83.6645C43.7006 83.5631 43.6194 83.4829 43.5175 83.4415L41.9811 82.8166C41.8792 82.7751 41.7651 82.7759 41.6637 82.8186C41.5624 82.8613 41.4822 82.9426 41.4407 83.0445L40.6596 84.965L39.7793 84.6069L40.5604 82.6864C40.6018 82.5845 40.6011 82.4703 40.5584 82.369C40.5156 82.2677 40.4344 82.1875 40.3325 82.146L38.9083 81.5668C38.8064 81.5253 38.6922 81.5261 38.5909 81.5688C38.4896 81.6115 38.4094 81.6928 38.3679 81.7946L37.5868 83.7151L34.5102 82.4835C34.4083 82.442 34.2941 82.4428 34.1928 82.4855C34.0915 82.5282 34.0113 82.6095 33.9698 82.7114L33.3518 84.2309C33.2662 84.4413 33.3646 84.6837 33.5766 84.7699L34.7397 85.2341C35.0432 85.3599 35.2846 85.6006 35.4112 85.9037C35.5378 86.2068 35.5394 86.5476 35.4157 86.8519L31.9756 95.3099C31.8512 95.6155 31.6106 95.8592 31.3066 95.9874C31.0026 96.1156 30.6602 96.1178 30.3546 95.9935L29.1985 95.543C29.0966 95.5015 28.9824 95.5022 28.8811 95.545C28.7798 95.5877 28.6996 95.669 28.6581 95.7708L28.0332 97.3072C27.947 97.5193 28.0491 97.7613 28.2611 97.8476L31.3377 99.0792ZM38.85 86.8915L41.4911 87.9657C42.8831 88.5319 43.3892 89.6295 42.8806 90.8801C42.3363 92.2183 41.146 92.6134 39.1456 91.7998L37.179 90.9999L38.85 86.8915ZM36.3185 93.1155L39.1455 94.2654C40.8924 94.9759 41.481 96.2538 40.8911 97.7042C40.2955 99.1684 39.0232 99.5408 36.6694 98.5834L34.46 97.6848L36.3179 93.1171L36.3185 93.1155Z" fill="#F9F9F9"/>
<circle cx="88.4035" cy="40.8572" r="7.85126" transform="rotate(5.85124 88.4035 40.8572)" fill="#FFAA51"/>
<path d="M85.1974 44.0822L84.789 45.0863C84.7439 45.1972 84.7973 45.3237 84.9082 45.3688L85.7114 45.6956C85.7647 45.7172 85.8244 45.7168 85.8774 45.6945C85.9303 45.6721 85.9723 45.6297 85.9939 45.5764L86.4023 44.5723L86.804 44.7357L86.3956 45.7398C86.3505 45.8506 86.4039 45.9772 86.5147 46.0223L87.318 46.349C87.3712 46.3706 87.4309 46.3703 87.4839 46.3479C87.5369 46.3256 87.5788 46.2831 87.6005 46.2298L88.0089 45.2258L88.0764 45.2532C89.6765 45.904 91.1578 45.5395 91.7417 44.104C92.2324 42.8975 91.6917 41.909 90.7829 41.4299L90.8117 41.3592C91.6699 41.4817 92.4818 41.1266 92.8791 40.1499C93.3796 38.9193 92.7597 37.7965 91.35 37.2231L91.2761 37.193L91.6844 36.189C91.7061 36.1357 91.7057 36.076 91.6834 36.023C91.661 35.9701 91.6186 35.9281 91.5653 35.9065L90.762 35.5797C90.7088 35.5581 90.6491 35.5585 90.5961 35.5808C90.5431 35.6032 90.5012 35.6456 90.4795 35.6989L90.0711 36.703L89.6109 36.5158L90.0193 35.5117C90.0409 35.4584 90.0405 35.3987 90.0182 35.3458C89.9959 35.2928 89.9534 35.2508 89.9001 35.2292L89.1555 34.9263C89.1022 34.9046 89.0426 34.905 88.9896 34.9274C88.9366 34.9497 88.8947 34.9922 88.873 35.0454L88.4646 36.0495L86.8561 35.4056C86.8028 35.3839 86.7431 35.3843 86.6902 35.4067C86.6372 35.429 86.5952 35.4715 86.5736 35.5247L86.2505 36.3192C86.2057 36.4292 86.2571 36.5559 86.368 36.601L86.9761 36.8437C87.1347 36.9094 87.2609 37.0353 87.3271 37.1937C87.3934 37.3522 87.3942 37.5304 87.3295 37.6895L85.5309 42.1115C85.4659 42.2713 85.3401 42.3987 85.1812 42.4658C85.0223 42.5328 84.8432 42.5339 84.6834 42.4689L84.079 42.2334C84.0257 42.2117 83.966 42.2121 83.9131 42.2345C83.8601 42.2568 83.8181 42.2993 83.7965 42.3525L83.4698 43.1558C83.4247 43.2667 83.4781 43.3932 83.5889 43.4383L85.1974 44.0822ZM89.125 37.7102L90.5059 38.2719C91.2336 38.5679 91.4983 39.1417 91.2323 39.7956C90.9477 40.4952 90.3254 40.7018 89.2796 40.2764L88.2514 39.8582L89.125 37.7102ZM87.8015 40.9643L89.2795 41.5654C90.1928 41.9369 90.5006 42.605 90.1922 43.3633C89.8808 44.1289 89.2156 44.3236 87.985 43.823L86.8299 43.3532L87.8012 40.9651L87.8015 40.9643Z" fill="#F9F9F9"/>
<path d="M87.3955 24.427C87.2665 21.1336 87.2714 21.0934 87.8718 20.4783C88.5196 19.815 89.3014 19.8437 89.848 20.551C90.257 21.0801 90.5545 27.9075 90.1982 28.5892C89.6326 29.6713 87.8655 29.4783 87.635 28.3093C87.575 28.0044 87.4672 26.2573 87.3955 24.427Z" fill="#F7FAFC"/>
<path d="M97.4994 31.3864C97.1026 30.6275 97.5218 29.9515 100.101 27.191C101.417 25.782 102.69 24.63 102.931 24.6313C103.665 24.6343 104.624 25.8008 104.424 26.4468C104.204 27.1563 99.7738 32.0637 99.1787 32.257C98.6276 32.4361 97.8325 32.0238 97.4994 31.3864Z" fill="#F7FAFC"/>
<path d="M74.0815 28.3705C74.0815 27.9826 74.254 27.4889 74.4647 27.2729C75.3419 26.3749 75.9331 26.7175 79.2639 30.0546C81.4669 32.2615 81.7371 32.8256 80.9943 33.666C80.1417 34.6307 79.4034 34.2783 76.6627 31.599C74.5754 29.5582 74.0815 28.9406 74.0815 28.3705Z" fill="#F7FAFC"/>
<path d="M101.388 41.2325C100.604 40.5068 100.878 39.159 101.884 38.7912C102.085 38.7175 103.805 38.6483 105.707 38.6376C108.544 38.6213 109.234 38.6883 109.548 39.0102C110.021 39.4946 110.042 40.3657 109.595 40.991C109.298 41.4073 108.831 41.4742 105.563 41.5694C102.271 41.665 101.815 41.6283 101.388 41.2325Z" fill="#F7FAFC"/>
<path d="M99.2043 53.2991C96.3812 50.6191 96.0052 49.9171 96.9014 48.9993C97.7401 48.1407 98.4754 48.5043 101.213 51.1302C103.982 53.7869 104.304 54.4047 103.431 55.3924C102.648 56.2779 102.008 55.9607 99.2043 53.2991Z" fill="#F7FAFC"/>
<defs>
<radialGradient id="paint0_radial_219_444" cx="0" cy="0" r="1" gradientUnits="userSpaceOnUse" gradientTransform="translate(42.4089 9.04868) rotate(60.6855) scale(151.093 275.924)">
<stop stop-color="#11D9FE"/>
<stop offset="0.130208" stop-color="#24AAFF"/>
<stop offset="0.286458" stop-color="#5699F9"/>
<stop offset="0.479167" stop-color="#08E0FF"/>
<stop offset="0.666667" stop-color="#2EBCFD"/>
</radialGradient>
</defs>
</svg>
