<svg width="130" height="130" viewBox="0 0 130 130" fill="none" xmlns="http://www.w3.org/2000/svg">
<g filter="url(#filter0_d_219_439)">
<path d="M59.9301 35.3674C63.2231 37.2686 67.4339 36.1404 69.3351 32.8474C71.2363 29.5544 70.108 25.3437 66.815 23.4424C63.522 21.5412 59.3113 22.6695 57.4101 25.9625C55.5089 29.2555 56.6371 33.4662 59.9301 35.3674Z" fill="#627EEA"/>
</g>
<path d="M66.1406 25.0402L64.2322 28.3456L66.3053 31.207L66.1406 25.0402Z" fill="white" fill-opacity="0.602"/>
<path d="M66.1404 25.0402L60.717 27.9808L64.232 28.3456L66.1404 25.0402Z" fill="white"/>
<path d="M62.2746 31.736L60.9779 33.982L66.0066 31.7283L62.2746 31.736Z" fill="white" fill-opacity="0.602"/>
<path d="M60.9776 33.982L62.2745 31.7357L60.4165 28.501L60.9776 33.982Z" fill="white"/>
<path d="M62.5746 31.2162L66.3049 31.207L64.2314 28.3464L62.5746 31.2162Z" fill="white" fill-opacity="0.2"/>
<path d="M60.7167 27.9808L62.5743 31.2162L64.2312 28.3464L60.7167 27.9808Z" fill="white" fill-opacity="0.602"/>
<g filter="url(#filter1_d_219_439)">
<path d="M91.9827 95.0814C97.4454 93.6176 100.687 88.0027 99.2235 82.5399C97.7598 77.0772 92.1448 73.8354 86.6821 75.2992C81.2194 76.7629 77.9776 82.3779 79.4413 87.8406C80.9051 93.3033 86.52 96.5451 91.9827 95.0814Z" fill="#627EEA"/>
</g>
<path d="M87.6519 77.6895L89.1211 83.1729L94.3106 84.002L87.6519 77.6895Z" fill="white" fill-opacity="0.602"/>
<path d="M87.6518 77.6895L85.0408 86.4858L89.1211 83.1728L87.6518 77.6895Z" fill="white"/>
<path d="M90.6286 88.7972L91.6269 92.5231L94.5454 84.8642L90.6286 88.7972Z" fill="white" fill-opacity="0.602"/>
<path d="M91.6264 92.5231L90.6279 88.7966L85.272 87.3489L91.6264 92.5231Z" fill="white"/>
<path d="M90.3972 87.9348L94.3108 84.002L89.1216 83.1741L90.3972 87.9348Z" fill="white" fill-opacity="0.2"/>
<path d="M85.0414 86.4858L90.3977 87.9348L89.122 83.1741L85.0414 86.4858Z" fill="white" fill-opacity="0.602"/>
<path d="M106.736 54.7843C106.736 70.6814 93.8486 83.5683 77.9516 83.5683C76.1166 83.5683 74.3225 83.3947 72.5829 83.0664L68.6558 87.4845C68.2875 87.8988 67.8357 88.2303 67.3301 88.4574C66.8244 88.6845 66.2764 88.8018 65.7221 88.8018H59.6344V95.3437C59.6344 97.5115 57.8771 99.2688 55.7093 99.2688H49.1674V105.811C49.1674 107.978 47.4101 109.736 45.2423 109.736H26.9251C24.7573 109.736 23 107.978 23 105.811V93.0444C23 92.0034 23.4136 91.005 24.1496 90.2688L50.6117 63.8067C49.6757 60.9685 49.1674 57.9359 49.1674 54.7842C49.1674 38.8871 62.0544 26.0002 77.9514 26C93.8954 25.9998 106.736 38.8402 106.736 54.7843ZM77.9516 46.9339C77.9516 51.2696 81.4662 54.7842 85.8018 54.7842C90.1374 54.7842 93.6521 51.2696 93.6521 46.9339C93.6521 42.5983 90.1374 39.0837 85.8018 39.0837C81.4662 39.0837 77.9516 42.5983 77.9516 46.9339Z" fill="url(#paint0_radial_219_439)"/>
<g filter="url(#filter2_d_219_439)">
<path d="M43.2609 75.4861C50.4496 73.5599 54.7158 66.1708 52.7895 58.982C50.8633 51.7933 43.4742 47.5271 36.2854 49.4534C29.0967 51.3796 24.8306 58.7687 26.7568 65.9575C28.683 73.1462 36.0721 77.4123 43.2609 75.4861Z" fill="#627EEA"/>
</g>
<path d="M37.5625 52.5989L39.496 59.8149L46.3252 60.9059L37.5625 52.5989Z" fill="white" fill-opacity="0.602"/>
<path d="M37.5622 52.5989L34.1262 64.1746L39.4957 59.8149L37.5622 52.5989Z" fill="white"/>
<path d="M41.4789 67.2163L42.7927 72.1194L46.6333 62.0405L41.4789 67.2163Z" fill="white" fill-opacity="0.602"/>
<path d="M42.7929 72.1194L41.4789 67.2155L34.4307 65.3103L42.7929 72.1194Z" fill="white"/>
<path d="M41.1748 66.0814L46.3249 60.9059L39.4961 59.8165L41.1748 66.0814Z" fill="white" fill-opacity="0.2"/>
<path d="M34.1263 64.1746L41.175 66.0814L39.4963 59.8165L34.1263 64.1746Z" fill="white" fill-opacity="0.602"/>
<defs>
<filter id="filter0_d_219_439" x="47.5483" y="17.1561" width="31.6486" height="31.6482" filterUnits="userSpaceOnUse" color-interpolation-filters="sRGB">
<feFlood flood-opacity="0" result="BackgroundImageFix"/>
<feColorMatrix in="SourceAlpha" type="matrix" values="0 0 0 0 0 0 0 0 0 0 0 0 0 0 0 0 0 0 127 0" result="hardAlpha"/>
<feOffset dy="3.57522"/>
<feGaussianBlur stdDeviation="4.46903"/>
<feComposite in2="hardAlpha" operator="out"/>
<feColorMatrix type="matrix" values="0 0 0 0 0 0 0 0 0 0 0 0 0 0 0 0 0 0 0.2 0"/>
<feBlend mode="normal" in2="BackgroundImageFix" result="effect1_dropShadow_219_439"/>
<feBlend mode="normal" in="SourceGraphic" in2="effect1_dropShadow_219_439" result="shape"/>
</filter>
<filter id="filter1_d_219_439" x="70.1518" y="69.5849" width="38.3615" height="38.3612" filterUnits="userSpaceOnUse" color-interpolation-filters="sRGB">
<feFlood flood-opacity="0" result="BackgroundImageFix"/>
<feColorMatrix in="SourceAlpha" type="matrix" values="0 0 0 0 0 0 0 0 0 0 0 0 0 0 0 0 0 0 127 0" result="hardAlpha"/>
<feOffset dy="3.57522"/>
<feGaussianBlur stdDeviation="4.46903"/>
<feComposite in2="hardAlpha" operator="out"/>
<feColorMatrix type="matrix" values="0 0 0 0 0 0 0 0 0 0 0 0 0 0 0 0 0 0 0.2 0"/>
<feBlend mode="normal" in2="BackgroundImageFix" result="effect1_dropShadow_219_439"/>
<feBlend mode="normal" in="SourceGraphic" in2="effect1_dropShadow_219_439" result="shape"/>
</filter>
<filter id="filter2_d_219_439" x="17.3564" y="43.628" width="44.8336" height="44.8339" filterUnits="userSpaceOnUse" color-interpolation-filters="sRGB">
<feFlood flood-opacity="0" result="BackgroundImageFix"/>
<feColorMatrix in="SourceAlpha" type="matrix" values="0 0 0 0 0 0 0 0 0 0 0 0 0 0 0 0 0 0 127 0" result="hardAlpha"/>
<feOffset dy="3.57522"/>
<feGaussianBlur stdDeviation="4.46903"/>
<feComposite in2="hardAlpha" operator="out"/>
<feColorMatrix type="matrix" values="0 0 0 0 0 0 0 0 0 0 0 0 0 0 0 0 0 0 0.2 0"/>
<feBlend mode="normal" in2="BackgroundImageFix" result="effect1_dropShadow_219_439"/>
<feBlend mode="normal" in="SourceGraphic" in2="effect1_dropShadow_219_439" result="shape"/>
</filter>
<radialGradient id="paint0_radial_219_439" cx="0" cy="0" r="1" gradientUnits="userSpaceOnUse" gradientTransform="translate(41.56 3.24571) rotate(60.6855) scale(170.146 310.719)">
<stop stop-color="#11D9FE"/>
<stop offset="0.130208" stop-color="#24AAFF"/>
<stop offset="0.286458" stop-color="#5699F9"/>
<stop offset="0.479167" stop-color="#08E0FF"/>
<stop offset="0.666667" stop-color="#2EBCFD"/>
</radialGradient>
</defs>
</svg>
