<svg width="300" height="300" viewBox="0 0 300 300" fill="none" xmlns="http://www.w3.org/2000/svg">
<g clip-path="url(#clip0)">
<rect width="300" height="300" fill="none"/>
<path d="M182.635 181.225L247 160L233.907 200.383L182.635 181.225Z" fill="#EBF0F3"/>
<path d="M247 160L203.594 189.057L212.872 192.523L247 160Z" fill="#E1E6E9"/>
<path d="M203.594 205.62V189.057L212.872 192.523L203.594 205.62Z" fill="#D5D6DB"/>
<path d="M203.594 205.62L218.871 194.765L212.872 192.523" fill="#E1E6E9"/>
<path d="M0 291.313C20.2595 294.678 99.7358 289.487 121.557 263.916C143.378 238.344 126.103 226.024 114.738 223.059C103.57 221.778 80.1682 222.483 75.8988 235.557C70.5622 251.899 83.9038 263.916 86.8686 263.916C89.8334 263.916 118.295 280.979 153.28 254.543C188.265 228.106 198.642 210.562 199.531 209.361" stroke="white" stroke-width="2" stroke-dasharray="4 4"/>
</g>
<defs>
<clipPath id="clip0">
<rect width="300" height="300" fill="white"/>
</clipPath>
</defs>
</svg>
