<svg width="567" height="150" viewBox="0 0 567 150" fill="none" xmlns="http://www.w3.org/2000/svg">
<g opacity="0.5">
<path opacity="0.5" d="M361.031 133.162L342.354 143.946V230.409L361.031 219.625V133.162Z" fill="#5CFFF3"/>
<path opacity="0.2" d="M379.708 100.811L361.031 111.595V219.625L379.708 208.841V100.811Z" fill="#5CFFF3"/>
<path opacity="0.5" d="M398.385 111.595L379.708 122.378V208.841L398.385 198.057V111.595Z" fill="#5CFFF3"/>
<path opacity="0.2" d="M417.062 36.1082L398.385 46.8919V198.057L417.062 187.274V36.1082Z" fill="#5CFFF3"/>
<path opacity="0.5" d="M435.739 46.8919L417.062 57.6757V187.274L435.739 176.297V46.8919Z" fill="#5CFFF3"/>
<path opacity="0.2" d="M454.416 57.6757L435.739 68.4595V176.297L454.416 165.514V57.6757Z" fill="#5CFFF3"/>
<path opacity="0.5" d="M473.286 3.75677L454.416 14.5406V165.514L473.286 154.73V3.75677Z" fill="#5CFFF3"/>
<path opacity="0.2" d="M491.963 -50.1622L473.286 -39.3784V154.73L491.963 143.946V-50.1622Z" fill="#5CFFF3"/>
<path opacity="0.5" d="M510.64 -39.3784L491.963 -28.5946V143.946L510.64 133.162V-39.3784Z" fill="#5CFFF3"/>
<path opacity="0.2" d="M529.317 -93.2973L510.64 -82.5135V133.162L529.317 122.378V-93.2973Z" fill="#5CFFF3"/>
<path opacity="0.5" d="M547.671 -104L528.994 -93.2162V122.459L547.671 111.676V-104Z" fill="#5CFFF3"/>
<path opacity="0.2" d="M566.671 -158L547.994 -147.216V111.595L566.671 100.811V-158Z" fill="#5CFFF3"/>
</g>
<g opacity="0.5">
<path opacity="0.5" d="M56.0309 120.162L37.3539 130.946V217.409L56.0309 206.625V120.162Z" fill="#5CFFF3"/>
<path opacity="0.2" d="M74.708 87.8108L56.031 98.5946V206.625L74.708 195.841V87.8108Z" fill="#5CFFF3"/>
<path opacity="0.5" d="M93.385 98.5946L74.708 109.378V195.841L93.385 185.057V98.5946Z" fill="#5CFFF3"/>
<path opacity="0.2" d="M112.062 23.1082L93.385 33.8919V185.057L112.062 174.274V23.1082Z" fill="#5CFFF3"/>
<path opacity="0.5" d="M130.739 33.8919L112.062 44.6757V174.274L130.739 163.297V33.8919Z" fill="#5CFFF3"/>
<path opacity="0.2" d="M149.416 44.6757L130.739 55.4595V163.297L149.416 152.514V44.6757Z" fill="#5CFFF3"/>
<path opacity="0.5" d="M168.286 -9.24323L149.416 1.54056V152.514L168.286 141.73V-9.24323Z" fill="#5CFFF3"/>
<path opacity="0.2" d="M186.963 -63.1622L168.286 -52.3784V141.73L186.963 130.946V-63.1622Z" fill="#5CFFF3"/>
<path opacity="0.5" d="M205.64 -52.3784L186.963 -41.5946V130.946L205.64 120.162V-52.3784Z" fill="#5CFFF3"/>
<path opacity="0.2" d="M224.317 -106.297L205.64 -95.5135V120.162L224.317 109.378V-106.297Z" fill="#5CFFF3"/>
<path opacity="0.5" d="M242.671 -117L223.994 -106.216V109.459L242.671 98.6757V-117Z" fill="#5CFFF3"/>
<path opacity="0.2" d="M261.671 -171L242.994 -160.216V98.5946L261.671 87.8108V-171Z" fill="#5CFFF3"/>
</g>
<path opacity="0.4" d="M328.863 231.389C393.777 231.389 446.4 201.019 446.4 163.556C446.4 126.093 393.777 95.7235 328.863 95.7235C263.949 95.7235 211.325 126.093 211.325 163.556C211.325 201.019 263.949 231.389 328.863 231.389Z" fill="#0F054C"/>
<path d="M328.863 204.414C402.758 204.414 462.662 169.841 462.662 127.193C462.662 84.5457 402.758 49.9728 328.863 49.9728C254.967 49.9728 195.063 84.5457 195.063 127.193C195.063 169.841 254.967 204.414 328.863 204.414Z" fill="url(#paint0_linear)"/>
<path opacity="0.48" d="M462.53 101.674H459.224C453.804 87.922 441.904 74.8315 423.395 64.1211C371.171 33.9733 286.554 33.9733 234.198 64.1211C216.746 74.1704 205.111 86.4675 199.294 99.4258H195.063V116.483C194.006 136.978 207.095 157.738 234.198 173.341C286.422 203.489 371.038 203.489 423.395 173.341C449.573 158.267 462.53 138.565 462.53 118.731V101.674Z" fill="url(#paint1_linear)"/>
<path opacity="0.48" d="M462.53 101.674H459.224C453.804 87.922 441.904 74.8315 423.395 64.1211C371.171 33.9733 286.554 33.9733 234.198 64.1211C216.746 74.1704 205.111 86.4675 199.294 99.4258H195.063V116.483C194.006 136.978 207.095 157.738 234.198 173.341C286.422 203.489 371.038 203.489 423.395 173.341C449.573 158.267 462.53 138.565 462.53 118.731V101.674Z" fill="url(#paint2_linear)"/>
<path opacity="0.48" d="M462.53 101.674H459.224C453.804 87.922 441.904 74.8315 423.395 64.1211C371.171 33.9733 286.554 33.9733 234.198 64.1211C216.746 74.1704 205.111 86.4675 199.294 99.4258H195.063V116.483C194.006 136.978 207.095 157.738 234.198 173.341C286.422 203.489 371.038 203.489 423.395 173.341C449.573 158.267 462.53 138.565 462.53 118.731V101.674Z" fill="url(#paint3_linear)"/>
<path d="M462.53 95.0623H459.224C453.804 81.3107 441.904 68.2202 423.395 57.5098C371.171 27.362 286.554 27.362 234.198 57.5098C216.746 67.5591 205.111 79.8562 199.294 92.8145H195.063V109.872C194.006 130.367 207.095 151.127 234.198 166.729C286.422 196.877 371.038 196.877 423.395 166.729C449.573 151.656 462.53 131.954 462.53 112.12V95.0623Z" fill="url(#paint4_linear)"/>
<path opacity="0.48" d="M459.224 95.0623C459.092 94.5334 458.828 94.1367 458.696 93.6078V82.3685H451.688V81.5751C449.969 79.1951 447.986 76.815 445.739 74.5671V82.3685H441.772V70.7325C439.921 69.0136 437.938 67.4268 435.823 65.7079V82.3685H431.856V62.7989C430.005 61.4766 427.89 60.1544 425.907 58.9643V82.3685H421.94V56.5842C419.957 55.5264 417.974 54.4686 415.991 53.4108V82.3685H412.024V51.5596C410.041 50.634 408.058 49.8406 405.943 48.915V82.3685H401.976V55.2619H395.894V82.3685H391.928V62.6667H385.714V82.3685H381.748V70.2036H375.666V82.3685H371.832V77.6083H365.75V82.3685H291.975V77.6083H285.893V82.3685H282.059V70.2036H275.977V82.3685H272.011V62.6667H265.929V82.3685H261.963V55.2619H255.881V82.3685H251.915V48.915C249.932 49.7084 247.816 50.634 245.833 51.5596V82.3685H241.867V53.4108C239.883 54.4686 237.768 55.5264 235.917 56.5842V82.3685H231.951V58.8321C229.835 60.1543 227.852 61.3444 226.001 62.6667V82.2363H222.035V65.5757C219.919 67.1624 217.936 68.8813 216.085 70.6003V82.3685H212.119V74.5671C209.871 76.815 207.888 79.1951 206.169 81.5751V82.5007H199.162V92.8145H196.253V121.508C197.311 126.665 199.294 131.821 202.203 136.714V118.731H206.301V142.796C208.02 145.176 210.003 147.424 212.251 149.804V118.863H216.217V153.771C218.068 155.49 220.051 157.077 222.167 158.796V118.995H226.133V161.705C227.984 163.027 230.1 164.349 232.083 165.539V118.863H236.049V167.787C238.032 168.845 240.016 169.903 241.999 170.961V118.863H245.965V172.812C247.948 173.737 249.932 174.531 252.047 175.456V118.863H256.013V177.043C257.997 177.837 259.98 178.498 262.095 179.159V118.863H266.062V180.349C268.045 181.01 270.028 181.539 272.143 182.068V118.731H276.11V182.993C278.093 183.522 280.208 183.919 282.191 184.448V118.731H286.026V185.241C288.009 185.638 290.124 186.035 292.107 186.299V118.731H295.942V186.96C297.925 187.225 300.04 187.489 302.023 187.754V118.731H305.858V188.15C307.841 188.415 309.956 188.547 311.939 188.679V118.731H315.774V188.944C317.889 189.076 319.872 189.208 321.988 189.208V118.731H325.822V189.34C327.937 189.34 329.92 189.34 332.036 189.34V118.731H335.87V189.208C337.985 189.208 339.968 189.076 342.084 188.944V118.731H345.918V188.679C348.033 188.547 350.017 188.415 352 188.15V118.731H355.834V187.754C357.949 187.489 359.933 187.225 361.916 186.96V118.731H365.75V186.431C367.733 186.035 369.849 185.77 371.832 185.374V118.863H375.666V184.58C377.649 184.183 379.764 183.655 381.748 183.126V118.863H385.714V182.2C387.697 181.671 389.813 181.01 391.796 180.481V118.995H395.762V179.291C397.745 178.63 399.861 177.837 401.844 177.175V119.128H405.81V175.721C407.794 174.928 409.909 174.002 411.892 173.076V119.128H415.859V171.225C417.842 170.167 419.957 169.11 421.808 168.052V119.128H425.775V165.672C427.89 164.349 429.873 163.159 431.724 161.837V119.128H435.69V158.928C437.806 157.341 439.789 155.622 441.64 153.903V119.128H445.606V150.069C447.854 147.821 449.837 145.441 451.556 143.061V119.128H455.655V136.978C458.563 131.954 460.546 126.797 461.604 121.64V95.459L459.224 95.0623Z" fill="url(#paint5_linear)"/>
<path d="M328.863 172.283C402.758 172.283 462.662 137.71 462.662 95.0623C462.662 52.4145 402.758 17.8417 328.863 17.8417C254.967 17.8417 195.063 52.4145 195.063 95.0623C195.063 137.71 254.967 172.283 328.863 172.283Z" fill="url(#paint6_linear)"/>
<path opacity="0.3" d="M328.863 17.8417C298.586 17.8417 268.309 23.7919 243.585 35.5601L203.657 122.301C210.136 132.218 220.316 141.606 234.198 149.672C242.792 154.697 252.311 158.796 262.492 162.102L328.863 17.8417Z" fill="#42E8E0"/>
<path opacity="0.3" d="M366.279 21.0151L297.66 170.3C314.055 172.547 331.11 172.944 347.769 171.622L410.967 34.2378C397.349 28.0231 382.144 23.6596 366.279 21.0151Z" fill="#42E8E0"/>
<g opacity="0.05">
<path opacity="0.05" d="M328.863 163.424C394.288 163.424 447.325 132.817 447.325 95.0623C447.325 57.3073 394.288 26.7008 328.863 26.7008C263.437 26.7008 210.4 57.3073 210.4 95.0623C210.4 132.817 263.437 163.424 328.863 163.424Z" fill="url(#paint7_linear)"/>
<g opacity="0.05">
<path opacity="0.05" d="M117.322 94.7978L116 94.1367L322.384 -25L323.574 -24.3389L117.322 94.7978Z" fill="#42E8E0"/>
<path opacity="0.05" d="M120.892 96.9135L119.57 96.2523L325.954 -22.8844L327.276 -22.2232L120.892 96.9135Z" fill="#42E8E0"/>
<path opacity="0.05" d="M124.594 99.0291L123.272 98.2358L329.656 -20.9009L330.846 -20.1076L124.594 99.0291Z" fill="#42E8E0"/>
<path opacity="0.05" d="M128.164 101.145L126.841 100.351L333.226 -18.7853L334.548 -17.992L128.164 101.145Z" fill="#42E8E0"/>
<path opacity="0.05" d="M131.866 103.26L130.543 102.467L336.928 -16.6696L338.117 -15.8763L131.866 103.26Z" fill="#42E8E0"/>
<path opacity="0.05" d="M135.435 105.376L134.113 104.583L340.497 -14.554L341.819 -13.7607L135.435 105.376Z" fill="#42E8E0"/>
<path opacity="0.05" d="M139.137 107.359L137.815 106.698L344.199 -12.4384L345.389 -11.7772L139.137 107.359Z" fill="#42E8E0"/>
<path opacity="0.05" d="M142.707 109.475L141.385 108.814L347.769 -10.3228L349.091 -9.66165L142.707 109.475Z" fill="#42E8E0"/>
<path opacity="0.05" d="M146.409 111.591L145.087 110.93L351.471 -8.20715L352.661 -7.54602L146.409 111.591Z" fill="#42E8E0"/>
<path opacity="0.05" d="M149.979 113.706L148.657 113.045L355.041 -6.22379L356.363 -5.43042L149.979 113.706Z" fill="#42E8E0"/>
<path opacity="0.05" d="M153.681 115.822L152.359 115.029L358.743 -4.10803L359.933 -3.31467L153.681 115.822Z" fill="#42E8E0"/>
<path opacity="0.05" d="M157.25 117.938L155.928 117.144L362.312 -1.99246L363.635 -1.1991L157.25 117.938Z" fill="#42E8E0"/>
<path opacity="0.05" d="M160.952 120.053L159.63 119.26L366.014 0.123199L367.204 0.91656L160.952 120.053Z" fill="#42E8E0"/>
<path opacity="0.05" d="M164.522 122.169L163.2 121.375L369.584 2.23877L370.906 3.03214L164.522 122.169Z" fill="#42E8E0"/>
<path opacity="0.05" d="M168.092 124.152L166.902 123.491L373.286 4.35443L374.476 5.01557L168.092 124.152Z" fill="#42E8E0"/>
<path opacity="0.05" d="M171.794 126.268L170.472 125.607L376.856 6.47012L378.178 7.13126L171.794 126.268Z" fill="#42E8E0"/>
<path opacity="0.05" d="M175.364 128.384L174.174 127.722L380.558 8.58575L381.748 9.24689L175.364 128.384Z" fill="#42E8E0"/>
<path opacity="0.05" d="M179.065 130.499L177.743 129.706L384.128 10.5692L385.45 11.3625L179.065 130.499Z" fill="#42E8E0"/>
<path opacity="0.05" d="M182.635 132.615L181.445 131.821L387.697 12.6848L389.019 13.4781L182.635 132.615Z" fill="#42E8E0"/>
<path opacity="0.05" d="M186.337 134.73L185.015 133.937L391.399 14.8004L392.721 15.5938L186.337 134.73Z" fill="#42E8E0"/>
<path opacity="0.05" d="M189.907 136.846L188.717 136.053L394.969 16.916L396.291 17.7093L189.907 136.846Z" fill="#42E8E0"/>
<path opacity="0.05" d="M193.609 138.962L192.287 138.168L398.671 19.0317L399.993 19.825L193.609 138.962Z" fill="#42E8E0"/>
<path opacity="0.05" d="M197.179 140.945L195.989 140.284L402.241 21.1473L403.563 21.8084L197.179 140.945Z" fill="#42E8E0"/>
<path opacity="0.05" d="M200.881 143.061L199.558 142.4L405.943 23.2629L407.265 23.9241L200.881 143.061Z" fill="#42E8E0"/>
<path opacity="0.05" d="M204.45 145.176L203.26 144.515L409.512 25.3785L410.835 26.0397L204.45 145.176Z" fill="#42E8E0"/>
<path opacity="0.05" d="M208.152 147.292L206.83 146.499L413.214 27.3619L414.536 28.1553L208.152 147.292Z" fill="#42E8E0"/>
<path opacity="0.05" d="M211.722 149.408L210.532 148.614L416.784 29.4776L418.106 30.271L211.722 149.408Z" fill="#42E8E0"/>
<path opacity="0.05" d="M215.424 151.523L214.102 150.73L420.486 31.5933L421.808 32.3866L215.424 151.523Z" fill="#42E8E0"/>
<path opacity="0.05" d="M218.994 153.639L217.804 152.846L424.056 33.7089L425.378 34.5023L218.994 153.639Z" fill="#42E8E0"/>
<path opacity="0.05" d="M222.696 155.755L221.374 154.961L427.758 35.8245L429.08 36.6179L222.696 155.755Z" fill="#42E8E0"/>
<path opacity="0.05" d="M226.265 157.738L225.076 157.077L431.328 37.9402L432.65 38.6013L226.265 157.738Z" fill="#42E8E0"/>
<path opacity="0.05" d="M229.967 159.854L228.645 159.192L435.029 40.0558L436.219 40.7169L229.967 159.854Z" fill="#42E8E0"/>
<path opacity="0.05" d="M233.537 161.969L232.347 161.308L438.599 42.1714L439.921 42.8326L233.537 161.969Z" fill="#42E8E0"/>
<path opacity="0.05" d="M237.239 164.085L235.917 163.292L442.301 44.1548L443.491 44.9482L237.239 164.085Z" fill="#42E8E0"/>
<path opacity="0.05" d="M240.809 166.201L239.619 165.407L445.871 46.2705L447.193 47.0638L240.809 166.201Z" fill="#42E8E0"/>
<path opacity="0.05" d="M244.511 168.316L243.189 167.523L449.573 48.3861L450.763 49.1794L244.511 168.316Z" fill="#42E8E0"/>
<path opacity="0.05" d="M248.081 170.432L246.891 169.638L453.143 50.5017L454.465 51.2951L248.081 170.432Z" fill="#42E8E0"/>
<path opacity="0.05" d="M251.783 172.547L250.46 171.754L456.845 52.6173L458.034 53.2784L251.783 172.547Z" fill="#42E8E0"/>
<path opacity="0.05" d="M255.352 174.531L254.162 173.87L460.414 54.733L461.736 55.3942L255.352 174.531Z" fill="#42E8E0"/>
<path opacity="0.05" d="M259.054 176.646L257.732 175.985L464.116 56.8486L465.306 57.5098L259.054 176.646Z" fill="#42E8E0"/>
<path opacity="0.05" d="M262.624 178.762L261.434 178.101L467.686 58.9643L469.008 59.6254L262.624 178.762Z" fill="#42E8E0"/>
<path opacity="0.05" d="M266.326 180.878L265.004 180.084L471.388 60.9477L472.578 61.741L266.326 180.878Z" fill="#42E8E0"/>
<path opacity="0.05" d="M269.896 182.993L268.706 182.2L474.958 63.0633L476.28 63.8567L269.896 182.993Z" fill="#42E8E0"/>
<path opacity="0.05" d="M273.598 185.109L272.276 184.316L478.66 65.1789L479.85 65.9723L273.598 185.109Z" fill="#42E8E0"/>
<path opacity="0.05" d="M277.167 187.225L275.977 186.431L482.229 67.2946L483.551 68.088L277.167 187.225Z" fill="#42E8E0"/>
<path opacity="0.05" d="M280.869 189.208L279.547 188.547L485.931 69.4102L487.121 70.0714L280.869 189.208Z" fill="#42E8E0"/>
<path opacity="0.05" d="M284.439 191.324L283.249 190.663L489.501 71.5258L490.823 72.187L284.439 191.324Z" fill="#42E8E0"/>
<path opacity="0.05" d="M288.141 193.439L286.819 192.778L493.203 73.6415L494.393 74.3026L288.141 193.439Z" fill="#42E8E0"/>
<path opacity="0.05" d="M291.711 195.555L290.521 194.894L496.773 75.7571L498.095 76.4182L291.711 195.555Z" fill="#42E8E0"/>
<path opacity="0.05" d="M295.413 197.671L294.091 196.877L500.475 77.7405L501.665 78.5339L295.413 197.671Z" fill="#42E8E0"/>
<path opacity="0.05" d="M298.983 199.786L297.793 198.993L504.045 79.8562L505.367 80.6495L298.983 199.786Z" fill="#42E8E0"/>
<path opacity="0.05" d="M302.684 201.902L301.362 201.109L507.746 81.9718L508.936 82.7652L302.684 201.902Z" fill="#42E8E0"/>
<path opacity="0.05" d="M306.254 204.017L305.064 203.224L511.316 84.0875L512.638 84.8808L306.254 204.017Z" fill="#42E8E0"/>
<path opacity="0.05" d="M309.956 206.001L308.634 205.34L515.018 86.2031L516.208 86.8642L309.956 206.001Z" fill="#42E8E0"/>
<path opacity="0.05" d="M313.526 208.116L312.336 207.455L518.588 88.3187L519.91 88.9798L313.526 208.116Z" fill="#42E8E0"/>
<path opacity="0.05" d="M317.228 210.232L315.906 209.571L522.29 90.4344L523.48 91.0955L317.228 210.232Z" fill="#42E8E0"/>
<path opacity="0.05" d="M320.798 212.348L319.608 211.687L525.86 92.55L527.182 93.2111L320.798 212.348Z" fill="#42E8E0"/>
<path opacity="0.05" d="M324.5 214.463L323.177 213.67L529.562 94.5334L530.751 95.3268L324.5 214.463Z" fill="#42E8E0"/>
<path opacity="0.05" d="M328.069 216.579L326.879 215.786L533.131 96.649L534.453 97.4424L328.069 216.579Z" fill="#42E8E0"/>
<path opacity="0.05" d="M331.771 218.695L330.449 217.901L536.833 98.7646L538.023 99.558L331.771 218.695Z" fill="#42E8E0"/>
<path opacity="0.05" d="M335.341 220.81L334.151 220.017L540.403 100.88L541.725 101.674L335.341 220.81Z" fill="#42E8E0"/>
</g>
</g>
<path d="M245.04 51.4273C291.314 24.7174 366.279 24.7174 412.553 51.4273C434.633 64.2534 446.135 80.7818 447.193 97.4424C448.251 79.195 436.748 60.6832 412.553 46.7994C366.279 20.0895 291.314 20.0895 245.04 46.7994C220.845 60.6832 209.342 79.195 210.4 97.4424C211.458 80.6495 222.96 64.1211 245.04 51.4273Z" fill="url(#paint8_linear)"/>
<path d="M365.485 80.6495C358.346 79.9883 351.471 81.1784 344.86 84.0874C352.793 77.476 350.942 70.7324 339.307 63.8566C339.043 63.7244 338.779 63.5922 338.514 63.3277C334.548 60.9476 330.581 59.2287 326.483 58.1709C322.12 56.9808 318.021 56.3197 314.187 56.3197C310.353 56.3197 306.519 56.8486 302.42 57.9064C300.305 58.4353 298.189 59.0964 296.338 59.7576L288.934 55.3941L277.961 61.741L284.042 65.3111C282.985 65.84 281.795 66.5012 280.737 67.1623L276.771 69.5424L270.689 65.9722L259.715 72.3192L265.797 75.8893L258.261 80.2528L255.352 81.9717L254.559 82.3684L241.999 89.6409L252.972 95.9878L265.533 88.7153L344.728 134.466L332.168 141.738L343.142 148.085L355.702 140.813L359.536 138.697L367.072 134.334L373.286 137.904L384.26 131.557L380.293 129.309L378.046 127.987L385.317 123.756L391.531 127.326L402.505 120.979L398.539 118.731L395.366 116.88C399.729 113.045 401.976 109.343 402.241 105.508C402.505 99.8224 397.745 94.0044 387.962 88.3187C387.697 88.1864 387.565 88.0542 387.301 87.922C379.764 83.5585 372.625 81.3106 365.485 80.6495ZM291.711 78.0049L295.281 76.0215C304.007 70.9969 312.336 70.7324 320.401 75.3604C325.028 78.0049 327.673 80.5173 328.069 82.7651C328.466 85.013 326.351 87.5253 321.459 90.3021L317.228 92.8144L291.711 78.0049ZM362.18 118.731L331.903 101.277L336.266 98.7646C341.291 95.8556 345.918 94.5333 350.281 94.7978C354.644 95.0622 359.668 96.7812 365.353 100.087C370.377 102.996 373.154 105.773 373.55 108.285C373.947 110.797 371.699 113.442 366.94 116.219L362.18 118.731Z" fill="url(#paint9_linear)"/>
<path d="M259.583 63.3277V70.3357L265.797 66.8978L259.583 63.3277Z" fill="url(#paint10_linear)"/>
<path d="M277.961 52.7495V59.7576L284.042 56.3197L277.961 52.7495Z" fill="url(#paint11_linear)"/>
<path d="M349.62 66.8979V75.2282L344.199 71.7903L349.62 66.8979Z" fill="url(#paint12_linear)"/>
<path d="M402.108 95.0622V105.376L393.779 100.219L402.108 95.0622Z" fill="url(#paint13_linear)"/>
<path d="M365.485 71.7903C358.346 71.1292 351.471 72.3192 344.86 75.2282C352.793 68.6169 350.942 61.8733 339.307 54.9975C339.043 54.8652 338.779 54.733 338.514 54.4685C334.548 52.0885 330.581 50.3695 326.483 49.3117C322.12 48.1216 318.021 47.4605 314.187 47.4605C310.353 47.4605 306.519 47.9894 302.42 49.0472C300.305 49.5761 298.189 50.2373 296.338 50.8984L288.934 46.5349L277.961 52.8818L284.042 56.452C282.985 56.9809 281.795 57.642 280.737 58.3031L276.771 60.6832L270.689 57.1131L259.715 63.46L265.797 67.0301L258.261 71.3936L255.352 73.1126L254.559 73.5093L241.999 80.7818L252.972 87.1287L265.533 79.8562L344.728 125.607L332.168 132.879L343.142 139.226L355.702 131.954L359.536 129.838L367.072 125.475L373.286 129.045L384.26 122.698L380.293 120.45L378.046 119.128L385.317 114.896L391.531 118.467L402.505 112.12L398.539 109.872L395.366 108.021C399.729 104.186 401.976 100.484 402.241 96.649C402.505 90.9633 397.745 85.1453 387.962 79.4595C387.697 79.3273 387.565 79.195 387.301 79.0628C379.764 74.6993 372.625 72.3192 365.485 71.7903ZM291.711 69.1458L295.281 67.1624C304.007 62.1377 312.336 61.8733 320.401 66.5012C325.028 69.1458 327.673 71.6581 328.069 73.9059C328.466 76.1538 326.351 78.6661 321.459 81.4429L317.228 83.9552L291.711 69.1458ZM362.18 109.872L331.903 92.4177L336.266 89.9054C341.291 86.9964 345.918 85.6742 350.281 85.9386C354.644 86.2031 359.668 87.922 365.353 91.2277C370.377 94.1367 373.154 96.9135 373.55 99.4258C373.947 101.938 371.699 104.583 366.94 107.359L362.18 109.872Z" fill="url(#paint14_linear)"/>
<path d="M402.241 111.987V120.847L391.267 127.193V118.202L402.241 111.987Z" fill="url(#paint15_linear)"/>
<path d="M383.995 122.433V131.425L373.022 137.639V128.78L383.995 122.433Z" fill="url(#paint16_linear)"/>
<path d="M342.877 139.094V147.953L331.903 141.606V132.747L342.877 139.094Z" fill="url(#paint17_linear)"/>
<path d="M241.734 80.6496V89.5088L252.708 95.8557V86.9965L241.734 80.6496Z" fill="url(#paint18_linear)"/>
<path d="M265.4 88.5831V79.7239L252.708 86.9964V95.8556L265.4 88.5831Z" fill="url(#paint19_linear)"/>
<path d="M265.4 79.7239V88.5831L336.795 129.838L344.464 125.474L265.4 79.7239Z" fill="url(#paint20_linear)"/>
<defs>
<linearGradient id="paint0_linear" x1="190.885" y1="57.6974" x2="333.846" y2="281.127" gradientUnits="userSpaceOnUse">
<stop stop-color="#42E8E0"/>
<stop offset="0.0157138" stop-color="#40DDDA"/>
<stop offset="0.0920726" stop-color="#3AAEC0"/>
<stop offset="0.173" stop-color="#3484A9"/>
<stop offset="0.2573" stop-color="#2F6195"/>
<stop offset="0.3458" stop-color="#2B4486"/>
<stop offset="0.44" stop-color="#282E79"/>
<stop offset="0.5425" stop-color="#261E71"/>
<stop offset="0.6594" stop-color="#24156C"/>
<stop offset="0.8226" stop-color="#24126A"/>
</linearGradient>
<linearGradient id="paint1_linear" x1="174.9" y1="118.772" x2="439.714" y2="118.772" gradientUnits="userSpaceOnUse">
<stop stop-color="#42E8E0"/>
<stop offset="0.1507" stop-color="#43E3E0"/>
<stop offset="0.3285" stop-color="#45D5DF"/>
<stop offset="0.5199" stop-color="#49BDDD"/>
<stop offset="0.7209" stop-color="#4E9CDB"/>
<stop offset="0.9274" stop-color="#5472D8"/>
<stop offset="1" stop-color="#5761D7"/>
</linearGradient>
<linearGradient id="paint2_linear" x1="174.9" y1="118.772" x2="439.714" y2="118.772" gradientUnits="userSpaceOnUse">
<stop stop-color="#42E8E0"/>
<stop offset="0.1507" stop-color="#43E3E0"/>
<stop offset="0.3285" stop-color="#45D5DF"/>
<stop offset="0.5199" stop-color="#49BDDD"/>
<stop offset="0.7209" stop-color="#4E9CDB"/>
<stop offset="0.9274" stop-color="#5472D8"/>
<stop offset="1" stop-color="#5761D7"/>
</linearGradient>
<linearGradient id="paint3_linear" x1="174.9" y1="118.772" x2="439.714" y2="118.772" gradientUnits="userSpaceOnUse">
<stop stop-color="#42E8E0"/>
<stop offset="0.1507" stop-color="#43E3E0"/>
<stop offset="0.3285" stop-color="#45D5DF"/>
<stop offset="0.5199" stop-color="#49BDDD"/>
<stop offset="0.7209" stop-color="#4E9CDB"/>
<stop offset="0.9274" stop-color="#5472D8"/>
<stop offset="1" stop-color="#5761D7"/>
</linearGradient>
<linearGradient id="paint4_linear" x1="174.9" y1="112.153" x2="439.714" y2="112.153" gradientUnits="userSpaceOnUse">
<stop stop-color="#42E8E0"/>
<stop offset="0.0157138" stop-color="#40DDDA"/>
<stop offset="0.0920726" stop-color="#3AAEC0"/>
<stop offset="0.173" stop-color="#3484A9"/>
<stop offset="0.2573" stop-color="#2F6195"/>
<stop offset="0.3458" stop-color="#2B4486"/>
<stop offset="0.44" stop-color="#282E79"/>
<stop offset="0.5425" stop-color="#261E71"/>
<stop offset="0.6594" stop-color="#24156C"/>
<stop offset="0.8226" stop-color="#24126A"/>
</linearGradient>
<linearGradient id="paint5_linear" x1="196.066" y1="119.159" x2="461.638" y2="119.159" gradientUnits="userSpaceOnUse">
<stop stop-color="#42E8E0"/>
<stop offset="0.1507" stop-color="#43E3E0"/>
<stop offset="0.3285" stop-color="#45D5DF"/>
<stop offset="0.5199" stop-color="#49BDDD"/>
<stop offset="0.7209" stop-color="#4E9CDB"/>
<stop offset="0.9274" stop-color="#5472D8"/>
<stop offset="1" stop-color="#5761D7"/>
</linearGradient>
<linearGradient id="paint6_linear" x1="190.884" y1="25.654" x2="333.846" y2="249.083" gradientUnits="userSpaceOnUse">
<stop stop-color="#42E8E0"/>
<stop offset="0.0157138" stop-color="#40DDDA"/>
<stop offset="0.0920726" stop-color="#3AAEC0"/>
<stop offset="0.173" stop-color="#3484A9"/>
<stop offset="0.2573" stop-color="#2F6195"/>
<stop offset="0.3458" stop-color="#2B4486"/>
<stop offset="0.44" stop-color="#282E79"/>
<stop offset="0.5425" stop-color="#261E71"/>
<stop offset="0.6594" stop-color="#24156C"/>
<stop offset="0.8226" stop-color="#24126A"/>
</linearGradient>
<linearGradient id="paint7_linear" x1="307.949" y1="-9.22837" x2="374.13" y2="321.489" gradientUnits="userSpaceOnUse">
<stop stop-color="#42E8E0"/>
<stop offset="0.0157138" stop-color="#40DDDA"/>
<stop offset="0.0920726" stop-color="#3AAEC0"/>
<stop offset="0.173" stop-color="#3484A9"/>
<stop offset="0.2573" stop-color="#2F6195"/>
<stop offset="0.3458" stop-color="#2B4486"/>
<stop offset="0.44" stop-color="#282E79"/>
<stop offset="0.5425" stop-color="#261E71"/>
<stop offset="0.6594" stop-color="#24156C"/>
<stop offset="0.8226" stop-color="#24126A"/>
</linearGradient>
<linearGradient id="paint8_linear" x1="210.397" y1="62.0743" x2="447.252" y2="62.0743" gradientUnits="userSpaceOnUse">
<stop stop-color="#2B237C"/>
<stop offset="1" stop-color="#180D5B"/>
</linearGradient>
<linearGradient id="paint9_linear" x1="241.791" y1="101.652" x2="402.245" y2="101.652" gradientUnits="userSpaceOnUse">
<stop stop-color="#2B237C"/>
<stop offset="1" stop-color="#180D5B"/>
</linearGradient>
<linearGradient id="paint10_linear" x1="262.292" y1="61.8825" x2="262.858" y2="71.4447" gradientUnits="userSpaceOnUse">
<stop stop-color="#42E8E0"/>
<stop offset="0.0157138" stop-color="#40DDDA"/>
<stop offset="0.0920726" stop-color="#3AAEC0"/>
<stop offset="0.173" stop-color="#3484A9"/>
<stop offset="0.2573" stop-color="#2F6195"/>
<stop offset="0.3458" stop-color="#2B4486"/>
<stop offset="0.44" stop-color="#282E79"/>
<stop offset="0.5425" stop-color="#261E71"/>
<stop offset="0.6594" stop-color="#24156C"/>
<stop offset="0.8226" stop-color="#24126A"/>
</linearGradient>
<linearGradient id="paint11_linear" x1="280.569" y1="51.3432" x2="281.135" y2="60.9054" gradientUnits="userSpaceOnUse">
<stop stop-color="#42E8E0"/>
<stop offset="0.0157138" stop-color="#40DDDA"/>
<stop offset="0.0920726" stop-color="#3AAEC0"/>
<stop offset="0.173" stop-color="#3484A9"/>
<stop offset="0.2573" stop-color="#2F6195"/>
<stop offset="0.3458" stop-color="#2B4486"/>
<stop offset="0.44" stop-color="#282E79"/>
<stop offset="0.5425" stop-color="#261E71"/>
<stop offset="0.6594" stop-color="#24156C"/>
<stop offset="0.8226" stop-color="#24126A"/>
</linearGradient>
<linearGradient id="paint12_linear" x1="346.692" y1="65.4909" x2="347.365" y2="76.8757" gradientUnits="userSpaceOnUse">
<stop stop-color="#2B237C"/>
<stop offset="1" stop-color="#180D5B"/>
</linearGradient>
<linearGradient id="paint13_linear" x1="394.301" y1="98.5923" x2="405.571" y2="100.954" gradientUnits="userSpaceOnUse">
<stop stop-color="#2B237C"/>
<stop offset="1" stop-color="#180D5B"/>
</linearGradient>
<linearGradient id="paint14_linear" x1="248.613" y1="76.0441" x2="779.323" y2="187.249" gradientUnits="userSpaceOnUse">
<stop stop-color="#42E8E0"/>
<stop offset="0.0157138" stop-color="#40DDDA"/>
<stop offset="0.0920726" stop-color="#3AAEC0"/>
<stop offset="0.173" stop-color="#3484A9"/>
<stop offset="0.2573" stop-color="#2F6195"/>
<stop offset="0.3458" stop-color="#2B4486"/>
<stop offset="0.44" stop-color="#282E79"/>
<stop offset="0.5425" stop-color="#261E71"/>
<stop offset="0.6594" stop-color="#24156C"/>
<stop offset="0.8226" stop-color="#24126A"/>
</linearGradient>
<linearGradient id="paint15_linear" x1="391.412" y1="118.419" x2="405.348" y2="121.339" gradientUnits="userSpaceOnUse">
<stop stop-color="#2B237C"/>
<stop offset="1" stop-color="#180D5B"/>
</linearGradient>
<linearGradient id="paint16_linear" x1="373.163" y1="128.957" x2="387.098" y2="131.877" gradientUnits="userSpaceOnUse">
<stop stop-color="#2B237C"/>
<stop offset="1" stop-color="#180D5B"/>
</linearGradient>
<linearGradient id="paint17_linear" x1="330.826" y1="138.948" x2="347.977" y2="142.542" gradientUnits="userSpaceOnUse">
<stop stop-color="#2B237C"/>
<stop offset="1" stop-color="#180D5B"/>
</linearGradient>
<linearGradient id="paint18_linear" x1="246.638" y1="77.4562" x2="247.918" y2="99.0796" gradientUnits="userSpaceOnUse">
<stop stop-color="#42E8E0"/>
<stop offset="0.0157138" stop-color="#40DDDA"/>
<stop offset="0.0920726" stop-color="#3AAEC0"/>
<stop offset="0.173" stop-color="#3484A9"/>
<stop offset="0.2573" stop-color="#2F6195"/>
<stop offset="0.3458" stop-color="#2B4486"/>
<stop offset="0.44" stop-color="#282E79"/>
<stop offset="0.5425" stop-color="#261E71"/>
<stop offset="0.6594" stop-color="#24156C"/>
<stop offset="0.8226" stop-color="#24126A"/>
</linearGradient>
<linearGradient id="paint19_linear" x1="258.442" y1="77.3001" x2="259.684" y2="98.2997" gradientUnits="userSpaceOnUse">
<stop stop-color="#2B237C"/>
<stop offset="1" stop-color="#180D5B"/>
</linearGradient>
<linearGradient id="paint20_linear" x1="302.6" y1="67.5129" x2="306.981" y2="141.538" gradientUnits="userSpaceOnUse">
<stop stop-color="#42E8E0"/>
<stop offset="0.0157138" stop-color="#40DDDA"/>
<stop offset="0.0920726" stop-color="#3AAEC0"/>
<stop offset="0.173" stop-color="#3484A9"/>
<stop offset="0.2573" stop-color="#2F6195"/>
<stop offset="0.3458" stop-color="#2B4486"/>
<stop offset="0.44" stop-color="#282E79"/>
<stop offset="0.5425" stop-color="#261E71"/>
<stop offset="0.6594" stop-color="#24156C"/>
<stop offset="0.8226" stop-color="#24126A"/>
</linearGradient>
</defs>
</svg>
