<svg width="300" height="300" viewBox="0 0 300 300" fill="none" xmlns="http://www.w3.org/2000/svg">
<g clip-path="url(#clip0)">
<rect width="300" height="300" fill="none"/>
<path d="M116.098 50.2683C110.885 50.2683 108.229 47.8379 105.886 45.6936C103.771 43.757 102.099 42.2274 98.5284 42.2274C94.9573 42.2274 93.286 43.7571 91.1702 45.6932C88.8275 47.8379 86.172 50.2683 80.9581 50.2683C75.7443 50.2683 73.0892 47.8379 70.7461 45.6932C68.6306 43.7571 66.9597 42.2274 63.3886 42.2274C59.8179 42.2274 58.147 43.7571 56.0315 45.6932C53.6888 47.8379 51.0333 50.2683 45.8195 50.2683C40.6063 50.2683 37.9515 47.8379 35.6088 45.6932C33.4937 43.7571 31.8228 42.2274 28.2524 42.2274C24.6816 42.2274 23.0108 43.7571 20.8953 45.6932C18.5526 47.8379 15.8971 50.2683 10.6836 50.2683C5.46976 50.2683 2.81424 47.8379 0.471189 45.6932C-1.64428 43.7571 -3.31553 42.2274 -6.88629 42.2274C-8.05341 42.2274 -9 41.2808 -9 40.1137C-9 38.9462 -8.05341 38 -6.88629 38C-1.67282 38 0.982706 40.4304 3.32576 42.5748C5.44123 44.5113 7.11247 46.0409 10.6836 46.0409C14.2543 46.0409 15.9252 44.5113 18.0407 42.5748C20.3834 40.4304 23.0389 38 28.2524 38C33.4655 38 36.1207 40.4304 38.4634 42.5751C40.5785 44.5113 42.249 46.0409 45.8195 46.0409C49.3906 46.0409 51.0615 44.5113 53.1769 42.5748C55.5196 40.4304 58.1752 38 63.3886 38C68.6024 38 71.2576 40.4304 73.6007 42.5748C75.7161 44.5113 77.3874 46.0409 80.9581 46.0409C84.5296 46.0409 86.2005 44.5113 88.316 42.5748C90.659 40.4304 93.3145 38 98.5284 38C103.742 38 106.398 40.4304 108.741 42.5748C110.856 44.5113 112.527 46.0409 116.098 46.0409C119.67 46.0409 121.341 44.5113 123.457 42.5748C125.801 40.4304 128.456 38 133.671 38C134.838 38 135.784 38.9462 135.784 40.1137C135.784 41.2808 134.838 42.2274 133.671 42.2274C130.099 42.2274 128.428 43.757 126.311 45.6936C123.968 47.8379 121.313 50.2683 116.098 50.2683Z" fill="white"/>
<path d="M116.098 68.5872C110.885 68.5872 108.229 66.1568 105.886 64.0124C103.771 62.0759 102.099 60.5463 98.5284 60.5463C94.9573 60.5463 93.286 62.0759 91.1702 64.0121C88.8275 66.1568 86.172 68.5872 80.9581 68.5872C75.7443 68.5872 73.0892 66.1568 70.7461 64.0121C68.6306 62.0759 66.9597 60.5463 63.3886 60.5463C59.8179 60.5463 58.147 62.0759 56.0315 64.0121C53.6888 66.1568 51.0333 68.5872 45.8195 68.5872C40.6063 68.5872 37.9515 66.1568 35.6088 64.0121C33.4937 62.0759 31.8228 60.5463 28.2524 60.5463C24.6816 60.5463 23.0108 62.0759 20.8953 64.0121C18.5526 66.1568 15.8971 68.5872 10.6836 68.5872C5.46976 68.5872 2.81424 66.1568 0.471189 64.0121C-1.64428 62.0759 -3.31553 60.5463 -6.88629 60.5463C-8.05341 60.5463 -9 59.5997 -9 58.4326C-9 57.2651 -8.05341 56.3188 -6.88629 56.3188C-1.67282 56.3188 0.982706 58.7493 3.32576 60.8936C5.44123 62.8301 7.11247 64.3598 10.6836 64.3598C14.2543 64.3598 15.9252 62.8301 18.0407 60.8936C20.3834 58.7493 23.0389 56.3188 28.2524 56.3188C33.4655 56.3188 36.1207 58.7493 38.4634 60.894C40.5785 62.8301 42.249 64.3598 45.8195 64.3598C49.3906 64.3598 51.0615 62.8301 53.1769 60.8936C55.5196 58.7493 58.1752 56.3188 63.3886 56.3188C68.6024 56.3188 71.2576 58.7493 73.6007 60.8936C75.7161 62.8301 77.3874 64.3598 80.9581 64.3598C84.5296 64.3598 86.2005 62.8301 88.316 60.8936C90.659 58.7493 93.3145 56.3188 98.5284 56.3188C103.742 56.3188 106.398 58.7493 108.741 60.8936C110.856 62.8301 112.527 64.3598 116.098 64.3598C119.67 64.3598 121.341 62.8301 123.457 60.8936C125.801 58.7493 128.456 56.3188 133.671 56.3188C134.838 56.3188 135.784 57.2651 135.784 58.4326C135.784 59.5997 134.838 60.5463 133.671 60.5463C130.099 60.5463 128.428 62.0759 126.311 64.0124C123.968 66.1568 121.313 68.5872 116.098 68.5872Z" fill="white"/>
<path d="M116.098 86.906C110.885 86.906 108.229 84.4756 105.886 82.3312C103.771 80.3947 102.099 78.8651 98.5284 78.8651C94.9573 78.8651 93.286 80.3947 91.1702 82.3309C88.8275 84.4756 86.172 86.906 80.9581 86.906C75.7443 86.906 73.0892 84.4756 70.7461 82.3309C68.6306 80.3947 66.9597 78.8651 63.3886 78.8651C59.8179 78.8651 58.147 80.3947 56.0315 82.3309C53.6888 84.4756 51.0333 86.906 45.8195 86.906C40.6063 86.906 37.9515 84.4756 35.6088 82.3309C33.4937 80.3947 31.8228 78.8651 28.2524 78.8651C24.6816 78.8651 23.0108 80.3947 20.8953 82.3309C18.5526 84.4756 15.8971 86.906 10.6836 86.906C5.46976 86.906 2.81424 84.4756 0.471189 82.3309C-1.64428 80.3947 -3.31553 78.8651 -6.88629 78.8651C-8.05341 78.8651 -9 77.9185 -9 76.7514C-9 75.5836 -8.05341 74.6377 -6.88629 74.6377C-1.67282 74.6377 0.982706 77.0681 3.32576 79.2124C5.44123 81.149 7.11247 82.6786 10.6836 82.6786C14.2543 82.6786 15.9252 81.149 18.0407 79.2124C20.3834 77.0681 23.0389 74.6377 28.2524 74.6377C33.4655 74.6377 36.1207 77.0681 38.4634 79.2128C40.5785 81.149 42.249 82.6786 45.8195 82.6786C49.3906 82.6786 51.0615 81.149 53.1769 79.2124C55.5196 77.0681 58.1752 74.6377 63.3886 74.6377C68.6024 74.6377 71.2576 77.0681 73.6007 79.2124C75.7161 81.149 77.3874 82.6786 80.9581 82.6786C84.5296 82.6786 86.2005 81.149 88.316 79.2124C90.659 77.0681 93.3145 74.6377 98.5284 74.6377C103.742 74.6377 106.398 77.0681 108.741 79.2124C110.856 81.149 112.527 82.6786 116.098 82.6786C119.67 82.6786 121.341 81.149 123.457 79.2124C125.801 77.0681 128.456 74.6377 133.671 74.6377C134.838 74.6377 135.784 75.5836 135.784 76.7514C135.784 77.9185 134.838 78.8651 133.671 78.8651C130.099 78.8651 128.428 80.3947 126.311 82.3312C123.968 84.4756 121.313 86.906 116.098 86.906Z" fill="white"/>
<path d="M65 234L75 251.32L92.3205 241.32L82.3205 224L65 234ZM89.1331 240.466L75.8541 248.133L68.1874 234.854L81.4664 227.187L89.1331 240.466Z" fill="#FCBE0A"/>
<path d="M56 231L66 248.32L83.3205 238.32L73.3205 221L56 231ZM80.1331 237.466L66.8541 245.133L59.1874 231.854L72.4664 224.187L80.1331 237.466Z" fill="white"/>
</g>
<defs>
<clipPath id="clip0">
<rect width="300" height="300" fill="white"/>
</clipPath>
</defs>
</svg>
