<svg width="300" height="300" viewBox="0 0 300 300" fill="none" xmlns="http://www.w3.org/2000/svg">
<rect width="300" height="300" fill="none"/>
<path d="M70.24 39.2467C68.2851 39.9018 66.5165 41.8861 66.1069 43.8889C65.3063 47.7449 69.1415 51.6009 72.9767 50.796C75.8625 50.197 78.0966 47.2395 77.8173 44.4505C77.6125 42.485 76.1418 40.4634 74.28 39.5462C73.1443 39.0033 71.3943 38.8723 70.24 39.2467Z" fill="#FCBE0A"/>
<path d="M117.901 39.2467C115.946 39.9019 114.177 41.886 113.768 43.8889C113.302 46.0789 114.363 48.4562 116.411 49.8601C118.403 51.2453 120.675 51.264 122.686 49.9163C125.981 47.7075 126.428 43.5894 123.672 40.8378C122.09 39.228 119.818 38.6103 117.901 39.2467Z" fill="#FCBE0A"/>
<path d="M165.562 39.2467C162.751 40.1826 160.852 43.2899 161.428 46.0228C161.894 48.2503 163.961 50.3281 166.176 50.796C169.769 51.5635 173.511 48.138 173.139 44.4505C172.934 42.485 171.464 40.4634 169.602 39.5462C168.466 39.0033 166.716 38.8723 165.562 39.2467Z" fill="#FCBE0A"/>
<path d="M213.223 39.2467C210.411 40.1826 208.513 43.2899 209.089 46.0228C209.555 48.2503 211.622 50.3281 213.837 50.796C217.43 51.5635 221.172 48.138 220.8 44.4505C220.595 42.485 219.125 40.4634 217.263 39.5462C216.127 39.0033 214.377 38.8723 213.223 39.2467Z" fill="#FCBE0A"/>
<path d="M260.884 39.2467C258.929 39.9018 257.16 41.8861 256.75 43.8889C255.95 47.7449 259.785 51.6009 263.621 50.796C266.506 50.197 268.74 47.2395 268.461 44.4505C268.256 42.485 266.785 40.4634 264.923 39.5462C263.787 39.0033 262.038 38.8723 260.884 39.2467Z" fill="#FCBE0A"/>
<path d="M70.24 87.1664C68.2851 87.8208 66.5165 89.8056 66.1069 91.8082C65.3063 95.6639 69.1415 99.5204 72.9767 98.7151C75.8625 98.1161 78.0966 95.1588 77.8173 92.3695C77.6125 90.4046 76.1418 88.3828 74.28 87.4659C73.1443 86.9223 71.3943 86.7914 70.24 87.1664Z" fill="#FCBE0A"/>
<path d="M117.901 87.1664C115.946 87.8208 114.177 89.8056 113.768 91.8082C113.302 93.9986 114.363 96.3753 116.411 97.7796C118.403 99.1647 120.675 99.1832 122.686 97.8358C125.981 95.627 126.428 91.5087 123.672 88.757C122.09 87.1472 119.818 86.5297 117.901 87.1664Z" fill="#FCBE0A"/>
<path d="M165.562 87.1664C163.607 87.8208 161.838 89.8056 161.428 91.8082C160.628 95.6639 164.463 99.5204 168.299 98.7151C171.184 98.1161 173.419 95.1588 173.139 92.3695C172.934 90.4046 171.464 88.3828 169.602 87.4659C168.466 86.9223 166.716 86.7914 165.562 87.1664Z" fill="#FCBE0A"/>
<path d="M213.223 87.1664C211.268 87.8208 209.499 89.8056 209.089 91.8082C208.289 95.6639 212.124 99.5204 215.96 98.7151C218.845 98.1161 221.079 95.1588 220.8 92.3695C220.595 90.4046 219.125 88.3828 217.262 87.4659C216.127 86.9223 214.377 86.7914 213.223 87.1664Z" fill="#FCBE0A"/>
<path d="M260.884 87.1664C258.929 87.8208 257.16 89.8056 256.75 91.8082C255.95 95.6639 259.785 99.5204 263.621 98.7151C266.506 98.1161 268.74 95.1588 268.461 92.3695C268.256 90.4046 266.785 88.3828 264.923 87.4659C263.787 86.9223 262.038 86.7914 260.884 87.1664Z" fill="#FCBE0A"/>
<path d="M225.021 272L241.043 299.75H209L225.021 272Z" fill="#FCBE0A"/>
<path d="M239.543 267L258.595 300H220.49L239.543 267Z" fill="#007BFF"/>
</svg>
