<svg width="170" height="170" viewBox="0 0 170 170" fill="none" xmlns="http://www.w3.org/2000/svg">
<path d="M85.1219 135.482C72.8532 135.482 62.9075 131.524 62.9075 126.641V131.93C62.9075 136.891 72.9998 140.511 85.4602 140.511C97.9206 140.511 108.069 136.643 108.069 132.392L108.024 126.686C107.393 131.569 97.3906 135.482 85.1219 135.482Z" fill="#63A5ED"/>
<path d="M85.1219 125.728C72.8532 125.728 62.9075 121.77 62.9075 116.887V122.176C62.9075 127.137 72.9998 130.757 85.4602 130.757C97.9206 130.757 108.058 126.889 108.058 122.638L108.013 116.932C107.393 121.815 97.3906 125.728 85.1219 125.728Z" fill="#63A5ED"/>
<path d="M35.8104 97.7399V103.029C35.8104 107.765 45.0007 111.272 56.6717 111.587C56.7281 109.783 57.8332 108.069 59.7389 106.558C59.175 106.581 58.5999 106.581 58.0249 106.581C45.7562 106.592 35.8104 102.634 35.8104 97.7399Z" fill="#63A5ED"/>
<path d="M36.2163 107.505V112.794C36.2163 117.53 45.4065 120.36 57.0776 120.665V115.647C45.4404 115.376 36.2163 112.207 36.2163 107.505Z" fill="#63A5ED"/>
<path d="M63.1555 111.666C63.2457 106.75 73.3268 102.78 85.6857 102.826C98.0446 102.859 107.99 106.874 107.9 111.79C107.81 116.707 97.7288 120.676 85.3699 120.631C73.1351 120.597 63.2345 116.662 63.1555 111.79V111.666Z" fill="#63A5ED"/>
<path d="M35.8103 93.2745C35.8103 98.236 45.9027 101.856 58.3631 101.856C70.8234 101.856 80.9609 97.988 80.9609 93.7368L80.9158 88.0309C80.2843 92.9249 70.2822 96.8378 58.0135 96.8378C45.7448 96.8378 35.7991 92.8798 35.7991 87.9971L35.8103 93.2745Z" fill="#63A5ED"/>
<path d="M58.3631 92.0904C70.8234 92.0904 80.9609 88.2226 80.9609 83.9715L80.9158 78.2656C80.2843 83.1596 70.2822 87.0724 58.0135 87.0724C45.7448 87.0724 35.7991 83.1145 35.7991 78.2318V83.5204C35.8103 88.482 45.9027 92.0904 58.3631 92.0904Z" fill="#63A5ED"/>
<path d="M111.418 96.4431C99.1497 96.4431 89.204 92.4851 89.204 87.6024V92.8911C89.204 97.8527 99.2963 101.472 111.757 101.472C124.217 101.472 134.355 97.6046 134.355 93.3534L134.309 87.6476C133.678 92.5302 123.687 96.4431 111.418 96.4431Z" fill="#63A5ED"/>
<path d="M83.329 51.27V66.5946C83.329 68.038 84.5017 69.2107 85.9451 69.2107H95.7781C97.2214 69.2107 98.3942 68.038 98.3942 66.5946V51.27H109.501C110.528 50.2439 110.528 48.5863 109.501 47.5601L92.7222 30.7696C91.696 29.7435 90.0384 29.7435 89.0123 30.7696L72.2218 47.5601C71.1956 48.5863 71.1956 50.2439 72.2218 51.27H83.329Z" fill="#63A5ED"/>
<path d="M35.3142 74.567C35.4044 69.6505 45.4855 65.6812 57.8444 65.7151C70.2033 65.7489 80.149 69.7633 80.0588 74.6798C79.9686 79.5963 69.8875 83.5543 57.5286 83.5204C45.2938 83.4866 35.3931 79.5511 35.3142 74.6798V74.567V74.567Z" fill="#63A5ED"/>
<path d="M89.204 82.4717C89.2942 77.5552 99.3753 73.586 111.734 73.6198C124.093 73.6536 134.039 77.668 133.949 82.5845C133.858 87.501 123.777 91.459 111.418 91.4252C99.1836 91.3913 89.2829 87.4559 89.204 82.5845V82.4717Z" fill="#63A5ED"/>
<path d="M112.117 106.592C111.542 106.592 110.967 106.581 110.403 106.569C112.309 108.092 113.414 109.794 113.471 111.599C125.142 111.283 134.332 107.776 134.332 103.04V97.7512C134.332 102.634 124.386 106.592 112.117 106.592Z" fill="#63A5ED"/>
<path d="M113.121 115.647V120.665C124.792 120.349 133.982 117.519 133.982 112.794V107.505C133.982 112.207 124.758 115.376 113.121 115.647Z" fill="#63A5ED"/>
<path d="M112.097 92.2084C124.745 92.2084 135 87.9006 135 82.5871C135 77.2737 124.745 72.9658 112.097 72.9658C99.4481 72.9658 89.1934 77.2737 89.1934 82.5871C89.1934 87.9006 99.4481 92.2084 112.097 92.2084Z" fill="#45CD85"/>
<path d="M111.088 87.7678C115.891 87.7678 120.14 86.448 121.526 84.5163H117.785C116.63 85.6065 113.997 86.3142 111.088 86.3142C107.023 86.3142 103.744 84.9562 103.744 83.273C103.744 82.0681 105.453 80.9778 108.086 80.4997V78.9504C103.421 79.5242 100.234 81.2839 100.234 83.273C100.234 85.7404 105.13 87.7678 111.088 87.7678ZM117.508 82.0872V80.997C118.524 81.1309 118.893 81.2839 118.893 81.5134C118.893 81.7812 118.385 81.9916 117.508 82.0872ZM114.829 83.9616H117.6V83.3495C120.325 83.1583 122.08 82.4506 122.08 81.5134C122.08 80.2128 119.678 79.8685 117.508 79.6964V78.434C118.616 78.5105 119.771 78.6827 120.787 78.9313V77.5159C119.725 77.3438 118.662 77.2482 117.6 77.2099V76.617H114.829V77.2099C112.104 77.4012 110.395 78.0706 110.395 78.9887C110.395 80.2893 112.75 80.6718 114.921 80.8439V82.0872C113.674 81.9724 112.242 81.7429 110.487 81.3221V82.7757C111.965 83.1009 113.443 83.2922 114.829 83.3495V83.9616ZM114.921 79.5242C113.951 79.4095 113.582 79.2565 113.582 78.9887C113.582 78.7209 114.044 78.5296 114.921 78.4531V79.5242Z" fill="#35C071"/>
<path d="M111.088 87.5705C115.611 87.5705 119.441 86.3669 120.872 84.7048H118.057C116.811 85.7747 114.134 86.5007 111.088 86.5007C106.796 86.5007 103.288 85.0487 103.288 83.2719C103.288 82.011 105.042 80.9029 107.627 80.3871V79.2217C103.611 79.8139 100.704 81.3996 100.704 83.2719C100.704 85.6409 105.365 87.5705 111.088 87.5705ZM117.041 82.3167V80.7501C118.334 80.8838 119.349 81.0557 119.349 81.5143C119.349 81.9346 118.472 82.2402 117.041 82.3167ZM115.288 83.7686H117.134V83.1764C119.857 83.0426 121.61 82.3931 121.61 81.5143C121.61 80.2915 119.257 80.0241 117.041 79.8521V78.2282C118.103 78.2664 119.257 78.4001 120.318 78.6103V77.6551C119.303 77.5022 118.195 77.4067 117.134 77.3876V76.8144H115.288V77.3876C112.472 77.5213 110.857 78.1709 110.857 78.9924C110.857 80.2342 113.165 80.5208 115.38 80.6927V82.3167C114.042 82.2402 112.611 82.011 110.949 81.648V82.6606C112.38 82.9471 113.857 83.1382 115.288 83.1764V83.7686ZM115.38 79.7757C114.088 79.6611 113.119 79.47 113.119 78.9924C113.119 78.553 113.949 78.2855 115.38 78.2282V79.7757Z" fill="#F9F9F9"/>
<path d="M85.6781 120.483C98.5436 120.483 108.974 116.527 108.974 111.647C108.974 106.768 98.5436 102.811 85.6781 102.811C72.8126 102.811 62.3821 106.768 62.3821 111.647C62.3821 116.527 72.8126 120.483 85.6781 120.483Z" fill="#45CD85"/>
<path d="M84.6519 116.405C89.5377 116.405 93.8597 115.193 95.269 113.419H91.4638C90.2893 114.42 87.6115 115.07 84.6519 115.07C80.5178 115.07 77.1823 113.823 77.1823 112.277C77.1823 111.171 78.9205 110.169 81.5983 109.73V108.307C76.8535 108.834 73.6119 110.45 73.6119 112.277C73.6119 114.543 78.5917 116.405 84.6519 116.405ZM91.1819 111.188V110.187C92.2155 110.31 92.5913 110.45 92.5913 110.661C92.5913 110.907 92.0745 111.1 91.1819 111.188ZM88.4572 112.91H91.2759V112.347C94.0476 112.172 95.8328 111.522 95.8328 110.661C95.8328 109.467 93.3899 109.151 91.1819 108.993V107.833C92.3094 107.903 93.4839 108.062 94.5174 108.29V106.99C93.4369 106.832 92.3564 106.744 91.2759 106.709V106.165H88.4572V106.709C85.6854 106.885 83.9472 107.499 83.9472 108.343C83.9472 109.537 86.3431 109.888 88.5511 110.046V111.188C87.2827 111.083 85.8264 110.872 84.0412 110.486V111.821C85.5445 112.119 87.0478 112.295 88.4572 112.347V112.91ZM88.5511 108.834C87.5646 108.729 87.1887 108.589 87.1887 108.343C87.1887 108.097 87.6585 107.921 88.5511 107.851V108.834Z" fill="#35C071"/>
<path d="M84.652 116.224C89.2524 116.224 93.1486 115.119 94.6039 113.592H91.7404C90.4729 114.575 87.7502 115.241 84.652 115.241C80.2863 115.241 76.7187 113.908 76.7187 112.276C76.7187 111.118 78.5025 110.101 81.1313 109.627V108.557C77.0473 109.1 74.0898 110.557 74.0898 112.276C74.0898 114.452 78.8311 116.224 84.652 116.224ZM90.7076 111.399V109.96C92.022 110.083 93.0548 110.241 93.0548 110.662C93.0548 111.048 92.1628 111.329 90.7076 111.399ZM88.9238 112.732H90.8015V112.188C93.5711 112.066 95.355 111.469 95.355 110.662C95.355 109.539 92.9609 109.293 90.7076 109.136V107.644C91.7873 107.679 92.9609 107.802 94.0406 107.995V107.118C93.0078 106.977 91.8812 106.89 90.8015 106.872V106.346H88.9238V106.872C86.0603 106.995 84.4173 107.592 84.4173 108.346C84.4173 109.486 86.7644 109.75 89.0177 109.908V111.399C87.6563 111.329 86.2011 111.118 84.5112 110.785V111.715C85.9664 111.978 87.4686 112.153 88.9238 112.188V112.732ZM89.0177 109.065C87.7033 108.96 86.7175 108.785 86.7175 108.346C86.7175 107.942 87.5625 107.697 89.0177 107.644V109.065Z" fill="#F9F9F9"/>
<path d="M57.9033 84.3543C70.552 84.3543 80.8067 80.0465 80.8067 74.733C80.8067 69.4196 70.552 65.1117 57.9033 65.1117C45.2547 65.1117 35 69.4196 35 74.733C35 80.0465 45.2547 84.3543 57.9033 84.3543Z" fill="#45CD85"/>
<path d="M56.8944 79.9137C61.6978 79.9137 65.947 78.594 67.3326 76.6622H63.5915C62.4368 77.7524 59.8041 78.4601 56.8944 78.4601C52.83 78.4601 49.5507 77.1021 49.5507 75.419C49.5507 74.214 51.2596 73.1238 53.8923 72.6456V71.0963C49.2274 71.6701 46.0405 73.4298 46.0405 75.419C46.0405 77.8863 50.9363 79.9137 56.8944 79.9137ZM63.3143 74.2331V73.1429C64.3304 73.2768 64.6999 73.4298 64.6999 73.6593C64.6999 73.9271 64.1919 74.1375 63.3143 74.2331ZM60.6355 76.1075H63.4067V75.4955C66.1317 75.3042 67.8868 74.5965 67.8868 73.6593C67.8868 72.3587 65.4851 72.0144 63.3143 71.8423V70.5799C64.4228 70.6564 65.5775 70.8286 66.5936 71.0772V69.6618C65.5313 69.4897 64.469 69.3941 63.4067 69.3558V68.7629H60.6355V69.3558C57.9105 69.5471 56.2016 70.2165 56.2016 71.1346C56.2016 72.4352 58.5571 72.8177 60.7279 72.9899V74.2331C59.4808 74.1184 58.0491 73.8888 56.294 73.4681V74.9217C57.7719 75.2468 59.2499 75.4381 60.6355 75.4955V76.1075ZM60.7279 71.6701C59.7579 71.5554 59.3885 71.4024 59.3885 71.1346C59.3885 70.8668 59.8503 70.6756 60.7279 70.5991V71.6701Z" fill="#35C071"/>
<path d="M56.8945 79.7165C61.4173 79.7165 65.2479 78.5128 66.6786 76.8507H63.8634C62.6173 77.9206 59.9405 78.6466 56.8945 78.6466C52.6024 78.6466 49.0949 77.1946 49.0949 75.4178C49.0949 74.1569 50.8486 73.0488 53.4331 72.533V71.3676C49.4179 71.9598 46.5104 73.5455 46.5104 75.4178C46.5104 77.7868 51.1717 79.7165 56.8945 79.7165ZM62.848 74.4626V72.896C64.1402 73.0297 65.1556 73.2017 65.1556 73.6602C65.1556 74.0805 64.2787 74.3862 62.848 74.4626ZM61.0943 75.9146H62.9403V75.3223C65.6633 75.1886 67.417 74.539 67.417 73.6602C67.417 72.4375 65.0633 72.17 62.848 71.998V70.3741C63.9095 70.4123 65.0633 70.5461 66.1248 70.7562V69.801C65.1094 69.6481 64.0018 69.5526 62.9403 69.5335V68.9604H61.0943V69.5335C58.279 69.6672 56.6637 70.3168 56.6637 71.1383C56.6637 72.3802 58.9713 72.6667 61.1866 72.8387V74.4626C59.8482 74.3862 58.4175 74.1569 56.756 73.7939V74.8065C58.1867 75.0931 59.6636 75.2841 61.0943 75.3223V75.9146ZM61.1866 71.9216C59.8943 71.807 58.9252 71.616 58.9252 71.1383C58.9252 70.6989 59.7559 70.4314 61.1866 70.3741V71.9216Z" fill="#F9F9F9"/>
</svg>
