<svg width="170" height="170" viewBox="0 0 170 170" fill="none" xmlns="http://www.w3.org/2000/svg">
<path d="M85.4523 126.465C107.24 126.465 124.905 108.801 124.905 87.0126C124.905 65.2247 107.24 47.5603 85.4523 47.5603C63.6643 47.5603 46 65.2247 46 87.0126C46 108.801 63.6643 126.465 85.4523 126.465Z" fill="#45CD85"/>
<path d="M83.7157 108.273C91.9898 108.273 99.3092 102.862 101.696 94.9403H95.2517C93.2628 99.4107 88.7279 102.313 83.7157 102.313C76.7145 102.313 71.0658 96.7441 71.0658 89.8424C71.0658 84.9013 74.0095 80.4309 78.5443 78.4702V72.1174C70.5089 74.4703 65.0193 81.6857 65.0193 89.8424C65.0193 99.9597 73.4525 108.273 83.7157 108.273ZM94.7744 84.9798V80.5093C96.5247 81.0583 97.1612 81.6858 97.1612 82.6269C97.1612 83.7249 96.286 84.5876 94.7744 84.9798ZM90.16 92.6658H94.9335V90.1561C99.6274 89.3718 102.651 86.4699 102.651 82.6269C102.651 77.2937 98.5136 75.882 94.7744 75.1761V69.9998C96.6838 70.3135 98.6728 71.0194 100.423 72.039V66.2352C98.5932 65.5293 96.7633 65.1372 94.9335 64.9803V62.549H90.16V64.9803C85.466 65.7646 82.5223 68.5097 82.5223 72.2743C82.5223 77.6075 86.5798 79.176 90.319 79.8819V84.9798C88.1709 84.5092 85.7046 83.5681 82.6814 81.8426V87.8032C85.2273 89.1365 87.7732 89.9208 90.16 90.1561V92.6658ZM90.319 74.4703C88.6483 73.9997 88.0119 73.3723 88.0119 72.2743C88.0119 71.1763 88.8074 70.3919 90.319 70.0782V74.4703Z" fill="#35C071"/>
<path d="M83.7126 107.461C91.5035 107.461 98.1019 102.525 100.566 95.7097H95.7169C93.5705 100.097 88.9595 103.074 83.7126 103.074C76.3193 103.074 70.2774 97.1199 70.2774 89.8342C70.2774 84.6637 73.2983 80.12 77.7503 78.0048V73.2261C70.8339 75.6546 65.8254 82.1569 65.8254 89.8342C65.8254 99.5484 73.8548 107.461 83.7126 107.461ZM93.9679 85.9172V79.4933C96.1939 80.0417 97.9429 80.7467 97.9429 82.6269C97.9429 84.3504 96.4324 85.6038 93.9679 85.9172ZM90.947 91.8711H94.1269V89.4425C98.8173 88.8941 101.838 86.2306 101.838 82.6269C101.838 77.6131 97.7838 76.5163 93.9679 75.8113V69.1524C95.7964 69.3091 97.7839 69.8574 99.6123 70.7192V66.8022C97.8634 66.1754 95.9554 65.7837 94.1269 65.7054V63.3552H90.947V65.7054C86.0976 66.2538 83.3151 68.9174 83.3151 72.286C83.3151 77.3781 87.2901 78.5532 91.106 79.2583V85.9172C88.8005 85.6038 86.3361 84.6637 83.4741 83.1753V87.3273C85.9386 88.5024 88.4825 89.2858 90.947 89.4425V91.8711ZM91.106 75.4979C88.88 75.0279 87.2106 74.2445 87.2106 72.286C87.2106 70.4842 88.6416 69.3874 91.106 69.1524V75.4979Z" fill="#F9F9F9"/>
<path d="M47.5503 103.877C48.259 103.473 49.0995 103.366 49.8868 103.581C50.6742 103.795 51.3441 104.313 51.7492 105.02C57.4134 114.914 66.6443 115.767 74.7342 115.767L92.9499 115.767L83.8379 106.668C83.5441 106.384 83.3097 106.045 83.1486 105.67C82.9874 105.295 82.9027 104.891 82.8993 104.483C82.896 104.075 82.974 103.67 83.129 103.293C83.284 102.915 83.5127 102.572 83.8019 102.283C84.091 101.995 84.4348 101.767 84.8132 101.612C85.1916 101.458 85.597 101.38 86.0058 101.384C86.4145 101.388 86.8184 101.473 87.1939 101.634C87.5694 101.795 87.909 102.03 88.1928 102.323L102.558 116.668C103.135 117.245 103.459 118.026 103.459 118.841C103.459 119.655 103.135 120.437 102.558 121.013L88.1928 135.358C87.6092 135.901 86.8374 136.196 86.0399 136.182C85.2424 136.168 84.4815 135.846 83.9175 135.283C83.3535 134.719 83.0304 133.96 83.0163 133.163C83.0023 132.367 83.2983 131.596 83.842 131.013L92.954 121.915L74.7301 121.915C66.4022 121.915 53.8794 121.128 46.4052 108.07C46.0005 107.362 45.8937 106.523 46.1085 105.736C46.3232 104.95 46.8418 104.281 47.5503 103.877V103.877Z" fill="#63A5ED"/>
<path d="M117.29 65.3061C116.581 65.7102 115.741 65.8168 114.953 65.6024C114.166 65.3879 113.496 64.87 113.091 64.1626C107.427 54.2686 98.1959 53.4161 90.106 53.4161L71.8903 53.4161L81.0023 62.515C81.2961 62.7987 81.5305 63.138 81.6917 63.5131C81.8528 63.8882 81.9375 64.2916 81.9409 64.6997C81.9442 65.1079 81.8662 65.5126 81.7112 65.8903C81.5562 66.268 81.3275 66.6111 81.0383 66.8996C80.7492 67.1881 80.4054 67.4162 80.027 67.5705C79.6486 67.7249 79.2432 67.8025 78.8345 67.7988C78.4257 67.795 78.0218 67.71 77.6463 67.5488C77.2708 67.3875 76.9313 67.1532 76.6474 66.8594L62.2818 52.5144C61.7053 51.9381 61.3815 51.1568 61.3815 50.3422C61.3815 49.5276 61.7053 48.7463 62.2818 48.17L76.6474 33.825C77.231 33.282 78.0028 32.9864 78.8003 33.0005C79.5978 33.0145 80.3587 33.3371 80.9227 33.9003C81.4867 34.4635 81.8098 35.2233 81.8239 36.0197C81.838 36.816 81.5419 37.5867 80.9982 38.1695L71.8862 47.2683L90.1101 47.2683C98.4381 47.2683 110.961 48.0552 118.435 61.1132C118.84 61.8209 118.946 62.6602 118.732 63.4464C118.517 64.2326 117.998 64.9016 117.29 65.3061V65.3061Z" fill="#63A5ED"/>
</svg>
