<svg width="170" height="170" viewBox="0 0 170 170" fill="none" xmlns="http://www.w3.org/2000/svg">
<path d="M62.3163 89.0002C62.3163 98.8835 62.3163 108.767 62.3163 118.65C62.3163 118.966 62.3163 119.294 62.2911 119.609C62.127 121.301 61.1298 122.285 59.5394 122.285C55.3741 122.298 51.2087 122.285 47.0433 122.285C45.7811 122.285 44.5062 122.21 43.244 122.298C40.6943 122.487 39.5583 121.01 39.7098 118.562C39.7981 117.11 39.7224 115.659 39.7224 114.194C39.7224 95.8036 39.7476 77.4255 39.6971 59.0348C39.6971 56.6996 41.0351 55.551 42.9032 55.5763C48.2929 55.6394 53.67 55.6015 59.0598 55.6015C61.3697 55.6015 62.3163 56.6239 62.3163 59.1231C62.3163 69.0821 62.3163 79.0412 62.3163 89.0002Z" fill="#63A5ED"/>
<path d="M84.6957 129.278C103.654 129.278 122.613 129.278 141.585 129.265C143.137 129.265 144.488 129.606 145.523 130.843C147.643 133.393 146.267 137.281 143.011 137.899C142.582 137.975 142.14 138 141.711 138C103.692 138 65.6865 138 27.6681 138C25.03 138 23.225 136.548 22.8842 134.175C22.5434 131.79 24.3736 129.505 26.7845 129.316C27.2136 129.278 27.6554 129.265 28.0972 129.265C46.955 129.278 65.8253 129.278 84.6957 129.278Z" fill="#63A5ED"/>
<path d="M95.6519 97.1542C95.6519 104.336 95.6141 111.518 95.6772 118.713C95.7024 120.821 94.6548 122.361 92.4206 122.323C86.993 122.235 81.5654 122.298 76.1252 122.298C74.0804 122.298 73.058 121.174 73.058 118.915C73.058 104.362 73.058 89.8206 73.058 75.2671C73.058 73.0834 74.0804 71.9348 76.0242 71.9348C81.5654 71.9222 87.1193 71.9348 92.6605 71.9348C94.6548 71.9348 95.6519 73.0582 95.6519 75.3176C95.6519 82.5754 95.6519 89.8585 95.6519 97.1542Z" fill="#63A5ED"/>
<path d="M48.2928 30.9248C50.9011 31.9067 114.169 56.4219 114.169 56.4219L118.789 46.4755C118.789 46.4755 121.363 42.8403 123.762 47.0309L131.891 65.1313C131.891 65.1313 134.15 68.451 131.07 69.1579L111.96 78.4605C111.96 78.4605 106.406 78.8013 107.201 75.5448L111.102 64.942C111.102 64.942 45.5088 39.0795 44.1148 38.5613C42.7209 38.0432 45.6845 29.9429 48.2928 30.9248Z" fill="#63A5ED"/>
<path d="M114.723 117.632C118.069 117.632 121.028 115.444 121.993 112.241H119.388C118.584 114.049 116.75 115.222 114.723 115.222C111.893 115.222 109.609 112.971 109.609 110.18C109.609 108.182 110.799 106.375 112.633 105.582V103.013C109.384 103.965 107.164 106.882 107.164 110.18C107.164 114.271 110.574 117.632 114.723 117.632ZM119.195 108.214V106.406C119.903 106.628 120.16 106.882 120.16 107.263C120.16 107.707 119.806 108.055 119.195 108.214ZM117.329 111.322H119.259V110.307C121.157 109.99 122.38 108.816 122.38 107.263C122.38 105.106 120.707 104.535 119.195 104.25V102.157C119.967 102.284 120.771 102.569 121.479 102.982V100.635C120.739 100.349 119.999 100.191 119.259 100.128V99.1445H117.329V100.128C115.431 100.445 114.241 101.555 114.241 103.077C114.241 105.233 115.882 105.867 117.393 106.153V108.214C116.525 108.024 115.528 107.643 114.305 106.945V109.356C115.335 109.895 116.364 110.212 117.329 110.307V111.322ZM117.393 103.965C116.718 103.774 116.461 103.521 116.461 103.077C116.461 102.633 116.782 102.316 117.393 102.189V103.965Z" fill="white"/>
<path d="M114.724 117.305C117.874 117.305 120.542 115.309 121.538 112.554H119.577C118.709 114.327 116.845 115.531 114.724 115.531C111.734 115.531 109.291 113.124 109.291 110.178C109.291 108.087 110.513 106.25 112.313 105.395V103.463C109.516 104.445 107.491 107.074 107.491 110.178C107.491 114.106 110.738 117.305 114.724 117.305ZM118.87 108.594V105.997C119.77 106.219 120.477 106.504 120.477 107.264C120.477 107.961 119.867 108.467 118.87 108.594ZM117.649 111.002H118.934V110.02C120.831 109.798 122.052 108.721 122.052 107.264C122.052 105.237 120.413 104.793 118.87 104.508V101.816C119.609 101.879 120.413 102.101 121.152 102.449V100.865C120.445 100.612 119.674 100.454 118.934 100.422V99.4716H117.649V100.422C115.688 100.644 114.563 101.721 114.563 103.083C114.563 105.142 116.17 105.617 117.713 105.902V108.594C116.781 108.467 115.784 108.087 114.627 107.486V109.164C115.624 109.639 116.652 109.956 117.649 110.02V111.002ZM117.713 104.381C116.813 104.191 116.138 103.875 116.138 103.083C116.138 102.354 116.716 101.911 117.713 101.816V104.381Z" fill="#F9F9F9"/>
<path d="M123.565 81.6514C134.865 81.6514 144.036 90.7928 144.036 102.056C144.036 113.32 134.865 122.461 123.565 122.461C112.265 122.461 103.094 113.32 103.094 102.056C103.094 90.7928 112.265 81.6514 123.565 81.6514Z" fill="#FBCC5C"/>
<path d="M135.602 99.6076C135.602 94.3024 131.303 90.0174 125.98 90.0174C122.05 90.0174 118.652 92.3843 117.178 95.7715C113.821 97.2815 111.487 100.628 111.487 104.505C111.487 109.81 115.786 114.095 121.108 114.095C125.039 114.095 128.437 111.728 129.911 108.341C133.309 106.872 135.602 103.525 135.602 99.6076ZM127.536 105.933C127.045 106.056 126.554 106.096 126.062 106.096C122.459 106.096 119.553 103.158 119.553 99.6076C119.553 99.1179 119.593 98.669 119.716 98.2201C120.208 98.0977 120.699 98.0569 121.19 98.0569C124.793 98.0569 127.7 100.954 127.7 104.546C127.659 105.035 127.618 105.484 127.536 105.933ZM114.639 104.546C114.639 102.791 115.336 101.24 116.441 100.057C116.687 105.035 120.699 108.994 125.694 109.198C124.507 110.341 122.91 111.075 121.149 111.075C117.546 111.034 114.639 108.137 114.639 104.546ZM130.771 104.097C130.525 99.1179 126.513 95.1594 121.518 94.9554C122.705 93.8127 124.302 93.0781 126.062 93.0781C129.665 93.0781 132.572 95.9756 132.572 99.5668C132.531 101.362 131.835 102.954 130.771 104.097Z" fill="#F9B73E"/>
<path d="M135.274 99.6076C135.274 94.5472 131.139 90.4255 126.062 90.4255C122.214 90.4255 118.938 92.7516 117.546 96.098C114.271 97.4855 111.937 100.75 111.937 104.546C111.937 109.606 116.073 113.728 121.149 113.728C124.998 113.728 128.273 111.402 129.665 108.055C132.9 106.668 135.274 103.403 135.274 99.6076ZM121.149 111.442C117.342 111.442 114.23 108.341 114.23 104.546C114.23 102.383 115.254 100.424 116.85 99.1587C116.85 99.322 116.85 99.4852 116.85 99.6076C116.85 104.668 120.986 108.79 126.062 108.79C126.267 108.79 126.431 108.79 126.636 108.79C125.325 110.422 123.36 111.442 121.149 111.442ZM127.864 106.26C127.291 106.423 126.677 106.504 126.062 106.504C122.255 106.504 119.143 103.403 119.143 99.6076C119.143 98.9955 119.225 98.4242 119.389 97.8936C119.962 97.7304 120.576 97.6488 121.19 97.6488C124.998 97.6488 128.109 100.75 128.109 104.546C128.069 105.158 127.987 105.729 127.864 106.26ZM130.361 104.994C130.361 104.831 130.361 104.668 130.361 104.546C130.361 99.4852 126.226 95.3634 121.149 95.3634C120.945 95.3634 120.781 95.3634 120.576 95.3634C121.845 93.731 123.811 92.7108 126.021 92.7108C129.829 92.7108 132.941 95.8123 132.941 99.6076C132.941 101.811 131.917 103.729 130.361 104.994Z" fill="#F9F9F9"/>
</svg>
