<svg width="1115" height="1101" viewBox="0 0 1115 1101" fill="none" xmlns="http://www.w3.org/2000/svg">
<circle cx="557" cy="577" r="407" fill="#0C1824"/>
<g filter="url(#filter0_d_29_167)">
<path d="M538.479 110.541C544.466 92.1149 570.534 92.1148 576.521 110.541L670.767 400.601C673.445 408.841 681.124 414.421 689.788 414.421H994.775C1014.15 414.421 1022.21 439.213 1006.53 450.601L759.792 629.868C752.782 634.961 749.849 643.988 752.526 652.228L846.772 942.288C852.759 960.715 831.67 976.037 815.995 964.649L569.256 785.382C562.246 780.289 552.754 780.289 545.744 785.382L299.005 964.649C283.33 976.037 262.241 960.715 268.228 942.288L362.474 652.229C365.151 643.988 362.218 634.961 355.209 629.868L108.469 450.601C92.7946 439.213 100.85 414.421 120.225 414.421H425.212C433.876 414.421 441.555 408.841 444.233 400.601L538.479 110.541Z" fill="#3773CC"/>
</g>
<g filter="url(#filter1_d_29_167)">
<path d="M563.154 303.691C598.417 303.691 627 275.108 627 239.846C627 204.583 598.417 176 563.154 176C527.892 176 499.309 204.583 499.309 239.846C499.309 275.108 527.892 303.691 563.154 303.691Z" fill="#45CD85"/>
<path d="M560.454 274.138C573.695 274.138 585.408 265.361 589.228 252.513H578.915C575.732 259.764 568.475 264.471 560.454 264.471C549.25 264.471 540.211 255.439 540.211 244.245C540.211 236.231 544.921 228.98 552.179 225.8V215.496C539.319 219.312 530.535 231.015 530.535 244.245C530.535 260.654 544.03 274.138 560.454 274.138ZM578.151 236.358V229.107C580.952 229.998 581.971 231.015 581.971 232.542C581.971 234.323 580.57 235.722 578.151 236.358ZM570.767 248.824H578.406V244.754C585.918 243.481 590.756 238.775 590.756 232.542C590.756 223.892 584.135 221.602 578.151 220.457V212.062C581.207 212.57 584.39 213.715 587.191 215.369V205.956C584.263 204.811 581.334 204.175 578.406 203.92V199.977H570.767V203.92C563.255 205.192 558.544 209.645 558.544 215.751C558.544 224.401 565.038 226.945 571.022 228.09V236.358C567.584 235.595 563.637 234.068 558.799 231.27V240.937C562.873 243.1 566.947 244.372 570.767 244.754V248.824ZM571.022 219.312C568.348 218.549 567.329 217.531 567.329 215.751C567.329 213.97 568.602 212.698 571.022 212.189V219.312Z" fill="#35C071"/>
<path d="M560.453 273.023C572.998 273.023 583.624 264.974 587.592 253.858H579.783C576.327 261.013 568.902 265.868 560.453 265.868C548.548 265.868 538.818 256.158 538.818 244.276C538.818 235.844 543.683 228.434 550.852 224.984V217.19C539.715 221.151 531.65 231.755 531.65 244.276C531.65 260.119 544.579 273.023 560.453 273.023ZM576.967 237.888V227.411C580.551 228.306 583.368 229.456 583.368 232.522C583.368 235.333 580.935 237.377 576.967 237.888ZM572.102 247.598H577.223V243.637C584.776 242.743 589.64 238.399 589.64 232.522C589.64 224.345 583.112 222.556 576.967 221.407V210.547C579.911 210.802 583.112 211.697 586.056 213.102V206.714C583.24 205.692 580.167 205.053 577.223 204.925V201.092H572.102V204.925C564.293 205.819 559.813 210.163 559.813 215.657C559.813 223.962 566.214 225.878 572.358 227.028V237.888C568.646 237.377 564.678 235.844 560.069 233.416V240.188C564.037 242.104 568.134 243.382 572.102 243.637V247.598ZM572.358 220.896C568.774 220.129 566.086 218.851 566.086 215.657C566.086 212.719 568.39 210.93 572.358 210.547V220.896Z" fill="white"/>
<path d="M563.154 303.691C598.417 303.691 627 275.108 627 239.846C627 204.583 598.417 176 563.154 176C527.892 176 499.309 204.583 499.309 239.846C499.309 275.108 527.892 303.691 563.154 303.691Z" fill="#45CD85"/>
<path d="M560.454 274.138C573.695 274.138 585.408 265.361 589.228 252.513H578.915C575.732 259.764 568.475 264.471 560.454 264.471C549.25 264.471 540.211 255.439 540.211 244.245C540.211 236.231 544.921 228.98 552.179 225.8V215.496C539.319 219.312 530.535 231.015 530.535 244.245C530.535 260.654 544.03 274.138 560.454 274.138ZM578.151 236.358V229.107C580.952 229.998 581.971 231.015 581.971 232.542C581.971 234.323 580.57 235.722 578.151 236.358ZM570.767 248.824H578.406V244.754C585.918 243.481 590.756 238.775 590.756 232.542C590.756 223.892 584.135 221.602 578.151 220.457V212.062C581.207 212.57 584.39 213.715 587.191 215.369V205.956C584.263 204.811 581.334 204.175 578.406 203.92V199.977H570.767V203.92C563.255 205.192 558.544 209.645 558.544 215.751C558.544 224.401 565.038 226.945 571.022 228.09V236.358C567.584 235.595 563.637 234.068 558.799 231.27V240.937C562.873 243.1 566.947 244.372 570.767 244.754V248.824ZM571.022 219.312C568.348 218.549 567.329 217.531 567.329 215.751C567.329 213.97 568.602 212.698 571.022 212.189V219.312Z" fill="#35C071"/>
<path d="M560.453 273.023C572.998 273.023 583.624 264.974 587.592 253.858H579.783C576.327 261.013 568.902 265.868 560.453 265.868C548.548 265.868 538.818 256.158 538.818 244.276C538.818 235.844 543.683 228.434 550.852 224.984V217.19C539.715 221.151 531.65 231.755 531.65 244.276C531.65 260.119 544.579 273.023 560.453 273.023ZM576.967 237.888V227.411C580.551 228.306 583.368 229.456 583.368 232.522C583.368 235.333 580.935 237.377 576.967 237.888ZM572.102 247.598H577.223V243.637C584.776 242.743 589.64 238.399 589.64 232.522C589.64 224.345 583.112 222.556 576.967 221.407V210.547C579.911 210.802 583.112 211.697 586.056 213.102V206.714C583.24 205.692 580.167 205.053 577.223 204.925V201.092H572.102V204.925C564.293 205.819 559.813 210.163 559.813 215.657C559.813 223.962 566.214 225.878 572.358 227.028V237.888C568.646 237.377 564.678 235.844 560.069 233.416V240.188C564.037 242.104 568.134 243.382 572.102 243.637V247.598ZM572.358 220.896C568.774 220.129 566.086 218.851 566.086 215.657C566.086 212.719 568.39 210.93 572.358 210.547V220.896Z" fill="white"/>
<path d="M327.846 640.484C363.108 640.484 391.691 611.901 391.691 576.638C391.691 541.376 363.108 512.793 327.846 512.793C292.583 512.793 264 541.376 264 576.638C264 611.901 292.583 640.484 327.846 640.484Z" fill="#45CD85"/>
<path d="M325.145 610.931C338.386 610.931 350.1 602.154 353.919 589.306H343.606C340.424 596.557 333.166 601.263 325.145 601.263C313.941 601.263 304.902 592.232 304.902 581.037C304.902 573.023 309.613 565.773 316.87 562.593V552.289C304.011 556.105 295.226 567.808 295.226 581.037C295.226 597.447 308.721 610.931 325.145 610.931ZM342.843 573.151V565.9C345.644 566.79 346.662 567.808 346.662 569.334C346.662 571.115 345.262 572.515 342.843 573.151ZM335.458 585.617H343.097V581.546C350.609 580.274 355.447 575.568 355.447 569.334C355.447 560.684 348.827 558.395 342.843 557.25V548.854C345.898 549.363 349.081 550.508 351.882 552.162V542.748C348.954 541.603 346.026 540.967 343.097 540.713V536.77H335.458V540.713C327.946 541.985 323.236 546.437 323.236 552.543C323.236 561.193 329.729 563.737 335.713 564.882V573.151C332.275 572.387 328.328 570.861 323.49 568.062V577.73C327.564 579.893 331.639 581.165 335.458 581.546V585.617ZM335.713 556.105C333.039 555.342 332.021 554.324 332.021 552.543C332.021 550.762 333.294 549.49 335.713 548.981V556.105Z" fill="#35C071"/>
<path d="M325.144 609.816C337.69 609.816 348.315 601.767 352.284 590.651H344.475C341.018 597.806 333.593 602.661 325.144 602.661C313.239 602.661 303.51 592.951 303.51 581.069C303.51 572.637 308.374 565.226 315.543 561.777V553.983C304.406 557.944 296.341 568.548 296.341 581.069C296.341 596.912 309.271 609.816 325.144 609.816ZM341.658 574.681V564.204C345.243 565.099 348.059 566.248 348.059 569.315C348.059 572.125 345.627 574.17 341.658 574.681ZM336.794 584.391H341.914V580.43C349.467 579.536 354.332 575.192 354.332 569.315C354.332 561.138 347.803 559.349 341.658 558.199V547.339C344.603 547.595 347.803 548.489 350.747 549.895V543.506C347.931 542.484 344.859 541.846 341.914 541.718V537.885H336.794V541.718C328.985 542.612 324.504 546.956 324.504 552.45C324.504 560.755 330.905 562.671 337.05 563.821V574.681C333.337 574.17 329.369 572.637 324.76 570.209V576.981C328.729 578.897 332.825 580.175 336.794 580.43V584.391ZM337.05 557.688C333.465 556.922 330.777 555.644 330.777 552.45C330.777 549.511 333.081 547.723 337.05 547.339V557.688Z" fill="white"/>
<path d="M327.846 640.484C363.108 640.484 391.691 611.901 391.691 576.638C391.691 541.376 363.108 512.793 327.846 512.793C292.583 512.793 264 541.376 264 576.638C264 611.901 292.583 640.484 327.846 640.484Z" fill="#45CD85"/>
<path d="M325.145 610.931C338.386 610.931 350.1 602.154 353.919 589.306H343.606C340.424 596.557 333.166 601.263 325.145 601.263C313.941 601.263 304.902 592.232 304.902 581.037C304.902 573.023 309.613 565.773 316.87 562.593V552.289C304.011 556.105 295.226 567.808 295.226 581.037C295.226 597.447 308.721 610.931 325.145 610.931ZM342.843 573.151V565.9C345.644 566.79 346.662 567.808 346.662 569.334C346.662 571.115 345.262 572.515 342.843 573.151ZM335.458 585.617H343.097V581.546C350.609 580.274 355.447 575.568 355.447 569.334C355.447 560.684 348.827 558.395 342.843 557.25V548.854C345.898 549.363 349.081 550.508 351.882 552.162V542.748C348.954 541.603 346.026 540.967 343.097 540.713V536.77H335.458V540.713C327.946 541.985 323.236 546.437 323.236 552.543C323.236 561.193 329.729 563.737 335.713 564.882V573.151C332.275 572.387 328.328 570.861 323.49 568.062V577.73C327.564 579.893 331.639 581.165 335.458 581.546V585.617ZM335.713 556.105C333.039 555.342 332.021 554.324 332.021 552.543C332.021 550.762 333.294 549.49 335.713 548.981V556.105Z" fill="#35C071"/>
<path d="M325.144 609.816C337.69 609.816 348.315 601.767 352.284 590.651H344.475C341.018 597.806 333.593 602.661 325.144 602.661C313.239 602.661 303.51 592.951 303.51 581.069C303.51 572.637 308.374 565.226 315.543 561.777V553.983C304.406 557.944 296.341 568.548 296.341 581.069C296.341 596.912 309.271 609.816 325.144 609.816ZM341.658 574.681V564.204C345.243 565.099 348.059 566.248 348.059 569.315C348.059 572.125 345.627 574.17 341.658 574.681ZM336.794 584.391H341.914V580.43C349.467 579.536 354.332 575.192 354.332 569.315C354.332 561.138 347.803 559.349 341.658 558.199V547.339C344.603 547.595 347.803 548.489 350.747 549.895V543.506C347.931 542.484 344.859 541.846 341.914 541.718V537.885H336.794V541.718C328.985 542.612 324.504 546.956 324.504 552.45C324.504 560.755 330.905 562.671 337.05 563.821V574.681C333.337 574.17 329.369 572.637 324.76 570.209V576.981C328.729 578.897 332.825 580.175 336.794 580.43V584.391ZM337.05 557.688C333.465 556.922 330.777 555.644 330.777 552.45C330.777 549.511 333.081 547.723 337.05 547.339V557.688Z" fill="white"/>
<path d="M563.154 976.719C598.417 976.719 627 948.136 627 912.873C627 877.611 598.417 849.028 563.154 849.028C527.892 849.028 499.309 877.611 499.309 912.873C499.309 948.136 527.892 976.719 563.154 976.719Z" fill="#45CD85"/>
<path d="M560.454 947.166C573.695 947.166 585.409 938.389 589.228 925.541H578.915C575.732 932.792 568.475 937.498 560.454 937.498C549.25 937.498 540.211 928.467 540.211 917.272C540.211 909.258 544.922 902.008 552.179 898.827V888.524C539.32 892.34 530.535 904.043 530.535 917.272C530.535 933.682 544.03 947.166 560.454 947.166ZM578.151 909.386V902.135C580.952 903.025 581.971 904.043 581.971 905.569C581.971 907.35 580.57 908.75 578.151 909.386ZM570.767 921.852H578.406V917.781C585.918 916.509 590.756 911.803 590.756 905.569C590.756 896.919 584.135 894.63 578.151 893.485V885.089C581.207 885.598 584.39 886.743 587.191 888.397V878.983C584.263 877.838 581.334 877.202 578.406 876.948V873.005H570.767V876.948C563.255 878.22 558.544 882.672 558.544 888.778C558.544 897.428 565.038 899.972 571.022 901.117V909.386C567.584 908.622 563.637 907.096 558.799 904.297V913.965C562.873 916.128 566.947 917.4 570.767 917.781V921.852ZM571.022 892.34C568.348 891.577 567.329 890.559 567.329 888.778C567.329 886.997 568.603 885.725 571.022 885.216V892.34Z" fill="#35C071"/>
<path d="M560.453 946.051C572.999 946.051 583.624 938.002 587.592 926.886H579.783C576.327 934.041 568.902 938.896 560.453 938.896C548.548 938.896 538.819 929.186 538.819 917.304C538.819 908.872 543.683 901.461 550.852 898.012V890.218C539.715 894.179 531.65 904.783 531.65 917.304C531.65 933.147 544.579 946.051 560.453 946.051ZM576.967 910.916V900.439C580.552 901.333 583.368 902.483 583.368 905.55C583.368 908.36 580.936 910.405 576.967 910.916ZM572.102 920.626H577.223V916.665C584.776 915.771 589.641 911.427 589.641 905.55C589.641 897.373 583.112 895.584 576.967 894.434V883.574C579.911 883.83 583.112 884.724 586.056 886.13V879.741C583.24 878.719 580.167 878.081 577.223 877.953V874.12H572.102V877.953C564.294 878.847 559.813 883.191 559.813 888.685C559.813 896.99 566.214 898.906 572.359 900.056V910.916C568.646 910.405 564.678 908.872 560.069 906.444V913.216C564.038 915.132 568.134 916.41 572.102 916.665V920.626ZM572.359 893.923C568.774 893.157 566.086 891.879 566.086 888.685C566.086 885.746 568.39 883.958 572.359 883.574V893.923Z" fill="white"/>
<path d="M563.154 976.719C598.417 976.719 627 948.136 627 912.873C627 877.611 598.417 849.028 563.154 849.028C527.892 849.028 499.309 877.611 499.309 912.873C499.309 948.136 527.892 976.719 563.154 976.719Z" fill="#45CD85"/>
<path d="M560.454 947.166C573.695 947.166 585.409 938.389 589.228 925.541H578.915C575.732 932.792 568.475 937.498 560.454 937.498C549.25 937.498 540.211 928.467 540.211 917.272C540.211 909.258 544.922 902.008 552.179 898.827V888.524C539.32 892.34 530.535 904.043 530.535 917.272C530.535 933.682 544.03 947.166 560.454 947.166ZM578.151 909.386V902.135C580.952 903.025 581.971 904.043 581.971 905.569C581.971 907.35 580.57 908.75 578.151 909.386ZM570.767 921.852H578.406V917.781C585.918 916.509 590.756 911.803 590.756 905.569C590.756 896.919 584.135 894.63 578.151 893.485V885.089C581.207 885.598 584.39 886.743 587.191 888.397V878.983C584.263 877.838 581.334 877.202 578.406 876.948V873.005H570.767V876.948C563.255 878.22 558.544 882.672 558.544 888.778C558.544 897.428 565.038 899.972 571.022 901.117V909.386C567.584 908.622 563.637 907.096 558.799 904.297V913.965C562.873 916.128 566.947 917.4 570.767 917.781V921.852ZM571.022 892.34C568.348 891.577 567.329 890.559 567.329 888.778C567.329 886.997 568.603 885.725 571.022 885.216V892.34Z" fill="#35C071"/>
<path d="M560.453 946.051C572.999 946.051 583.624 938.002 587.592 926.886H579.783C576.327 934.041 568.902 938.896 560.453 938.896C548.548 938.896 538.819 929.186 538.819 917.304C538.819 908.872 543.683 901.461 550.852 898.012V890.218C539.715 894.179 531.65 904.783 531.65 917.304C531.65 933.147 544.579 946.051 560.453 946.051ZM576.967 910.916V900.439C580.552 901.333 583.368 902.483 583.368 905.55C583.368 908.36 580.936 910.405 576.967 910.916ZM572.102 920.626H577.223V916.665C584.776 915.771 589.641 911.427 589.641 905.55C589.641 897.373 583.112 895.584 576.967 894.434V883.574C579.911 883.83 583.112 884.724 586.056 886.13V879.741C583.24 878.719 580.167 878.081 577.223 877.953V874.12H572.102V877.953C564.294 878.847 559.813 883.191 559.813 888.685C559.813 896.99 566.214 898.906 572.359 900.056V910.916C568.646 910.405 564.678 908.872 560.069 906.444V913.216C564.038 915.132 568.134 916.41 572.102 916.665V920.626ZM572.359 893.923C568.774 893.157 566.086 891.879 566.086 888.685C566.086 885.746 568.39 883.958 572.359 883.574V893.923Z" fill="white"/>
</g>
<g filter="url(#filter2_d_29_167)">
<path d="M416.5 326C451.552 326 480 354.356 480 389.294C480 424.233 451.552 452.589 416.5 452.589C381.448 452.589 353 424.233 353 389.294C353 354.356 381.448 326 416.5 326Z" fill="#FBCC5C"/>
<path d="M453.838 381.699C453.838 365.243 440.503 351.951 423.993 351.951C411.801 351.951 401.26 359.293 396.688 369.8C386.274 374.484 379.035 384.864 379.035 396.89C379.035 413.346 392.37 426.638 408.88 426.638C421.072 426.638 431.613 419.296 436.185 408.789C446.726 404.232 453.838 393.852 453.838 381.699ZM428.819 401.32C427.295 401.7 425.771 401.827 424.247 401.827C413.071 401.827 404.054 392.712 404.054 381.699C404.054 380.18 404.181 378.788 404.562 377.395C406.086 377.015 407.61 376.889 409.134 376.889C420.31 376.889 429.327 385.877 429.327 397.016C429.2 398.535 429.073 399.928 428.819 401.32ZM388.814 397.016C388.814 391.573 390.973 386.763 394.402 383.092C395.164 398.535 407.61 410.815 423.104 411.448C419.421 414.992 414.468 417.271 409.007 417.271C397.831 417.144 388.814 408.156 388.814 397.016ZM438.852 395.624C438.09 380.18 425.644 367.901 410.15 367.268C413.833 363.723 418.786 361.445 424.247 361.445C435.423 361.445 444.44 370.433 444.44 381.573C444.313 387.142 442.154 392.079 438.852 395.624Z" fill="#F9B73E"/>
<path d="M452.822 381.699C452.822 366.002 439.995 353.217 424.247 353.217C412.309 353.217 402.149 360.432 397.831 370.812C387.671 375.116 380.432 385.243 380.432 397.016C380.432 412.713 393.259 425.499 409.007 425.499C420.945 425.499 431.105 418.283 435.423 407.903C445.456 403.599 452.822 393.472 452.822 381.699ZM409.007 418.41C397.196 418.41 387.544 408.789 387.544 397.016C387.544 390.307 390.719 384.231 395.672 380.307C395.672 380.813 395.672 381.319 395.672 381.699C395.672 397.396 408.499 410.181 424.247 410.181C424.882 410.181 425.39 410.181 426.025 410.181C421.961 415.245 415.865 418.41 409.007 418.41ZM429.835 402.333C428.057 402.839 426.152 403.093 424.247 403.093C412.436 403.093 402.784 393.472 402.784 381.699C402.784 379.8 403.038 378.028 403.546 376.382C405.324 375.876 407.229 375.623 409.134 375.623C420.945 375.623 430.597 385.243 430.597 397.016C430.47 398.915 430.216 400.687 429.835 402.333ZM437.582 398.409C437.582 397.902 437.582 397.396 437.582 397.016C437.582 381.319 424.755 368.534 409.007 368.534C408.372 368.534 407.864 368.534 407.229 368.534C411.166 363.47 417.262 360.305 424.12 360.305C435.931 360.305 445.583 369.926 445.583 381.699C445.583 388.535 442.408 394.485 437.582 398.409Z" fill="white"/>
</g>
<g filter="url(#filter3_d_29_167)">
<path d="M416.5 704C451.552 704 480 732.356 480 767.294C480 802.233 451.552 830.589 416.5 830.589C381.448 830.589 353 802.233 353 767.294C353 732.356 381.448 704 416.5 704Z" fill="#FBCC5C"/>
<path d="M453.838 759.699C453.838 743.243 440.503 729.951 423.993 729.951C411.801 729.951 401.26 737.293 396.688 747.8C386.274 752.484 379.035 762.864 379.035 774.89C379.035 791.346 392.37 804.638 408.88 804.638C421.072 804.638 431.613 797.296 436.185 786.789C446.726 782.232 453.838 771.852 453.838 759.699ZM428.819 779.32C427.295 779.7 425.771 779.827 424.247 779.827C413.071 779.827 404.054 770.712 404.054 759.699C404.054 758.18 404.181 756.788 404.562 755.395C406.086 755.015 407.61 754.889 409.134 754.889C420.31 754.889 429.327 763.877 429.327 775.016C429.2 776.535 429.073 777.928 428.819 779.32ZM388.814 775.016C388.814 769.573 390.973 764.763 394.402 761.092C395.164 776.535 407.61 788.815 423.104 789.448C419.421 792.992 414.468 795.271 409.007 795.271C397.831 795.144 388.814 786.156 388.814 775.016ZM438.852 773.624C438.09 758.18 425.644 745.901 410.15 745.268C413.833 741.723 418.786 739.445 424.247 739.445C435.423 739.445 444.44 748.433 444.44 759.573C444.313 765.142 442.154 770.079 438.852 773.624Z" fill="#F9B73E"/>
<path d="M452.822 759.699C452.822 744.002 439.995 731.217 424.247 731.217C412.309 731.217 402.149 738.432 397.831 748.812C387.671 753.116 380.432 763.243 380.432 775.016C380.432 790.713 393.259 803.499 409.007 803.499C420.945 803.499 431.105 796.283 435.423 785.903C445.456 781.599 452.822 771.472 452.822 759.699ZM409.007 796.41C397.196 796.41 387.544 786.789 387.544 775.016C387.544 768.307 390.719 762.231 395.672 758.307C395.672 758.813 395.672 759.319 395.672 759.699C395.672 775.396 408.499 788.181 424.247 788.181C424.882 788.181 425.39 788.181 426.025 788.181C421.961 793.245 415.865 796.41 409.007 796.41ZM429.835 780.333C428.057 780.839 426.152 781.093 424.247 781.093C412.436 781.093 402.784 771.472 402.784 759.699C402.784 757.8 403.038 756.028 403.546 754.382C405.324 753.876 407.229 753.623 409.134 753.623C420.945 753.623 430.597 763.243 430.597 775.016C430.47 776.915 430.216 778.687 429.835 780.333ZM437.582 776.409C437.582 775.902 437.582 775.396 437.582 775.016C437.582 759.319 424.755 746.534 409.007 746.534C408.372 746.534 407.864 746.534 407.229 746.534C411.166 741.47 417.262 738.305 424.12 738.305C435.931 738.305 445.583 747.926 445.583 759.699C445.583 766.535 442.408 772.485 437.582 776.409Z" fill="white"/>
</g>
<g filter="url(#filter4_d_29_167)">
<path d="M824.846 637.691C860.108 637.691 888.691 609.108 888.691 573.846C888.691 538.583 860.108 510 824.846 510C789.583 510 761 538.583 761 573.846C761 609.108 789.583 637.691 824.846 637.691Z" fill="#45CD85"/>
<path d="M822.145 608.138C835.386 608.138 847.1 599.361 850.919 586.513H840.606C837.424 593.764 830.166 598.471 822.145 598.471C810.941 598.471 801.902 589.439 801.902 578.245C801.902 570.231 806.613 562.98 813.87 559.8V549.496C801.011 553.312 792.226 565.015 792.226 578.245C792.226 594.654 805.721 608.138 822.145 608.138ZM839.843 570.358V563.107C842.644 563.998 843.662 565.015 843.662 566.542C843.662 568.323 842.262 569.722 839.843 570.358ZM832.458 582.824H840.097V578.754C847.609 577.482 852.447 572.775 852.447 566.542C852.447 557.892 845.827 555.602 839.843 554.457V546.062C842.898 546.57 846.081 547.715 848.882 549.369V539.956C845.954 538.811 843.026 538.175 840.097 537.92V533.977H832.458V537.92C824.946 539.193 820.236 543.645 820.236 549.751C820.236 558.401 826.729 560.945 832.713 562.09V570.358C829.275 569.595 825.328 568.068 820.49 565.27V574.937C824.564 577.1 828.639 578.372 832.458 578.754V582.824ZM832.713 553.312C830.039 552.549 829.021 551.532 829.021 549.751C829.021 547.97 830.294 546.698 832.713 546.189V553.312Z" fill="#35C071"/>
<path d="M822.144 607.023C834.69 607.023 845.315 598.974 849.284 587.859H841.475C838.018 595.013 830.593 599.868 822.144 599.868C810.239 599.868 800.51 590.158 800.51 578.276C800.51 569.844 805.374 562.434 812.543 558.984V551.19C801.406 555.151 793.341 565.756 793.341 578.276C793.341 594.119 806.271 607.023 822.144 607.023ZM838.658 571.888V561.412C842.243 562.306 845.059 563.456 845.059 566.522C845.059 569.333 842.627 571.377 838.658 571.888ZM833.794 581.598H838.914V577.638C846.467 576.743 851.332 572.399 851.332 566.522C851.332 558.345 844.803 556.557 838.658 555.407V544.547C841.603 544.802 844.803 545.697 847.747 547.102V540.714C844.931 539.692 841.859 539.053 838.914 538.925V535.092H833.794V538.925C825.985 539.82 821.504 544.163 821.504 549.657C821.504 557.962 827.905 559.878 834.05 561.028V571.888C830.337 571.377 826.369 569.844 821.76 567.416V574.188C825.729 576.104 829.825 577.382 833.794 577.638V581.598ZM834.05 554.896C830.465 554.129 827.777 552.851 827.777 549.657C827.777 546.719 830.081 544.93 834.05 544.547V554.896Z" fill="white"/>
</g>
<g filter="url(#filter5_d_29_167)">
<path d="M709.5 326C744.552 326 773 354.356 773 389.294C773 424.233 744.552 452.589 709.5 452.589C674.448 452.589 646 424.233 646 389.294C646 354.356 674.448 326 709.5 326Z" fill="#FBCC5C"/>
<path d="M746.838 381.699C746.838 365.243 733.503 351.951 716.993 351.951C704.801 351.951 694.26 359.293 689.688 369.8C679.274 374.484 672.035 384.864 672.035 396.89C672.035 413.346 685.37 426.638 701.88 426.638C714.072 426.638 724.613 419.296 729.185 408.789C739.726 404.232 746.838 393.852 746.838 381.699ZM721.819 401.32C720.295 401.7 718.771 401.827 717.247 401.827C706.071 401.827 697.054 392.712 697.054 381.699C697.054 380.18 697.181 378.788 697.562 377.395C699.086 377.015 700.61 376.889 702.134 376.889C713.31 376.889 722.327 385.877 722.327 397.016C722.2 398.535 722.073 399.928 721.819 401.32ZM681.814 397.016C681.814 391.573 683.973 386.763 687.402 383.092C688.164 398.535 700.61 410.815 716.104 411.448C712.421 414.992 707.468 417.271 702.007 417.271C690.831 417.144 681.814 408.156 681.814 397.016ZM731.852 395.624C731.09 380.18 718.644 367.901 703.15 367.268C706.833 363.723 711.786 361.445 717.247 361.445C728.423 361.445 737.44 370.433 737.44 381.573C737.313 387.142 735.154 392.079 731.852 395.624Z" fill="#F9B73E"/>
<path d="M745.822 381.699C745.822 366.002 732.995 353.217 717.247 353.217C705.309 353.217 695.149 360.432 690.831 370.812C680.671 375.116 673.432 385.243 673.432 397.016C673.432 412.713 686.259 425.499 702.007 425.499C713.945 425.499 724.105 418.283 728.423 407.903C738.456 403.599 745.822 393.472 745.822 381.699ZM702.007 418.41C690.196 418.41 680.544 408.789 680.544 397.016C680.544 390.307 683.719 384.231 688.672 380.307C688.672 380.813 688.672 381.319 688.672 381.699C688.672 397.396 701.499 410.181 717.247 410.181C717.882 410.181 718.39 410.181 719.025 410.181C714.961 415.245 708.865 418.41 702.007 418.41ZM722.835 402.333C721.057 402.839 719.152 403.093 717.247 403.093C705.436 403.093 695.784 393.472 695.784 381.699C695.784 379.8 696.038 378.028 696.546 376.382C698.324 375.876 700.229 375.623 702.134 375.623C713.945 375.623 723.597 385.243 723.597 397.016C723.47 398.915 723.216 400.687 722.835 402.333ZM730.582 398.409C730.582 397.902 730.582 397.396 730.582 397.016C730.582 381.319 717.755 368.534 702.007 368.534C701.372 368.534 700.864 368.534 700.229 368.534C704.166 363.47 710.262 360.305 717.12 360.305C728.931 360.305 738.583 369.926 738.583 381.699C738.583 388.535 735.408 394.485 730.582 398.409Z" fill="white"/>
</g>
<g filter="url(#filter6_d_29_167)">
<path d="M709.5 704C744.552 704 773 732.356 773 767.294C773 802.233 744.552 830.589 709.5 830.589C674.448 830.589 646 802.233 646 767.294C646 732.356 674.448 704 709.5 704Z" fill="#FBCC5C"/>
<path d="M746.838 759.699C746.838 743.243 733.503 729.951 716.993 729.951C704.801 729.951 694.26 737.293 689.688 747.8C679.274 752.484 672.035 762.864 672.035 774.89C672.035 791.346 685.37 804.638 701.88 804.638C714.072 804.638 724.613 797.296 729.185 786.789C739.726 782.232 746.838 771.852 746.838 759.699ZM721.819 779.32C720.295 779.7 718.771 779.827 717.247 779.827C706.071 779.827 697.054 770.712 697.054 759.699C697.054 758.18 697.181 756.788 697.562 755.395C699.086 755.015 700.61 754.889 702.134 754.889C713.31 754.889 722.327 763.877 722.327 775.016C722.2 776.535 722.073 777.928 721.819 779.32ZM681.814 775.016C681.814 769.573 683.973 764.763 687.402 761.092C688.164 776.535 700.61 788.815 716.104 789.448C712.421 792.992 707.468 795.271 702.007 795.271C690.831 795.144 681.814 786.156 681.814 775.016ZM731.852 773.624C731.09 758.18 718.644 745.901 703.15 745.268C706.833 741.723 711.786 739.445 717.247 739.445C728.423 739.445 737.44 748.433 737.44 759.573C737.313 765.142 735.154 770.079 731.852 773.624Z" fill="#F9B73E"/>
<path d="M745.822 759.699C745.822 744.002 732.995 731.217 717.247 731.217C705.309 731.217 695.149 738.432 690.831 748.812C680.671 753.116 673.432 763.243 673.432 775.016C673.432 790.713 686.259 803.499 702.007 803.499C713.945 803.499 724.105 796.283 728.423 785.903C738.456 781.599 745.822 771.472 745.822 759.699ZM702.007 796.41C690.196 796.41 680.544 786.789 680.544 775.016C680.544 768.307 683.719 762.231 688.672 758.307C688.672 758.813 688.672 759.319 688.672 759.699C688.672 775.396 701.499 788.181 717.247 788.181C717.882 788.181 718.39 788.181 719.025 788.181C714.961 793.245 708.865 796.41 702.007 796.41ZM722.835 780.333C721.057 780.839 719.152 781.093 717.247 781.093C705.436 781.093 695.784 771.472 695.784 759.699C695.784 757.8 696.038 756.028 696.546 754.382C698.324 753.876 700.229 753.623 702.134 753.623C713.945 753.623 723.597 763.243 723.597 775.016C723.47 776.915 723.216 778.687 722.835 780.333ZM730.582 776.409C730.582 775.902 730.582 775.396 730.582 775.016C730.582 759.319 717.755 746.534 702.007 746.534C701.372 746.534 700.864 746.534 700.229 746.534C704.166 741.47 710.262 738.305 717.12 738.305C728.931 738.305 738.583 747.926 738.583 759.699C738.583 766.535 735.408 772.485 730.582 776.409Z" fill="white"/>
</g>
<defs>
<filter id="filter0_d_29_167" x="0.186279" y="0.721375" width="1114.63" height="1071.84" filterUnits="userSpaceOnUse" color-interpolation-filters="sRGB">
<feFlood flood-opacity="0" result="BackgroundImageFix"/>
<feColorMatrix in="SourceAlpha" type="matrix" values="0 0 0 0 0 0 0 0 0 0 0 0 0 0 0 0 0 0 127 0" result="hardAlpha"/>
<feOffset dy="4"/>
<feGaussianBlur stdDeviation="50"/>
<feComposite in2="hardAlpha" operator="out"/>
<feColorMatrix type="matrix" values="0 0 0 0 0.298039 0 0 0 0 0.588235 0 0 0 0 0.964706 0 0 0 0.5 0"/>
<feBlend mode="normal" in2="BackgroundImageFix" result="effect1_dropShadow_29_167"/>
<feBlend mode="normal" in="SourceGraphic" in2="effect1_dropShadow_29_167" result="shape"/>
</filter>
<filter id="filter1_d_29_167" x="164" y="80" width="563" height="1000.72" filterUnits="userSpaceOnUse" color-interpolation-filters="sRGB">
<feFlood flood-opacity="0" result="BackgroundImageFix"/>
<feColorMatrix in="SourceAlpha" type="matrix" values="0 0 0 0 0 0 0 0 0 0 0 0 0 0 0 0 0 0 127 0" result="hardAlpha"/>
<feOffset dy="4"/>
<feGaussianBlur stdDeviation="50"/>
<feComposite in2="hardAlpha" operator="out"/>
<feColorMatrix type="matrix" values="0 0 0 0 0.270588 0 0 0 0 0.803922 0 0 0 0 0.521569 0 0 0 0.3 0"/>
<feBlend mode="normal" in2="BackgroundImageFix" result="effect1_dropShadow_29_167"/>
<feBlend mode="normal" in="SourceGraphic" in2="effect1_dropShadow_29_167" result="shape"/>
</filter>
<filter id="filter2_d_29_167" x="253" y="230" width="327" height="326.589" filterUnits="userSpaceOnUse" color-interpolation-filters="sRGB">
<feFlood flood-opacity="0" result="BackgroundImageFix"/>
<feColorMatrix in="SourceAlpha" type="matrix" values="0 0 0 0 0 0 0 0 0 0 0 0 0 0 0 0 0 0 127 0" result="hardAlpha"/>
<feOffset dy="4"/>
<feGaussianBlur stdDeviation="50"/>
<feComposite in2="hardAlpha" operator="out"/>
<feColorMatrix type="matrix" values="0 0 0 0 0.984314 0 0 0 0 0.8 0 0 0 0 0.360784 0 0 0 0.3 0"/>
<feBlend mode="normal" in2="BackgroundImageFix" result="effect1_dropShadow_29_167"/>
<feBlend mode="normal" in="SourceGraphic" in2="effect1_dropShadow_29_167" result="shape"/>
</filter>
<filter id="filter3_d_29_167" x="253" y="608" width="327" height="326.589" filterUnits="userSpaceOnUse" color-interpolation-filters="sRGB">
<feFlood flood-opacity="0" result="BackgroundImageFix"/>
<feColorMatrix in="SourceAlpha" type="matrix" values="0 0 0 0 0 0 0 0 0 0 0 0 0 0 0 0 0 0 127 0" result="hardAlpha"/>
<feOffset dy="4"/>
<feGaussianBlur stdDeviation="50"/>
<feComposite in2="hardAlpha" operator="out"/>
<feColorMatrix type="matrix" values="0 0 0 0 0.984314 0 0 0 0 0.8 0 0 0 0 0.360784 0 0 0 0.3 0"/>
<feBlend mode="normal" in2="BackgroundImageFix" result="effect1_dropShadow_29_167"/>
<feBlend mode="normal" in="SourceGraphic" in2="effect1_dropShadow_29_167" result="shape"/>
</filter>
<filter id="filter4_d_29_167" x="661" y="414" width="327.691" height="327.691" filterUnits="userSpaceOnUse" color-interpolation-filters="sRGB">
<feFlood flood-opacity="0" result="BackgroundImageFix"/>
<feColorMatrix in="SourceAlpha" type="matrix" values="0 0 0 0 0 0 0 0 0 0 0 0 0 0 0 0 0 0 127 0" result="hardAlpha"/>
<feOffset dy="4"/>
<feGaussianBlur stdDeviation="50"/>
<feComposite in2="hardAlpha" operator="out"/>
<feColorMatrix type="matrix" values="0 0 0 0 0.270588 0 0 0 0 0.803922 0 0 0 0 0.521569 0 0 0 0.3 0"/>
<feBlend mode="normal" in2="BackgroundImageFix" result="effect1_dropShadow_29_167"/>
<feBlend mode="normal" in="SourceGraphic" in2="effect1_dropShadow_29_167" result="shape"/>
</filter>
<filter id="filter5_d_29_167" x="546" y="230" width="327" height="326.589" filterUnits="userSpaceOnUse" color-interpolation-filters="sRGB">
<feFlood flood-opacity="0" result="BackgroundImageFix"/>
<feColorMatrix in="SourceAlpha" type="matrix" values="0 0 0 0 0 0 0 0 0 0 0 0 0 0 0 0 0 0 127 0" result="hardAlpha"/>
<feOffset dy="4"/>
<feGaussianBlur stdDeviation="50"/>
<feComposite in2="hardAlpha" operator="out"/>
<feColorMatrix type="matrix" values="0 0 0 0 0.984314 0 0 0 0 0.8 0 0 0 0 0.360784 0 0 0 0.3 0"/>
<feBlend mode="normal" in2="BackgroundImageFix" result="effect1_dropShadow_29_167"/>
<feBlend mode="normal" in="SourceGraphic" in2="effect1_dropShadow_29_167" result="shape"/>
</filter>
<filter id="filter6_d_29_167" x="546" y="608" width="327" height="326.589" filterUnits="userSpaceOnUse" color-interpolation-filters="sRGB">
<feFlood flood-opacity="0" result="BackgroundImageFix"/>
<feColorMatrix in="SourceAlpha" type="matrix" values="0 0 0 0 0 0 0 0 0 0 0 0 0 0 0 0 0 0 127 0" result="hardAlpha"/>
<feOffset dy="4"/>
<feGaussianBlur stdDeviation="50"/>
<feComposite in2="hardAlpha" operator="out"/>
<feColorMatrix type="matrix" values="0 0 0 0 0.984314 0 0 0 0 0.8 0 0 0 0 0.360784 0 0 0 0.3 0"/>
<feBlend mode="normal" in2="BackgroundImageFix" result="effect1_dropShadow_29_167"/>
<feBlend mode="normal" in="SourceGraphic" in2="effect1_dropShadow_29_167" result="shape"/>
</filter>
</defs>
</svg>
