<?xml version="1.0" standalone="no"?>
<!DOCTYPE svg PUBLIC "-//W3C//DTD SVG 20010904//EN"
 "http://www.w3.org/TR/2001/REC-SVG-20010904/DTD/svg10.dtd">
<svg version="1.0" xmlns="http://www.w3.org/2000/svg"
 width="512.000000pt" height="512.000000pt" viewBox="0 0 512.000000 512.000000"
 preserveAspectRatio="xMidYMid meet">
<metadata>
Created by potrace 1.11, written by Peter Selinger 2001-2013
</metadata>
<g transform="translate(0.000000,512.000000) scale(0.100000,-0.100000)"
fill="#000000" stroke="none">
<path d="M1384 3580 c-114 -53 -89 -21 -695 -860 -129 -179 -274 -379 -322
-445 -324 -445 -356 -498 -362 -584 -5 -65 12 -99 63 -132 46 -29 104 -42 183
-42 112 2 219 38 671 226 315 132 470 173 607 164 116 -8 299 -60 466 -132
139 -59 468 -189 541 -213 220 -73 388 -67 441 15 26 39 22 133 -7 203 -38 88
-79 152 -231 365 -295 414 -951 1289 -1018 1358 -102 106 -217 132 -337 77z"/>
<path d="M2291 3598 c-63 -10 -124 -42 -147 -77 -35 -53 -18 -157 42 -252 15
-24 104 -150 197 -279 94 -129 211 -291 261 -360 49 -69 113 -156 141 -195 28
-38 105 -144 170 -235 66 -91 145 -201 177 -245 32 -44 89 -123 126 -175 135
-191 238 -265 367 -265 81 1 130 22 202 88 64 59 867 1129 1109 1479 98 141
133 202 160 277 63 178 -11 263 -214 248 -115 -9 -213 -38 -472 -143 -514
-208 -613 -241 -761 -251 -128 -9 -302 37 -564 147 -536 225 -652 260 -794
238z"/>
</g>
</svg>
